<svg version="1.1" xmlns="http://www.w3.org/2000/svg" viewBox="0 0 1249.7998025397578 632.1808523568736" width="2499.5996050795156" height="1264.3617047137473">
  <!-- svg-source:excalidraw -->
  
  <defs>
    <style>
      @font-face {
        font-family: "Virgil";
        src: url("https://excalidraw.com/Virgil.woff2");
      }
      @font-face {
        font-family: "Cascadia";
        src: url("https://excalidraw.com/Cascadia.woff2");
      }
    </style>
  </defs>
  <rect x="0" y="0" width="1249.7998025397578" height="632.1808523568736" fill="#ffffff"></rect><g stroke-linecap="round"><g transform="translate(481.6763639148552 193.44265135869483) rotate(269.76050842323644 -35.34263205590025 57.89580651521715)"><path d="M0 0 C-23.4 38.33, -46.79 76.66, -70.69 115.79 M0 0 C-20.9 34.23, -41.8 68.47, -70.69 115.79" stroke="#000000" stroke-width="1" fill="none"></path></g><g transform="translate(481.6763639148552 193.44265135869483) rotate(269.76050842323644 -35.34263205590025 57.89580651521715)"><path d="M-64.75 86.38 C-66.72 96.12, -68.68 105.85, -70.69 115.79 M-64.75 86.38 C-66.51 95.08, -68.26 103.77, -70.69 115.79" stroke="#000000" stroke-width="1" fill="none"></path></g><g transform="translate(481.6763639148552 193.44265135869483) rotate(269.76050842323644 -35.34263205590025 57.89580651521715)"><path d="M-47.24 97.08 C-55 103.27, -62.76 109.47, -70.69 115.79 M-47.24 97.08 C-54.17 102.61, -61.1 108.14, -70.69 115.79" stroke="#000000" stroke-width="1" fill="none"></path></g></g><g stroke-linecap="round" transform="translate(44.640002938899556 230.4387824711212) rotate(361.5089813421076 28.27215576171875 21.9248046875)"><path d="M15.93 1.31 C21 -1.01, 30.34 -1.5, 36.34 -0.19 C42.33 1.11, 48.6 5.09, 51.91 9.13 C55.23 13.17, 56.76 19.25, 56.22 24.03 C55.69 28.82, 53.08 34.43, 48.69 37.84 C44.31 41.25, 36.03 44.09, 29.92 44.49 C23.81 44.88, 16.85 42.99, 12.06 40.23 C7.27 37.47, 2.63 32.48, 1.18 27.93 C-0.26 23.39, -0.02 17.63, 3.38 12.97 C6.79 8.31, 17.84 1.95, 21.6 -0.02 C25.36 -1.99, 25.81 0.57, 25.94 1.16 M37.04 0.12 C42.83 1.58, 49.81 7.51, 52.83 11.79 C55.85 16.07, 56.01 21.55, 55.16 25.79 C54.31 30.03, 52.21 34.18, 47.71 37.23 C43.2 40.28, 34.2 43.9, 28.13 44.08 C22.07 44.26, 16.07 41.43, 11.32 38.31 C6.58 35.2, 0.84 29.85, -0.34 25.39 C-1.51 20.93, 1.39 15.57, 4.25 11.56 C7.11 7.54, 11.6 3.16, 16.85 1.31 C22.1 -0.54, 32.44 0.28, 35.76 0.44 C39.07 0.59, 36.8 1.63, 36.73 2.26" stroke="#000000" stroke-width="1" fill="none"></path></g><g stroke-linecap="round"><g transform="translate(70.8202048215224 276.11370906187665) rotate(361.5089813421076 1.5257673859922107 65.53093351799528)"><path d="M0.11 -1.05 C0.82 20.55, 3.85 108.76, 4.34 130.52 M-1.29 1.01 C-0.67 22.75, 3.29 110.56, 3.85 132.11" stroke="#000000" stroke-width="1" fill="none"></path></g></g><g stroke-linecap="round"><g transform="translate(11.071364891314317 302.0745410169353) rotate(361.5089813421076 62.88710336729883 -0.7677814610302676)"><path d="M-1.05 0.87 C19.94 0.45, 105.68 -2.09, 126.82 -2.4 M0.6 0.28 C21.36 0.01, 104.67 -0.56, 125.94 -1.09" stroke="#000000" stroke-width="1" fill="none"></path></g></g><g stroke-linecap="round"><g transform="translate(19.049152142038253 453.3486369510392) rotate(361.5089813421076 25.27997358746355 -24.1818584989756)"><path d="M0.87 0.11 C9.3 -7.79, 42.16 -40.34, 50.7 -48.47 M-0.14 -0.88 C8.09 -8.56, 40.87 -39.57, 49.53 -47.42" stroke="#000000" stroke-width="1" fill="none"></path></g></g><g stroke-linecap="round"><g transform="translate(73.31118528038482 406.52340708862346) rotate(361.5089813421076 23.37439642447046 21.564686103598234)"><path d="M0.11 -0.43 C7.92 6.9, 38.22 37.34, 45.81 44.83 M-1.29 -1.7 C6.98 5.23, 39.84 35.84, 48.04 43.2" stroke="#000000" stroke-width="1" fill="none"></path></g></g><g stroke-linecap="round"><g transform="translate(148.30672671185397 515.0407343764207) rotate(269.76050842323644 60.703720710748684 -69.29246447631903)"><path d="M0 0 C25.29 -28.87, 50.58 -57.74, 121.41 -138.58 M0 0 C25.04 -28.58, 50.08 -57.17, 121.41 -138.58" stroke="#000000" stroke-width="1" fill="none"></path></g><g transform="translate(148.30672671185397 515.0407343764207) rotate(269.76050842323644 60.703720710748684 -69.29246447631903)"><path d="M110.55 -110.62 C112.81 -116.45, 115.07 -122.27, 121.41 -138.58 M110.55 -110.62 C112.79 -116.39, 115.03 -122.15, 121.41 -138.58" stroke="#000000" stroke-width="1" fill="none"></path></g><g transform="translate(148.30672671185397 515.0407343764207) rotate(269.76050842323644 60.703720710748684 -69.29246447631903)"><path d="M95.11 -124.14 C100.59 -127.15, 106.07 -130.16, 121.41 -138.58 M95.11 -124.14 C100.54 -127.12, 105.96 -130.1, 121.41 -138.58" stroke="#000000" stroke-width="1" fill="none"></path></g></g><g stroke-linecap="round"><g transform="translate(25.426874713097703 359.8875746383942) rotate(269.76050842323644 208.30598494177727 -1.4031413377229853)"><path d="M0 0 C91.92 -0.62, 183.84 -1.24, 416.61 -2.81" stroke="#000000" stroke-width="1.5" fill="none" stroke-dasharray="1.5 7"></path></g></g><g stroke-linecap="round" transform="translate(445.72086885416115 213.30602169522018) rotate(269.76050842323644 149.51904296875006 141.53222566305652)"><path d="M150 0 C192.32 40.32, 234.64 80.64, 299.04 142 M150 0 C197.2 44.97, 244.39 89.93, 299.04 142 M299.04 142 C241 196.93, 182.96 251.87, 150 283.06 M299.04 142 C246.8 191.45, 194.56 240.89, 150 283.06 M150 283.06 C115.09 250.24, 80.18 217.41, 0 142 M150 283.06 C112.55 247.85, 75.1 212.63, 0 142 M0 142 C54.01 90.87, 108.03 39.73, 150 0 M0 142 C59.23 85.92, 118.47 29.85, 150 0" stroke="#000000" stroke-width="1" fill="none"></path></g><g stroke-linecap="round"><g transform="translate(777.6883989231105 191.1947839538078) rotate(65.7348388415888 -0.3829950431187399 69.20494658824525)"><path d="M0 0 C-0.2 36.27, -0.4 72.55, -0.77 138.41 M0 0 C-0.21 38.7, -0.43 77.4, -0.77 138.41" stroke="#000000" stroke-width="1" fill="none"></path></g><g transform="translate(777.6883989231105 191.1947839538078) rotate(65.7348388415888 -0.3829950431187399 69.20494658824525)"><path d="M-10.87 110.16 C-8.22 117.57, -5.57 124.97, -0.77 138.41 M-10.87 110.16 C-8.05 118.06, -5.22 125.96, -0.77 138.41" stroke="#000000" stroke-width="1" fill="none"></path></g><g transform="translate(777.6883989231105 191.1947839538078) rotate(65.7348388415888 -0.3829950431187399 69.20494658824525)"><path d="M9.65 110.28 C6.92 117.65, 4.19 125.02, -0.77 138.41 M9.65 110.28 C6.74 118.14, 3.83 126.01, -0.77 138.41" stroke="#000000" stroke-width="1" fill="none"></path></g></g><g transform="translate(508.50158249870947 10.325192087693438) rotate(360.1962076793381 95 22.5)"><text x="95" y="32" font-family="Virgil, Segoe UI Emoji" font-size="36px" fill="#000000" text-anchor="middle" style="white-space: pre;" direction="ltr">A Program:</text></g><g transform="translate(33.35847812628731 485.3234327891091) rotate(360.1962076793381 35.5 12.5)"><text x="35.5" y="18" font-family="Virgil, Segoe UI Emoji" font-size="20px" fill="#000000" text-anchor="middle" style="white-space: pre;" direction="ltr">User(s)</text></g><g transform="translate(314.05285182334575 159.83388079196806) rotate(360.1962076793381 26 37.49999999999999)"><text x="26" y="18" font-family="Virgil, Segoe UI Emoji" font-size="20px" fill="#000000" text-anchor="middle" style="white-space: pre;" direction="ltr">initial</text><text x="26" y="43" font-family="Virgil, Segoe UI Emoji" font-size="20px" fill="#000000" text-anchor="middle" style="white-space: pre;" direction="ltr">user </text><text x="26" y="68" font-family="Virgil, Segoe UI Emoji" font-size="20px" fill="#000000" text-anchor="middle" style="white-space: pre;" direction="ltr">data</text></g><g transform="translate(301.01702539694526 478.9303426984976) rotate(360.1962076793381 37 37.5)"><text x="37" y="18" font-family="Virgil, Segoe UI Emoji" font-size="20px" fill="#000000" text-anchor="middle" style="white-space: pre;" direction="ltr">final</text><text x="37" y="43" font-family="Virgil, Segoe UI Emoji" font-size="20px" fill="#000000" text-anchor="middle" style="white-space: pre;" direction="ltr">program</text><text x="37" y="68" font-family="Virgil, Segoe UI Emoji" font-size="20px" fill="#000000" text-anchor="middle" style="white-space: pre;" direction="ltr">data</text></g><g stroke-linecap="round" transform="translate(889.2955610411898 194.23335584131388) rotate(360.1962076793381 29.295701499516326 44.45459914789643)"><path d="M0.63 0.62 L60.53 -1.84 L60.37 89.55 L1.19 90.81" stroke="none" stroke-width="0" fill="#fff"></path><path d="M0.08 1.92 C22.57 0.48, 43.83 -1.58, 58.82 0.27 M0.67 -0.57 C11.44 0.3, 23.93 -1.26, 57.63 -0.36 M57.97 0.78 C56.37 25.71, 59.21 55.35, 60.28 88.68 M58.48 0.36 C58.74 32.8, 59.08 65.17, 58.53 89.44 M59.63 87.63 C43.05 88.19, 26.09 89.29, -0.76 87.12 M58.63 89.27 C38.17 89.77, 17.91 89.33, -0.16 87.96 M1.8 90.51 C1.62 69.08, -1.01 47.04, -0.9 -0.47 M-0.92 89.32 C0.27 61.01, 1.18 31.18, -0.37 0.21" stroke="#000000" stroke-width="2" fill="none"></path></g><g stroke-linecap="round" transform="translate(883.0588263218885 188.39242337451225) rotate(360.1962076793381 29.295701499516326 44.45459914789643)"><path d="M0.62 1.94 L56.76 1.78 L59.23 90.1 L1.9 90.6" stroke="none" stroke-width="0" fill="#fff"></path><path d="M1.92 -0.05 C14.25 -1.44, 25.95 0.21, 58.86 -1.97 M-0.57 -0.36 C13.65 -0.06, 25.16 -1.36, 58.23 0.09 M59.38 -1.84 C57.68 23.85, 59.81 47.39, 58.36 90.15 M58.96 0.29 C59.58 25.81, 59.77 50.29, 59.13 88.54 M57.32 88.8 C35.81 87.58, 14.63 88.46, -1.79 89.74 M58.96 88.51 C42.51 88.29, 25.09 88.77, -0.95 88.26 M1.6 90.82 C1.94 58.66, 0.8 28.98, -0.47 0.46 M0.41 88.82 C0.28 66.72, -0.84 42.53, 0.21 0.32" stroke="#000000" stroke-width="2" fill="none"></path></g><g stroke-linecap="round" transform="translate(875.2939259543734 181.5234373766628) rotate(360.1962076793381 29.295701499516326 44.454599147896424)"><path d="M1.94 -1.84 L60.37 0.64 L59.78 90.81 L1.69 89.94" stroke="none" stroke-width="0" fill="#fff"></path><path d="M-0.05 0.48 C16.16 -2.15, 35.38 -0.29, 56.62 -1.54 M-0.36 0.58 C20.78 -0.64, 39.92 -0.02, 58.69 -0.43 M56.75 -1.8 C59.31 35.89, 60 70.89, 59.83 88.57 M58.89 0.62 C59.14 31.18, 58.43 61.26, 58.23 89.71 M58.49 88.4 C41.5 89.13, 26.92 86.75, 0.83 88.7 M58.19 89.79 C40.58 89.56, 23.68 88.17, -0.65 89.23 M1.91 89.97 C-1.53 70.9, -1.7 52.58, 0.46 -0.82 M-0.09 89.72 C1.64 56.69, 0.46 25.32, 0.32 0.31" stroke="#000000" stroke-width="2" fill="none"></path></g><g stroke-linecap="round"><g transform="translate(884.593553835061 222.37904936339433) rotate(360.1962076793381 18.662714274800862 -1.5846667233960474)"><path d="M-0.03 -0.24 C5.4 -0.57, 26.2 -0.9, 32.66 -1.35 C39.13 -1.8, 37.96 -2.49, 38.75 -2.93 M-1.51 -1.13 C4.3 -0.83, 28.33 -0.24, 34.93 -0.31 C41.52 -0.38, 37.7 -1.01, 38.06 -1.53" stroke="#000000" stroke-width="1" fill="none"></path></g></g><g stroke-linecap="round"><g transform="translate(886.5536704743746 195.78224414496503) rotate(360.1962076793381 18.46012885971919 -0.920892115807014)"><path d="M0.29 -1.33 C2.27 -1.69, 6.73 -2.57, 13 -2.67 C19.28 -2.77, 33.96 -2.35, 37.94 -1.93 M-1.02 0.84 C1.23 0.7, 8.84 -0.71, 15.22 -1.06 C21.6 -1.4, 33.69 -1.01, 37.26 -1.24" stroke="#000000" stroke-width="1" fill="none"></path></g></g><g stroke-linecap="round"><g transform="translate(885.9286519771188 251.50952406136878) rotate(360.1962076793381 20.181085582499747 -0.7503365483214282)"><path d="M-0.85 -1.29 C2.83 -1.34, 16.89 -0.71, 22.03 -0.39 C27.17 -0.06, 26.9 0.79, 30 0.66 C33.11 0.53, 39.09 -0.65, 40.66 -1.16 M0.91 0.83 C4.44 0.97, 15.93 1.13, 21.16 1.24 C26.38 1.35, 28.93 2.25, 32.28 1.49 C35.62 0.74, 39.72 -2.67, 41.21 -3.29" stroke="#000000" stroke-width="1" fill="none"></path></g></g><g stroke-linecap="round"><g transform="translate(883.0706545520686 260.9732272502064) rotate(360.1962076793381 22.841040332731154 -1.1863602081384386)"><path d="M-0.95 -0.26 C0.43 -0.47, 6.36 -2.5, 8.59 -2.54 C10.82 -2.59, 7.35 -0.83, 12.45 -0.5 C17.54 -0.18, 33.79 -0.39, 39.16 -0.57 C44.53 -0.75, 43.61 -1.12, 44.67 -1.6 M0.75 -1.23 C1.97 -1.27, 5.37 -1.41, 7.73 -1.63 C10.08 -1.85, 9.51 -2.84, 14.86 -2.54 C20.21 -2.24, 34.53 -0.11, 39.83 0.17 C45.12 0.46, 46.02 -0.57, 46.63 -0.84" stroke="#000000" stroke-width="1" fill="none"></path></g></g><g stroke-linecap="round"><g transform="translate(883.8040592422158 207.8654629034812) rotate(360.1962076793381 19.119465491246615 0.35272184644213667)"><path d="M0.14 0.06 C2.59 -0.02, 7.34 -1.88, 13.9 -1.52 C20.46 -1.15, 35.44 1.84, 39.49 2.27 M-1.25 -0.9 C1.63 -0.77, 9.28 -0.67, 15.99 -0.46 C22.7 -0.25, 35.35 -0.05, 39.03 0.35" stroke="#000000" stroke-width="1" fill="none"></path></g></g><g stroke-linecap="round"><g transform="translate(884.2232430193984 236.4305793344554) rotate(360.1962076793381 18.638616223909082 0.4371653804934965)"><path d="M0.16 -1.28 C1.28 -1.01, 3.16 1.67, 5.79 1.67 C8.41 1.67, 10.44 -1.36, 15.89 -1.28 C21.34 -1.2, 34.57 1.9, 38.47 2.16 M-1.21 0.71 C0.36 0.61, 5.22 0.03, 8.01 -0.15 C10.81 -0.32, 10.47 -0.34, 15.55 -0.32 C20.63 -0.3, 34.74 -0.1, 38.49 -0.03" stroke="#000000" stroke-width="1" fill="none"></path></g></g><g transform="translate(816.4310195198676 114.8249115334905) rotate(360.1962076793381 109.5 25)"><text x="109.5" y="18" font-family="Virgil, Segoe UI Emoji" font-size="20px" fill="#000000" text-anchor="middle" style="white-space: pre;" direction="ltr">Source Code</text><text x="109.5" y="43" font-family="Virgil, Segoe UI Emoji" font-size="20px" fill="#000000" text-anchor="middle" style="white-space: pre;" direction="ltr">( static instructions )</text></g><g transform="translate(506.94348556783586 313.4876608588809) rotate(360.1962076793381 94 75)"><text x="94" y="18" font-family="Virgil, Segoe UI Emoji" font-size="20px" fill="#000000" text-anchor="middle" style="white-space: pre;" direction="ltr">follows instructions</text><text x="94" y="43" font-family="Virgil, Segoe UI Emoji" font-size="20px" fill="#000000" text-anchor="middle" style="white-space: pre;" direction="ltr"> to processes </text><text x="94" y="68" font-family="Virgil, Segoe UI Emoji" font-size="20px" fill="#000000" text-anchor="middle" style="white-space: pre;" direction="ltr">user data.</text><text x="94" y="93" font-family="Virgil, Segoe UI Emoji" font-size="20px" fill="#000000" text-anchor="middle" style="white-space: pre;" direction="ltr"></text><text x="94" y="118" font-family="Virgil, Segoe UI Emoji" font-size="20px" fill="#000000" text-anchor="middle" style="white-space: pre;" direction="ltr">(tracing!)</text><text x="94" y="143" font-family="Virgil, Segoe UI Emoji" font-size="20px" fill="#000000" text-anchor="middle" style="white-space: pre;" direction="ltr"></text></g><g transform="translate(493.69205035971834 116.46478568918064) rotate(360.1962076793381 103 25)"><text x="103" y="18" font-family="Virgil, Segoe UI Emoji" font-size="20px" fill="#000000" text-anchor="middle" style="white-space: pre;" direction="ltr">The Computer</text><text x="103" y="43" font-family="Virgil, Segoe UI Emoji" font-size="20px" fill="#000000" text-anchor="middle" style="white-space: pre;" direction="ltr">( dynamic execution )</text></g><g transform="translate(135.67260360030707 583.1024540149285) rotate(360.1962076793381 75 12.500000000000028)"><text x="75" y="18" font-family="Virgil, Segoe UI Emoji" font-size="20px" fill="#000000" text-anchor="middle" style="white-space: pre;" direction="ltr">User Interface</text></g><g stroke-linecap="round"><g transform="translate(47.003574483451274 103.85830104469515) rotate(360.1962076793381 585.2070483093182 0.1630577522631098)"><path d="M0 0 C455.67 0.13, 911.34 0.25, 1170.41 0.33 M0 0 C446.74 0.12, 893.48 0.25, 1170.41 0.33" stroke="#000000" stroke-width="1" fill="none"></path></g></g><g stroke-linecap="round"><g transform="translate(981.2367615915012 505.1884935697856) rotate(360.1962076793381 70.95520484062877 -53.924436710717856)"><path d="M0 0 C49.84 -37.87, 99.67 -75.75, 141.91 -107.85 M0 0 C31.31 -23.79, 62.62 -47.59, 141.91 -107.85" stroke="#000000" stroke-width="1" fill="none"></path></g><g transform="translate(981.2367615915012 505.1884935697856) rotate(360.1962076793381 70.95520484062877 -53.924436710717856)"><path d="M125.67 -82.62 C131.38 -91.48, 137.08 -100.34, 141.91 -107.85 M125.67 -82.62 C129.26 -88.19, 132.84 -93.75, 141.91 -107.85" stroke="#000000" stroke-width="1" fill="none"></path></g><g transform="translate(981.2367615915012 505.1884935697856) rotate(360.1962076793381 70.95520484062877 -53.924436710717856)"><path d="M113.26 -98.96 C123.32 -102.08, 133.38 -105.2, 141.91 -107.85 M113.26 -98.96 C119.58 -100.92, 125.9 -102.88, 141.91 -107.85" stroke="#000000" stroke-width="1" fill="none"></path></g></g><g transform="translate(848.3324678909439 490.30018324849357) rotate(360.1962076793381 73.99999999999994 25)"><text x="74" y="18" font-family="Virgil, Segoe UI Emoji" font-size="20px" fill="#000000" text-anchor="middle" style="white-space: pre;" direction="ltr">logs and </text><text x="74" y="43" font-family="Virgil, Segoe UI Emoji" font-size="20px" fill="#000000" text-anchor="middle" style="white-space: pre;" direction="ltr">error messages</text></g><g stroke-linecap="round" transform="translate(1144.7324933020213 236.58000050518734) rotate(360.1962076793381 28.27215576171875 21.9248046875)"><path d="M16.43 2.6 C21.54 0.27, 30.27 -0.92, 36.14 0.05 C42 1.03, 48.39 4.62, 51.63 8.45 C54.86 12.27, 56.13 18.32, 55.55 23.01 C54.97 27.69, 52.34 33.2, 48.13 36.56 C43.93 39.92, 36.17 42.5, 30.3 43.19 C24.43 43.87, 17.81 43.14, 12.92 40.66 C8.03 38.17, 2.7 32.8, 0.97 28.29 C-0.76 23.78, -0.49 18.11, 2.53 13.58 C5.55 9.04, 15.89 3.15, 19.08 1.08 C22.26 -0.98, 21.56 0.99, 21.65 1.21 M25.67 0.03 C31.23 -0.9, 37.63 1.08, 42.78 3.77 C47.94 6.45, 54.84 11.52, 56.58 16.14 C58.32 20.77, 55.91 27.1, 53.21 31.5 C50.51 35.91, 45.51 40.52, 40.37 42.58 C35.24 44.64, 27.94 45.03, 22.4 43.85 C16.86 42.67, 10.72 39.31, 7.15 35.5 C3.58 31.69, 1.19 25.77, 0.99 20.98 C0.79 16.19, 2.19 10.38, 5.95 6.79 C9.71 3.2, 20.67 0.35, 23.55 -0.57 C26.42 -1.49, 23.14 0.59, 23.23 1.26" stroke="#000000" stroke-width="1" fill="none"></path></g><g stroke-linecap="round"><g transform="translate(1172.9602523428998 282.24280052562847) rotate(360.1962076793381 1.0388393616024132 64.95938626232557)"><path d="M-0.17 -1.05 C0.44 20.87, 3.16 108.95, 3.79 130.97 M-1.71 1.02 C-1.26 22.63, 2.24 107.8, 3.01 129.14" stroke="#000000" stroke-width="1" fill="none"></path></g></g><g stroke-linecap="round"><g transform="translate(1112.2848864939597 308.1797168021152) rotate(360.1962076793381 63.113475257977825 -0.7702464949339856)"><path d="M-1.05 0.31 C20.26 0.03, 105.87 -1.58, 127.27 -1.85 M0.6 -0.57 C21.84 -0.62, 105.56 0.21, 126.62 -0.25" stroke="#000000" stroke-width="1" fill="none"></path></g></g><g stroke-linecap="round"><g transform="translate(1123.1993283706238 460.0977861223313) rotate(360.1962076793381 25.13235427630127 -24.060098894508513)"><path d="M0.31 0.56 C8.88 -7.08, 42.67 -38.74, 51.25 -46.9 M-0.98 -0.19 C7.45 -8.09, 41.64 -40.79, 50.36 -48.68" stroke="#000000" stroke-width="1" fill="none"></path></g></g><g stroke-linecap="round"><g transform="translate(1177.4223872169637 412.073887645583) rotate(360.1962076793381 23.386501972340056 21.83778592798859)"><path d="M0.56 0.12 C8.63 7.49, 39.82 37.2, 47.38 44.54 M-0.6 -0.86 C7.46 6.13, 38.62 35.02, 46.77 42.76" stroke="#000000" stroke-width="1" fill="none"></path></g></g><g transform="translate(1119.7145427660362 492.7949007965809) rotate(360.1962076793381 60 25)"><text x="60" y="18" font-family="Virgil, Segoe UI Emoji" font-size="20px" fill="#000000" text-anchor="middle" style="white-space: pre;" direction="ltr">Developer(s)</text><text x="60" y="43" font-family="Virgil, Segoe UI Emoji" font-size="20px" fill="#000000" text-anchor="middle" style="white-space: pre;" direction="ltr"></text></g><g stroke-linecap="round"><g transform="translate(779.9281298216658 151.82986343584014) rotate(359.37764627565696 0.35156250000005684 203.77511160714283)"><path d="M0 0 C0.15 89.75, 0.31 179.5, 0.7 407.55" stroke="#000000" stroke-width="1.5" fill="none" stroke-dasharray="1.5 7"></path></g></g><g transform="translate(682.8573219199046 571.8984807195224) rotate(360.1962076793381 82.5 24.99999999999997)"><text x="82.5" y="18" font-family="Virgil, Segoe UI Emoji" font-size="20px" fill="#000000" text-anchor="middle" style="white-space: pre;" direction="ltr">Interpreter and </text><text x="82.5" y="43" font-family="Virgil, Segoe UI Emoji" font-size="20px" fill="#000000" text-anchor="middle" style="white-space: pre;" direction="ltr">Developer Tools</text></g><g stroke-linecap="round"><g transform="translate(985.0941187567827 371.9246525791061) rotate(0 65.68383293900342 -1.0362538253346543)"><path d="M0 0 C44.47 -0.7, 88.95 -1.4, 131.37 -2.07 M0 0 C35.14 -0.55, 70.27 -1.11, 131.37 -2.07" stroke="#000000" stroke-width="1" fill="none"></path></g><g transform="translate(985.0941187567827 371.9246525791061) rotate(0 65.68383293900342 -1.0362538253346543)"><path d="M103.34 8.63 C112.83 5.01, 122.32 1.38, 131.37 -2.07 M103.34 8.63 C110.84 5.77, 118.33 2.91, 131.37 -2.07" stroke="#000000" stroke-width="1" fill="none"></path></g><g transform="translate(985.0941187567827 371.9246525791061) rotate(0 65.68383293900342 -1.0362538253346543)"><path d="M103.02 -11.89 C112.62 -8.56, 122.21 -5.24, 131.37 -2.07 M103.02 -11.89 C110.6 -9.26, 118.18 -6.64, 131.37 -2.07" stroke="#000000" stroke-width="1" fill="none"></path></g></g><g transform="translate(866.2000658847893 334.7662074284368) rotate(0 72 37.5)"><text x="0" y="18" font-family="Virgil, Segoe UI Emoji" font-size="20px" fill="#000000" text-anchor="start" style="white-space: pre;" direction="ltr">comments,</text><text x="0" y="43" font-family="Virgil, Segoe UI Emoji" font-size="20px" fill="#000000" text-anchor="start" style="white-space: pre;" direction="ltr">formatting,</text><text x="0" y="68" font-family="Virgil, Segoe UI Emoji" font-size="20px" fill="#000000" text-anchor="start" style="white-space: pre;" direction="ltr">variable names</text></g><g stroke-linecap="round"><g transform="translate(1001.7051871710227 324.6282510843997) rotate(269.76050842323644 30.963628713766525 -64.24876240596292)"><path d="M0 0 C19.2 -39.83, 38.39 -79.66, 61.93 -128.5 M0 0 C18.55 -38.5, 37.11 -76.99, 61.93 -128.5" stroke="#000000" stroke-width="1" fill="none"></path></g><g transform="translate(1001.7051871710227 324.6282510843997) rotate(269.76050842323644 30.963628713766525 -64.24876240596292)"><path d="M58.93 -98.65 C59.86 -107.9, 60.79 -117.15, 61.93 -128.5 M58.93 -98.65 C59.83 -107.59, 60.73 -116.53, 61.93 -128.5" stroke="#000000" stroke-width="1" fill="none"></path></g><g transform="translate(1001.7051871710227 324.6282510843997) rotate(269.76050842323644 30.963628713766525 -64.24876240596292)"><path d="M40.45 -107.56 C47.1 -114.05, 53.76 -120.54, 61.93 -128.5 M40.45 -107.56 C46.88 -113.83, 53.32 -120.1, 61.93 -128.5" stroke="#000000" stroke-width="1" fill="none"></path></g></g><g stroke-linecap="round"><g transform="translate(809.0661354406894 403.43680716321967) rotate(269.76050842323644 -35.34263205590025 57.895806515217146)"><path d="M0 0 C-20.66 33.85, -41.33 67.7, -70.69 115.79 M0 0 C-22.7 37.18, -45.39 74.36, -70.69 115.79" stroke="#000000" stroke-width="1" fill="none"></path></g><g transform="translate(809.0661354406894 403.43680716321967) rotate(269.76050842323644 -35.34263205590025 57.895806515217146)"><path d="M-64.75 86.38 C-66.49 94.98, -68.22 103.58, -70.69 115.79 M-64.75 86.38 C-66.66 95.83, -68.56 105.27, -70.69 115.79" stroke="#000000" stroke-width="1" fill="none"></path></g><g transform="translate(809.0661354406894 403.43680716321967) rotate(269.76050842323644 -35.34263205590025 57.895806515217146)"><path d="M-47.24 97.08 C-54.09 102.55, -60.95 108.02, -70.69 115.79 M-47.24 97.08 C-54.77 103.09, -62.3 109.1, -70.69 115.79" stroke="#000000" stroke-width="1" fill="none"></path></g></g><g stroke-linecap="round"><g transform="translate(924.4898395051111 314.28066214177596) rotate(269.76050842323644 -17.508449613275047 0.06220802146327742)"><path d="M0 0 C-13.53 0.05, -27.05 0.1, -35.02 0.12 M0 0 C-12.47 0.04, -24.93 0.09, -35.02 0.12" stroke="#000000" stroke-width="1" fill="none"></path></g><g transform="translate(924.4898395051111 314.28066214177596) rotate(269.76050842323644 -17.508449613275047 0.06220802146327742)"><path d="M-18.59 -5.92 C-24.93 -3.59, -31.28 -1.25, -35.02 0.12 M-18.59 -5.92 C-24.44 -3.77, -30.29 -1.62, -35.02 0.12" stroke="#000000" stroke-width="1" fill="none"></path></g><g transform="translate(924.4898395051111 314.28066214177596) rotate(269.76050842323644 -17.508449613275047 0.06220802146327742)"><path d="M-18.54 6.05 C-24.91 3.76, -31.27 1.47, -35.02 0.12 M-18.54 6.05 C-24.41 3.94, -30.27 1.83, -35.02 0.12" stroke="#000000" stroke-width="1" fill="none"></path></g></g><g stroke-linecap="round"><g transform="translate(163.58841579261943 292.4968912166463) rotate(360.1962076793381 66.87336884216977 -39.031465038209596)"><path d="M0 0 C34.89 -20.36, 69.77 -40.72, 133.75 -78.06 M0 0 C44.85 -26.18, 89.7 -52.36, 133.75 -78.06" stroke="#000000" stroke-width="1" fill="none"></path></g><g transform="translate(163.58841579261943 292.4968912166463) rotate(360.1962076793381 66.87336884216977 -39.031465038209596)"><path d="M114.57 -54.99 C119.57 -61.01, 124.57 -67.03, 133.75 -78.06 M114.57 -54.99 C121 -62.73, 127.43 -70.47, 133.75 -78.06" stroke="#000000" stroke-width="1" fill="none"></path></g><g transform="translate(163.58841579261943 292.4968912166463) rotate(360.1962076793381 66.87336884216977 -39.031465038209596)"><path d="M104.23 -72.71 C111.93 -74.11, 119.63 -75.5, 133.75 -78.06 M104.23 -72.71 C114.13 -74.51, 124.03 -76.3, 133.75 -78.06" stroke="#000000" stroke-width="1" fill="none"></path></g></g><g stroke-linecap="round"><g transform="translate(435.38693737206387 413.3164326101204) rotate(65.7348388415888 11.080706637725797 64.39118106831629)"><path d="M0 0 C7.81 45.4, 15.63 90.81, 22.16 128.78 M0 0 C5.53 32.16, 11.07 64.32, 22.16 128.78" stroke="#000000" stroke-width="1" fill="none"></path></g><g transform="translate(435.38693737206387 413.3164326101204) rotate(65.7348388415888 11.080706637725797 64.39118106831629)"><path d="M7.27 102.74 C12.52 111.92, 17.77 121.1, 22.16 128.78 M7.27 102.74 C10.99 109.24, 14.71 115.75, 22.16 128.78" stroke="#000000" stroke-width="1" fill="none"></path></g><g transform="translate(435.38693737206387 413.3164326101204) rotate(65.7348388415888 11.080706637725797 64.39118106831629)"><path d="M27.49 99.26 C25.61 109.67, 23.73 120.08, 22.16 128.78 M27.49 99.26 C26.16 106.63, 24.83 114.01, 22.16 128.78" stroke="#000000" stroke-width="1" fill="none"></path></g></g></svg>