<svg xmlns="http://www.w3.org/2000/svg" xmlns:xlink="http://www.w3.org/1999/xlink" width="80" height="80"><defs><linearGradient id="f" x1="50%" x2="50%" y1="0%" y2="100%"><stop offset="0%" stop-color="#A5B4FC"/><stop offset="100%" stop-color="#818CF8"/></linearGradient><linearGradient id="g" x1="50%" x2="50%" y1="24.537%" y2="100%"><stop offset="0%" stop-color="#4338CA"/><stop offset="100%" stop-color="#6366F1" stop-opacity="0"/></linearGradient><path id="c" d="M14.944 5.179 29.888 35.18l-14.944-4.688L0 35.18z"/><path id="e" d="m31.552 0 21.486 43.134-21.486-6.74-21.486 6.74z"/><filter id="d" width="300.8%" height="300%" x="-100.4%" y="-100%" filterUnits="objectBoundingBox"><feGaussianBlur in="SourceGraphic" stdDeviation="10"/></filter><rect id="a" width="79" height="79" x="0" y="0" rx="39.5"/></defs><g fill="none" fill-rule="evenodd" transform="translate(1 1)"><mask id="b" fill="#fff"><use xlink:href="#a"/></mask><g mask="url(#b)"><g transform="rotate(-51 45.768 23.335)"><use xlink:href="#c" fill="#475569" fill-opacity=".32" filter="url(#d)" opacity=".64"/><mask id="h" fill="#fff"><use xlink:href="#e"/></mask><use xlink:href="#e" fill="url(#f)"/><path fill="url(#g)" d="M31.329-8.887h27.236v51.639H31.329z" mask="url(#h)"/></g><path fill="#475569" fill-opacity=".4" d="M55.837 47.371c5.258 3.84 11.206 6.728 17.441 8.526.342.1.43-.207.093-.314-3.07-.956-5.985-2.416-8.75-4.047-2.77-1.634-5.393-3.434-8.053-5.163-1.072-.707-1.842.175-.731.998M54.693 54.349c9.628 10.935 19.319 21.864 28.966 32.796.529.599.767.387.244-.217-9.496-10.97-18.431-22.733-28.284-33.397-2-2.166-2.962-1.495-.926.818"/></g></g></svg>