<?xml version="1.0" encoding="UTF-8" standalone="no"?>
<svg
   xmlns:dc="http://purl.org/dc/elements/1.1/"
   xmlns:cc="http://creativecommons.org/ns#"
   xmlns:rdf="http://www.w3.org/1999/02/22-rdf-syntax-ns#"
   xmlns:svg="http://www.w3.org/2000/svg"
   xmlns="http://www.w3.org/2000/svg"
   xmlns:sodipodi="http://sodipodi.sourceforge.net/DTD/sodipodi-0.dtd"
   xmlns:inkscape="http://www.inkscape.org/namespaces/inkscape"
   viewBox="0 0 386.90573 247.75829"
   height="247.75829"
   width="386.90573"
   xml:space="preserve"
   id="svg2"
   version="1.1"
   sodipodi:docname="Positional_notation_glossary-en.svg"
   inkscape:version="0.92.4 (5da689c313, 2019-01-14)"><sodipodi:namedview
     pagecolor="#ffffff"
     bordercolor="#666666"
     borderopacity="1"
     objecttolerance="10"
     gridtolerance="10"
     guidetolerance="10"
     inkscape:pageopacity="0"
     inkscape:pageshadow="2"
     inkscape:window-width="1920"
     inkscape:window-height="986"
     id="namedview93"
     showgrid="false"
     inkscape:zoom="0.57943473"
     inkscape:cx="-347.16889"
     inkscape:cy="64.193611"
     inkscape:window-x="-11"
     inkscape:window-y="-11"
     inkscape:window-maximized="1"
     inkscape:current-layer="svg2"
     fit-margin-left="10"
     fit-margin-top="10"
     fit-margin-bottom="10"
     fit-margin-right="10" /><metadata
     id="metadata8"><rdf:RDF><cc:Work
         rdf:about=""><dc:format>image/svg+xml</dc:format><dc:type
           rdf:resource="http://purl.org/dc/dcmitype/StillImage" /><dc:title></dc:title></cc:Work></rdf:RDF></metadata><defs
     id="defs6"><marker
       inkscape:isstock="true"
       style="overflow:visible"
       id="marker4112"
       refX="0"
       refY="0"
       orient="auto"
       inkscape:stockid="Arrow1Mend"><path
         transform="matrix(-0.4,0,0,-0.4,-4,0)"
         style="fill:#000000;fill-opacity:1;fill-rule:evenodd;stroke:#000000;stroke-width:1.00000003pt;stroke-opacity:1"
         d="M 0,0 5,-5 -12.5,0 5,5 Z"
         id="path4110"
         inkscape:connector-curvature="0" /></marker><marker
       inkscape:isstock="true"
       style="overflow:visible"
       id="marker3982"
       refX="0"
       refY="0"
       orient="auto"
       inkscape:stockid="Arrow1Mend"><path
         transform="matrix(-0.4,0,0,-0.4,-4,0)"
         style="fill:#000000;fill-opacity:1;fill-rule:evenodd;stroke:#000000;stroke-width:1.00000003pt;stroke-opacity:1"
         d="M 0,0 5,-5 -12.5,0 5,5 Z"
         id="path3980"
         inkscape:connector-curvature="0" /></marker><marker
       inkscape:isstock="true"
       style="overflow:visible"
       id="marker3858"
       refX="0"
       refY="0"
       orient="auto"
       inkscape:stockid="Arrow1Mend"><path
         transform="matrix(-0.4,0,0,-0.4,-4,0)"
         style="fill:#000000;fill-opacity:1;fill-rule:evenodd;stroke:#000000;stroke-width:1.00000003pt;stroke-opacity:1"
         d="M 0,0 5,-5 -12.5,0 5,5 Z"
         id="path3856"
         inkscape:connector-curvature="0" /></marker><marker
       inkscape:isstock="true"
       style="overflow:visible"
       id="marker3740"
       refX="0"
       refY="0"
       orient="auto"
       inkscape:stockid="Arrow1Mend"><path
         transform="matrix(-0.4,0,0,-0.4,-4,0)"
         style="fill:#000000;fill-opacity:1;fill-rule:evenodd;stroke:#000000;stroke-width:1.00000003pt;stroke-opacity:1"
         d="M 0,0 5,-5 -12.5,0 5,5 Z"
         id="path3738"
         inkscape:connector-curvature="0" /></marker><marker
       inkscape:isstock="true"
       style="overflow:visible"
       id="marker3628"
       refX="0"
       refY="0"
       orient="auto"
       inkscape:stockid="Arrow1Mend"><path
         transform="matrix(-0.4,0,0,-0.4,-4,0)"
         style="fill:#000000;fill-opacity:1;fill-rule:evenodd;stroke:#000000;stroke-width:1.00000003pt;stroke-opacity:1"
         d="M 0,0 5,-5 -12.5,0 5,5 Z"
         id="path3626"
         inkscape:connector-curvature="0" /></marker><marker
       inkscape:isstock="true"
       style="overflow:visible"
       id="marker3522"
       refX="0"
       refY="0"
       orient="auto"
       inkscape:stockid="Arrow1Mend"><path
         transform="matrix(-0.4,0,0,-0.4,-4,0)"
         style="fill:#000000;fill-opacity:1;fill-rule:evenodd;stroke:#000000;stroke-width:1.00000003pt;stroke-opacity:1"
         d="M 0,0 5,-5 -12.5,0 5,5 Z"
         id="path3520"
         inkscape:connector-curvature="0" /></marker><marker
       inkscape:isstock="true"
       style="overflow:visible"
       id="marker3320"
       refX="0"
       refY="0"
       orient="auto"
       inkscape:stockid="Arrow1Mend"><path
         transform="matrix(-0.4,0,0,-0.4,-4,0)"
         style="fill:#000000;fill-opacity:1;fill-rule:evenodd;stroke:#000000;stroke-width:1.00000003pt;stroke-opacity:1"
         d="M 0,0 5,-5 -12.5,0 5,5 Z"
         id="path3318"
         inkscape:connector-curvature="0" /></marker><marker
       inkscape:isstock="true"
       style="overflow:visible"
       id="marker3208"
       refX="0"
       refY="0"
       orient="auto"
       inkscape:stockid="Arrow1Mend"><path
         transform="matrix(-0.4,0,0,-0.4,-4,0)"
         style="fill:#000000;fill-opacity:1;fill-rule:evenodd;stroke:#000000;stroke-width:1.00000003pt;stroke-opacity:1"
         d="M 0,0 5,-5 -12.5,0 5,5 Z"
         id="path3206"
         inkscape:connector-curvature="0" /></marker><marker
       inkscape:isstock="true"
       style="overflow:visible"
       id="marker3120"
       refX="0"
       refY="0"
       orient="auto"
       inkscape:stockid="Arrow1Mend"><path
         transform="matrix(-0.4,0,0,-0.4,-4,0)"
         style="fill:#000000;fill-opacity:1;fill-rule:evenodd;stroke:#000000;stroke-width:1.00000003pt;stroke-opacity:1"
         d="M 0,0 5,-5 -12.5,0 5,5 Z"
         id="path3118"
         inkscape:connector-curvature="0" /></marker><marker
       inkscape:stockid="Arrow1Mend"
       orient="auto"
       refY="0"
       refX="0"
       id="Arrow1Mend"
       style="overflow:visible"
       inkscape:isstock="true"
       inkscape:collect="always"><path
         id="path2779"
         d="M 0,0 5,-5 -12.5,0 5,5 Z"
         style="fill:#000000;fill-opacity:1;fill-rule:evenodd;stroke:#000000;stroke-width:1.00000003pt;stroke-opacity:1"
         transform="matrix(-0.4,0,0,-0.4,-4,0)"
         inkscape:connector-curvature="0" /></marker><marker
       inkscape:stockid="Arrow1Lend"
       orient="auto"
       refY="0"
       refX="0"
       id="Arrow1Lend"
       style="overflow:visible"
       inkscape:isstock="true"><path
         id="path4669"
         d="M 0,0 5,-5 -12.5,0 5,5 Z"
         style="fill:#000000;fill-opacity:1;fill-rule:evenodd;stroke:#000000;stroke-width:1.00000003pt;stroke-opacity:1"
         transform="matrix(-0.8,0,0,-0.8,-10,0)"
         inkscape:connector-curvature="0" /></marker><clipPath
       id="clipPath18"
       clipPathUnits="userSpaceOnUse"><path
         style="clip-rule:evenodd"
         id="path16"
         d="M 0,9.1553e-5 H 576 V 432.00009 H 0 Z"
         inkscape:connector-curvature="0" /></clipPath><clipPath
       id="clipPath28"
       clipPathUnits="userSpaceOnUse"><path
         style="clip-rule:evenodd"
         id="path26"
         d="M 8.583e-6,0 H 576.00001 V 432 H 8.583e-6 Z"
         inkscape:connector-curvature="0" /></clipPath><clipPath
       id="clipPath40"
       clipPathUnits="userSpaceOnUse"><path
         style="clip-rule:evenodd"
         id="path38"
         d="M 8.583e-6,0 H 576.00001 V 432 H 8.583e-6 Z"
         inkscape:connector-curvature="0" /></clipPath><clipPath
       id="clipPath52"
       clipPathUnits="userSpaceOnUse"><path
         style="clip-rule:evenodd"
         id="path50"
         d="M 8.583e-6,0 H 576.00001 V 432 H 8.583e-6 Z"
         inkscape:connector-curvature="0" /></clipPath><clipPath
       id="clipPath64"
       clipPathUnits="userSpaceOnUse"><path
         style="clip-rule:evenodd"
         id="path62"
         d="M 8.583e-6,0 H 576.00001 V 432 H 8.583e-6 Z"
         inkscape:connector-curvature="0" /></clipPath><clipPath
       id="clipPath76"
       clipPathUnits="userSpaceOnUse"><path
         style="clip-rule:evenodd"
         id="path74"
         d="M 8.583e-6,0 H 576.00001 V 432 H 8.583e-6 Z"
         inkscape:connector-curvature="0" /></clipPath><clipPath
       id="clipPath88"
       clipPathUnits="userSpaceOnUse"><path
         style="clip-rule:evenodd"
         id="path86"
         d="M 8.583e-6,0 H 576.00001 V 432 H 8.583e-6 Z"
         inkscape:connector-curvature="0" /></clipPath><clipPath
       id="clipPath104"
       clipPathUnits="userSpaceOnUse"><path
         style="clip-rule:evenodd"
         id="path102"
         d="M 8.583e-6,0 H 576.00001 V 432 H 8.583e-6 Z"
         inkscape:connector-curvature="0" /></clipPath><clipPath
       id="clipPath118"
       clipPathUnits="userSpaceOnUse"><path
         style="clip-rule:evenodd"
         id="path116"
         d="M 8.583e-6,0 H 576.00001 V 432 H 8.583e-6 Z"
         inkscape:connector-curvature="0" /></clipPath><clipPath
       id="clipPath130"
       clipPathUnits="userSpaceOnUse"><path
         style="clip-rule:evenodd"
         id="path128"
         d="M -1.5259e-5,432 H 576 V 0 L -1.5259e-5,3.0518e-5"
         inkscape:connector-curvature="0" /></clipPath><clipPath
       id="clipPath140"
       clipPathUnits="userSpaceOnUse"><path
         style="clip-rule:evenodd"
         id="path138"
         d="M 8.583e-6,0 H 576.00001 V 432 H 8.583e-6 Z"
         inkscape:connector-curvature="0" /></clipPath><clipPath
       id="clipPath160"
       clipPathUnits="userSpaceOnUse"><path
         style="clip-rule:evenodd"
         id="path158"
         d="M 8.583e-6,0 H 576.00001 V 432 H 8.583e-6 Z"
         inkscape:connector-curvature="0" /></clipPath><clipPath
       id="clipPath180"
       clipPathUnits="userSpaceOnUse"><path
         style="clip-rule:evenodd"
         id="path178"
         d="M 8.583e-6,0 H 576.00001 V 432 H 8.583e-6 Z"
         inkscape:connector-curvature="0" /></clipPath><marker
       inkscape:stockid="Arrow1Lend"
       orient="auto"
       refY="0"
       refX="0"
       id="Arrow1Lend-7"
       style="overflow:visible"
       inkscape:isstock="true"><path
         inkscape:connector-curvature="0"
         id="path4669-6"
         d="M 0,0 5,-5 -12.5,0 5,5 Z"
         style="fill:#000000;fill-opacity:1;fill-rule:evenodd;stroke:#000000;stroke-width:1.00000003pt;stroke-opacity:1"
         transform="matrix(-0.8,0,0,-0.8,-10,0)" /></marker><marker
       inkscape:stockid="Arrow1Lend"
       orient="auto"
       refY="0"
       refX="0"
       id="Arrow1Lend-0"
       style="overflow:visible"
       inkscape:isstock="true"><path
         inkscape:connector-curvature="0"
         id="path4669-4"
         d="M 0,0 5,-5 -12.5,0 5,5 Z"
         style="fill:#000000;fill-opacity:1;fill-rule:evenodd;stroke:#000000;stroke-width:1.00000003pt;stroke-opacity:1"
         transform="matrix(-0.8,0,0,-0.8,-10,0)" /></marker><marker
       inkscape:stockid="Arrow1Lend"
       orient="auto"
       refY="0"
       refX="0"
       id="Arrow1Lend-1"
       style="overflow:visible"
       inkscape:isstock="true"><path
         inkscape:connector-curvature="0"
         id="path4669-0"
         d="M 0,0 5,-5 -12.5,0 5,5 Z"
         style="fill:#000000;fill-opacity:1;fill-rule:evenodd;stroke:#000000;stroke-width:1.00000003pt;stroke-opacity:1"
         transform="matrix(-0.8,0,0,-0.8,-10,0)" /></marker><marker
       inkscape:stockid="Arrow1Lend"
       orient="auto"
       refY="0"
       refX="0"
       id="Arrow1Lend-0-2"
       style="overflow:visible"
       inkscape:isstock="true"><path
         inkscape:connector-curvature="0"
         id="path4669-4-7"
         d="M 0,0 5,-5 -12.5,0 5,5 Z"
         style="fill:#000000;fill-opacity:1;fill-rule:evenodd;stroke:#000000;stroke-width:1.00000003pt;stroke-opacity:1"
         transform="matrix(-0.8,0,0,-0.8,-10,0)" /></marker><marker
       inkscape:stockid="Arrow1Lend"
       orient="auto"
       refY="0"
       refX="0"
       id="Arrow1Lend-0-2-3"
       style="overflow:visible"
       inkscape:isstock="true"><path
         inkscape:connector-curvature="0"
         id="path4669-4-7-6"
         d="M 0,0 5,-5 -12.5,0 5,5 Z"
         style="fill:#000000;fill-opacity:1;fill-rule:evenodd;stroke:#000000;stroke-width:1.00000003pt;stroke-opacity:1"
         transform="matrix(-0.8,0,0,-0.8,-10,0)" /></marker><marker
       inkscape:stockid="Arrow1Lend"
       orient="auto"
       refY="0"
       refX="0"
       id="Arrow1Lend-7-9"
       style="overflow:visible"
       inkscape:isstock="true"><path
         inkscape:connector-curvature="0"
         id="path4669-6-2"
         d="M 0,0 5,-5 -12.5,0 5,5 Z"
         style="fill:#000000;fill-opacity:1;fill-rule:evenodd;stroke:#000000;stroke-width:1.00000003pt;stroke-opacity:1"
         transform="matrix(-0.8,0,0,-0.8,-10,0)" /></marker><marker
       inkscape:stockid="Arrow1Lend"
       orient="auto"
       refY="0"
       refX="0"
       id="Arrow1Lend-7-9-2"
       style="overflow:visible"
       inkscape:isstock="true"><path
         inkscape:connector-curvature="0"
         id="path4669-6-2-5"
         d="M 0,0 5,-5 -12.5,0 5,5 Z"
         style="fill:#000000;fill-opacity:1;fill-rule:evenodd;stroke:#000000;stroke-width:1.00000003pt;stroke-opacity:1"
         transform="matrix(-0.8,0,0,-0.8,-10,0)" /></marker><marker
       inkscape:stockid="Arrow1Lend"
       orient="auto"
       refY="0"
       refX="0"
       id="Arrow1Lend-7-9-2-2"
       style="overflow:visible"
       inkscape:isstock="true"><path
         inkscape:connector-curvature="0"
         id="path4669-6-2-5-6"
         d="M 0,0 5,-5 -12.5,0 5,5 Z"
         style="fill:#000000;fill-opacity:1;fill-rule:evenodd;stroke:#000000;stroke-width:1.00000003pt;stroke-opacity:1"
         transform="matrix(-0.8,0,0,-0.8,-10,0)" /></marker><marker
       inkscape:stockid="Arrow1Lend"
       orient="auto"
       refY="0"
       refX="0"
       id="Arrow1Lend-7-9-2-2-4"
       style="overflow:visible"
       inkscape:isstock="true"><path
         inkscape:connector-curvature="0"
         id="path4669-6-2-5-6-2"
         d="M 0,0 5,-5 -12.5,0 5,5 Z"
         style="fill:#000000;fill-opacity:1;fill-rule:evenodd;stroke:#000000;stroke-width:1.00000003pt;stroke-opacity:1"
         transform="matrix(-0.8,0,0,-0.8,-10,0)" /></marker><marker
       inkscape:stockid="Arrow1Lend"
       orient="auto"
       refY="0"
       refX="0"
       id="Arrow1Lend-7-9-2-2-4-0"
       style="overflow:visible"
       inkscape:isstock="true"><path
         inkscape:connector-curvature="0"
         id="path4669-6-2-5-6-2-0"
         d="M 0,0 5,-5 -12.5,0 5,5 Z"
         style="fill:#000000;fill-opacity:1;fill-rule:evenodd;stroke:#000000;stroke-width:1.00000003pt;stroke-opacity:1"
         transform="matrix(-0.8,0,0,-0.8,-10,0)" /></marker></defs><g
     id="g22"
     transform="matrix(1.3333333,0,0,-1.3333333,-219.3035,447.10791)"><g
       id="g24"
       clip-path="url(#clipPath28)"><g
   aria-label="1 1 2 5"
   transform="matrix(1,0,0,-1,180.62,203.28)"
   style="font-variant:normal;font-weight:normal;font-size:80.06400299px;font-family:Calibri;-inkscape-font-specification:Calibri;writing-mode:lr-tb;fill:#000000;fill-opacity:1;fill-rule:nonzero;stroke:none"
   id="text32"><path
     d="m 36.239908,-2.6583751 q 0,0.7427813 -0.117282,1.251 -0.117281,0.50821882 -0.31275,0.82096883 -0.195468,0.31275001 -0.469125,0.46912502 Q 35.106189,0 34.832533,0 H 8.4051566 Q 8.1315003,0 7.8969378,-0.11728125 7.6623753,-0.27365626 7.4278128,-0.58640627 7.232344,-0.89915628 7.1150628,-1.4073751 q -0.1172813,-0.5082187 -0.1172813,-1.251 0,-0.7036875 0.1172813,-1.2119063 Q 7.232344,-4.3785002 7.388719,-4.6912502 7.5841878,-5.0430939 7.8187503,-5.1994689 8.0924066,-5.3949377 8.4051566,-5.3949377 H 18.960469 V -43.863189 l -9.7734374,5.824969 q -0.7427813,0.390937 -1.2119063,0.469125 -0.4300313,0.07819 -0.7036875,-0.156375 -0.2736563,-0.273656 -0.3909375,-0.860063 -0.078187,-0.586406 -0.078187,-1.485562 0,-0.664594 0.039094,-1.133719 0.078188,-0.469125 0.1954688,-0.781875 0.1172812,-0.31275 0.31275,-0.547313 0.2345625,-0.234562 0.5864062,-0.469125 L 19.58597,-50.470033 q 0.156375,-0.117281 0.390938,-0.195469 0.234563,-0.07819 0.586406,-0.156375 0.351844,-0.07819 0.820969,-0.07819 0.469125,-0.03909 1.172813,-0.03909 0.93825,0 1.56375,0.07819 0.6255,0.07819 0.977343,0.234563 0.351844,0.117281 0.469125,0.351844 0.117282,0.195468 0.117282,0.430031 v 44.4495953 h 9.147938 q 0.31275,0 0.586406,0.1954688 0.273656,0.156375 0.430031,0.5082187 0.195469,0.31275 0.273656,0.8209688 0.117282,0.5082188 0.117282,1.2119063 z"
     id="path9600"
     inkscape:connector-curvature="0" /><path
     d="m 94.92682,-2.6583751 q 0,0.7427813 -0.117281,1.251 -0.117281,0.50821882 -0.31275,0.82096883 -0.195469,0.31275001 -0.469125,0.46912502 Q 93.793101,0 93.519445,0 H 67.092069 q -0.273656,0 -0.508219,-0.11728125 -0.234562,-0.15637501 -0.469125,-0.46912502 -0.195468,-0.31275001 -0.31275,-0.82096883 -0.117281,-0.5082187 -0.117281,-1.251 0,-0.7036875 0.117281,-1.2119063 0.117282,-0.5082188 0.273657,-0.8209688 0.195468,-0.3518437 0.430031,-0.5082187 0.273656,-0.1954688 0.586406,-0.1954688 H 77.647382 V -43.863189 l -9.773438,5.824969 q -0.742781,0.390937 -1.211906,0.469125 -0.430031,0.07819 -0.703688,-0.156375 -0.273656,-0.273656 -0.390937,-0.860063 -0.07819,-0.586406 -0.07819,-1.485562 0,-0.664594 0.03909,-1.133719 0.07819,-0.469125 0.195469,-0.781875 0.117281,-0.31275 0.31275,-0.547313 0.234562,-0.234562 0.586406,-0.469125 l 11.649938,-7.466906 q 0.156375,-0.117281 0.390938,-0.195469 0.234562,-0.07819 0.586406,-0.156375 0.351844,-0.07819 0.820969,-0.07819 0.469125,-0.03909 1.172812,-0.03909 0.93825,0 1.56375,0.07819 0.6255,0.07819 0.977344,0.234563 0.351844,0.117281 0.469125,0.351844 0.117281,0.195468 0.117281,0.430031 v 44.4495953 h 9.147938 q 0.31275,0 0.586406,0.1954688 0.273657,0.156375 0.430032,0.5082187 0.195468,0.31275 0.273656,0.8209688 0.117281,0.5082188 0.117281,1.2119063 z"
     id="path9602"
     inkscape:connector-curvature="0" /><path
     d="m 153.49646,-2.8929376 q 0,0.7036875 -0.11728,1.251 -0.0782,0.5473126 -0.27366,0.93825007 -0.15637,0.35184377 -0.46912,0.54731252 Q 152.36274,0 152.0109,0 h -27.95204 q -0.54731,0 -0.97734,-0.11728125 -0.39094,-0.15637501 -0.70369,-0.46912502 -0.27365,-0.31275001 -0.43003,-0.89915633 -0.11728,-0.5864062 -0.11728,-1.4464688 0,-0.781875 0.0391,-1.3682813 0.0782,-0.5864062 0.27366,-1.0164375 0.19547,-0.469125 0.46913,-0.8991563 0.31275,-0.469125 0.78187,-0.9773438 l 9.81253,-10.3989377 q 3.40116,-3.596625 5.43403,-6.450469 2.07197,-2.853844 3.1666,-5.199469 1.13372,-2.345625 1.48556,-4.261219 0.35184,-1.915594 0.35184,-3.596625 0,-1.681031 -0.54731,-3.166594 -0.54731,-1.524656 -1.60284,-2.658375 -1.01644,-1.133719 -2.58019,-1.798313 -1.56375,-0.664593 -3.59663,-0.664593 -2.38471,0 -4.30031,0.664593 -1.8765,0.664594 -3.32297,1.446469 -1.40737,0.781875 -2.38472,1.446469 -0.93825,0.664594 -1.40737,0.664594 -0.27366,0 -0.50822,-0.156375 -0.19547,-0.156375 -0.35184,-0.508219 -0.11728,-0.351844 -0.19547,-0.93825 -0.0782,-0.586406 -0.0782,-1.407375 0,-0.586406 0.0391,-1.016438 0.0391,-0.430031 0.11729,-0.742781 0.11728,-0.31275 0.27365,-0.586406 0.15638,-0.273656 0.6255,-0.664594 0.46913,-0.430031 1.60285,-1.133719 1.17281,-0.703687 2.89293,-1.368281 1.75922,-0.703688 3.83119,-1.172813 2.11106,-0.469125 4.41759,-0.469125 3.67482,0 6.41138,1.055532 2.77566,1.016437 4.57397,2.81475 1.83741,1.798312 2.73656,4.183031 0.89916,2.384719 0.89916,5.082188 0,2.423812 -0.43003,4.847625 -0.43003,2.384719 -1.83741,5.199469 -1.36828,2.775656 -3.98756,6.215906 -2.61928,3.401157 -6.95869,7.857844 l -8.01422,8.3660633 h 22.00978 q 0.31275,0 0.58641,0.1954687 0.31275,0.156375 0.50822,0.5082188 0.23456,0.3518438 0.31275,0.8991563 0.11728,0.5082188 0.11728,1.2119063 z"
     id="path9604"
     inkscape:connector-curvature="0" /><path
     d="m 211.94879,-16.263001 q 0,4.065751 -1.36828,7.2323444 -1.36828,3.1665939 -3.87028,5.355844 -2.502,2.1501563 -5.98134,3.28387509 -3.44025,1.13371879 -7.66238,1.13371879 -2.34562,0 -4.45669,-0.35184377 -2.11106,-0.31275001 -3.753,-0.78187502 -1.64193,-0.50821877 -2.69746,-0.97734379 -1.05554,-0.469125 -1.36829,-0.7427813 -0.27365,-0.2736562 -0.39093,-0.5082187 -0.11728,-0.2345626 -0.23457,-0.5473126 -0.0782,-0.3518437 -0.11728,-0.8600625 -0.0391,-0.5082188 -0.0391,-1.2119063 0,-0.6645938 0.0391,-1.1728125 0.0782,-0.5473126 0.23457,-0.8600626 0.15637,-0.3518437 0.35184,-0.5082187 0.23456,-0.156375 0.50822,-0.156375 0.39094,0 1.2119,0.5082187 0.82097,0.469125 2.18925,1.0555313 1.40738,0.5473125 3.44025,1.0555313 2.07197,0.5082188 4.88672,0.5082188 2.61928,0 4.80853,-0.6255001 2.18925,-0.6255 3.753,-1.9546875 1.60285,-1.3291876 2.502,-3.322969 0.89916,-2.032875 0.89916,-4.925813 0,-2.423812 -0.78187,-4.261218 -0.74279,-1.876501 -2.34563,-3.088407 -1.56375,-1.251 -3.98756,-1.837406 -2.42381,-0.6255 -5.78588,-0.6255 -2.38472,0 -4.10484,0.234562 -1.72013,0.234563 -3.20569,0.234563 -1.09462,0 -1.56375,-0.508219 -0.46912,-0.508219 -0.46912,-1.954688 v -20.602407 q 0,-1.290093 0.5864,-1.915593 0.6255,-0.6255 1.75922,-0.6255 h 22.40072 q 0.31275,0 0.58641,0.195468 0.31275,0.156375 0.50822,0.508219 0.19546,0.351844 0.27365,0.899156 0.11728,0.547313 0.11728,1.290094 0,1.407375 -0.39093,2.18925 -0.39094,0.781875 -1.09463,0.781875 h -18.88228 v 14.191032 q 1.36828,-0.195469 2.77566,-0.234562 1.44646,-0.03909 3.32296,-0.03909 4.33941,0 7.58419,1.055531 3.24478,1.016438 5.39494,2.932031 2.18925,1.876501 3.28388,4.573969 1.13371,2.697469 1.13371,5.981344 z"
     id="path9606"
     inkscape:connector-curvature="0" /></g>
</g></g><g
     id="g34"
     transform="matrix(1.3333333,0,0,-1.3333333,-219.3035,467.10791)"><g
       id="g36"
       clip-path="url(#clipPath40)"><g
   aria-label="0"
   transform="matrix(1,0,0,-1,368.74,276.24)"
   style="font-variant:normal;font-weight:normal;font-size:18px;font-family:Calibri;-inkscape-font-specification:Calibri;writing-mode:lr-tb;fill:#000000;fill-opacity:1;fill-rule:nonzero;stroke:none"
   id="text44"><path
     d="m 8.4990234,-5.7128906 q 0,1.3095703 -0.2109375,2.390625 -0.2021484,1.0810547 -0.6855468,1.8632812 -0.4746094,0.77343753 -1.2480469,1.20410159 -0.7734375,0.421875 -1.9072266,0.421875 -1.0722656,0 -1.8105468,-0.37792969 -0.7294922,-0.38671875 -1.1777344,-1.125 Q 1.0107422,-2.0830078 0.81738281,-3.1640625 0.6328125,-4.2539062 0.6328125,-5.6601562 q 0,-1.3007813 0.2109375,-2.381836 0.2109375,-1.0898437 0.6855469,-1.8632812 0.4746094,-0.7822266 1.2480469,-1.2041016 0.7734375,-0.430664 1.8984374,-0.430664 1.0810547,0 1.8105469,0.386719 0.7382813,0.377929 1.1865235,1.125 0.4482422,0.7382809 0.6328125,1.8281247 0.1933593,1.0810547 0.1933593,2.4873047 z m -1.546875,0.1054687 q 0,-0.852539 -0.061523,-1.5292968 Q 6.8291016,-7.8134766 6.7060547,-8.3320313 6.5917969,-8.8505859 6.3984375,-9.2197266 6.2138672,-9.5976563 5.9501953,-9.8349609 5.6865234,-10.081055 5.34375,-10.186523 q -0.3339844,-0.114258 -0.7558594,-0.114258 -0.7470703,0 -1.2128906,0.3515622 -0.4658203,0.3515625 -0.7382812,0.9667969 -0.2636719,0.6152344 -0.3603516,1.4414063 -0.09668,0.8261719 -0.09668,1.7753906 0,1.2744141 0.1318359,2.1708984 0.131836,0.8876953 0.413086,1.4501953 0.290039,0.5625001 0.7294922,0.8173829 0.4482422,0.2548828 1.0810546,0.2548828 0.4921875,0 0.8613282,-0.1582031 0.3779297,-0.1582032 0.6416015,-0.4482422 0.272461,-0.2988282 0.4482422,-0.7119141 0.1757813,-0.4130859 0.28125,-0.9140625 0.1054688,-0.5009766 0.140625,-1.0810547 0.043945,-0.5888672 0.043946,-1.2216797 z"
     id="path9609"
     inkscape:connector-curvature="0" /></g>
</g></g><g
     id="g46"
     transform="matrix(1.3333333,0,0,-1.3333333,-219.3035,467.10791)"><g
       id="g48"
       clip-path="url(#clipPath52)"><g
   aria-label="1"
   transform="matrix(1,0,0,-1,311.93,276.24)"
   style="font-variant:normal;font-weight:normal;font-size:18px;font-family:Calibri;-inkscape-font-specification:Calibri;writing-mode:lr-tb;fill:#000000;fill-opacity:1;fill-rule:nonzero;stroke:none"
   id="text56"><path
     d="m 8.1474609,-0.59765625 q 0,0.16699219 -0.026367,0.28125 -0.026367,0.11425781 -0.070312,0.18457031 -0.043945,0.0703125 -0.1054688,0.10546875 Q 7.8925781,0 7.8310547,0 H 1.8896484 Q 1.828125,0 1.7753906,-0.02636719 1.7226562,-0.06152344 1.6699219,-0.13183594 q -0.043945,-0.0703125 -0.070312,-0.18457031 -0.026367,-0.11425781 -0.026367,-0.28125 0,-0.15820312 0.026367,-0.27246094 0.026367,-0.11425781 0.061523,-0.18457031 0.043945,-0.079102 0.09668,-0.1142578 0.061523,-0.043945 0.1318359,-0.043945 h 2.3730469 v -8.6484375 l -2.1972656,1.3095703 q -0.1669922,0.087891 -0.272461,0.1054687 -0.09668,0.017578 -0.1582031,-0.035156 -0.061523,-0.061523 -0.087891,-0.1933594 -0.017578,-0.1318359 -0.017578,-0.3339844 0,-0.149414 0.00879,-0.2548828 0.017578,-0.1054687 0.043945,-0.1757812 0.026367,-0.070312 0.070312,-0.1230469 0.052734,-0.052734 0.131836,-0.1054688 L 4.4033203,-11.34668 q 0.035156,-0.02637 0.087891,-0.04395 0.052734,-0.01758 0.131836,-0.03516 0.079101,-0.01758 0.1845703,-0.01758 0.1054687,-0.0088 0.2636719,-0.0088 0.2109375,0 0.3515625,0.01758 0.140625,0.01758 0.2197265,0.05273 0.079102,0.02637 0.1054688,0.0791 0.026367,0.04394 0.026367,0.09668 v 9.9931644 h 2.0566406 q 0.070312,0 0.1318359,0.043945 0.061523,0.035156 0.09668,0.1142578 0.043945,0.0703125 0.061523,0.18457031 0.026367,0.11425782 0.026367,0.27246094 z"
     id="path9612"
     inkscape:connector-curvature="0" /></g>
</g></g><g
     id="g58"
     transform="matrix(1.3333333,0,0,-1.3333333,-219.3035,467.10791)"><g
       id="g60"
       clip-path="url(#clipPath64)"><g
   aria-label="3"
   transform="matrix(1,0,0,-1,198.36,276.24)"
   style="font-variant:normal;font-weight:normal;font-size:18px;font-family:Calibri;-inkscape-font-specification:Calibri;writing-mode:lr-tb;fill:#000000;fill-opacity:1;fill-rule:nonzero;stroke:none"
   id="text68"><path
     d="m 8.0332031,-3.2519531 q 0,0.7822265 -0.2724609,1.415039 -0.272461,0.6240235 -0.7822266,1.07226566 -0.5097656,0.44824219 -1.2568359,0.69433594 -0.7470703,0.23730469 -1.6875,0.23730469 -0.5712891,0 -1.0722656,-0.09667969 Q 2.4697266,-0.01757813 2.0830078,-0.140625 1.6962891,-0.27246094 1.4414062,-0.40429688 1.1865234,-0.54492187 1.1162109,-0.60644531 1.0546879,-0.66796871 1.0195309,-0.72949219 0.9843747,-0.79101559 0.9580075,-0.87890625 0.9316403,-0.96679685 0.9140622,-1.0898437 0.9052732,-1.2216797 0.9052732,-1.40625 q 0,-0.3164062 0.0615234,-0.4394531 0.0615237,-0.1230469 0.1757815,-0.1230469 0.079102,0 0.3076172,0.140625 0.2373047,0.140625 0.5976563,0.3076172 0.3691406,0.1582031 0.852539,0.2988281 0.4921875,0.140625 1.0898438,0.140625 0.5800781,0 1.0195312,-0.149414 0.4394531,-0.1494141 0.7382813,-0.421875 0.2988281,-0.272461 0.4482422,-0.6416016 0.149414,-0.3779297 0.149414,-0.8173828 0,-0.4833985 -0.1933594,-0.8701172 Q 5.9677734,-4.3681641 5.5986328,-4.6494141 5.2382812,-4.9306641 4.7021484,-5.0800781 4.1748047,-5.2294922 3.4980469,-5.2294922 H 2.4169922 q -0.070312,0 -0.140625,-0.026367 -0.061523,-0.035156 -0.1142578,-0.1054687 -0.043945,-0.070312 -0.079102,-0.1845703 -0.026367,-0.1142578 -0.026367,-0.2988282 0,-0.1669921 0.026367,-0.2724609 0.026367,-0.1142578 0.070312,-0.1757812 0.052734,-0.070312 0.1142578,-0.09668 0.061523,-0.035156 0.140625,-0.035156 h 0.9931641 q 0.5800781,0 1.0371094,-0.149414 0.4658203,-0.1494141 0.7822265,-0.4306641 0.3251953,-0.28125 0.4921875,-0.6679688 0.1757813,-0.3955078 0.1757813,-0.8789062 0,-0.3515625 -0.1142578,-0.6679688 -0.1142579,-0.3251953 -0.3427735,-0.5625 -0.2285156,-0.2373046 -0.5888672,-0.3691406 -0.3515625,-0.140625 -0.8173828,-0.140625 -0.5097656,0 -0.9404297,0.158203 -0.421875,0.1494142 -0.7558593,0.3251954 -0.3339844,0.1757813 -0.553711,0.3339844 -0.2197265,0.1494141 -0.3076172,0.1494141 -0.061523,0 -0.1142578,-0.017578 -0.043945,-0.026367 -0.079101,-0.087891 -0.026367,-0.070312 -0.043945,-0.1845703 -0.00879,-0.1230469 -0.00879,-0.3164062 0,-0.1318364 0.00879,-0.2285154 0.00879,-0.105469 0.035156,-0.175782 0.026367,-0.0791 0.061523,-0.140625 0.035156,-0.06152 0.1142578,-0.140625 0.087891,-0.08789 0.3427735,-0.246093 0.2548828,-0.158203 0.6240234,-0.307617 0.3779297,-0.158204 0.8613282,-0.263672 0.4921875,-0.105469 1.0546874,-0.105469 0.7910157,0 1.3886719,0.202148 0.5976563,0.202149 0.9931641,0.571289 0.4042969,0.369141 0.5976562,0.8876957 0.2021485,0.5097657 0.2021485,1.1337891 0,0.5361328 -0.140625,1.0019531 -0.140625,0.4570313 -0.413086,0.8173829 -0.2724609,0.3515625 -0.6679687,0.6064453 -0.3955078,0.2460937 -0.9140625,0.3427734 v 0.017578 q 0.5888672,0.061524 1.0722656,0.2988282 0.4921875,0.2285156 0.84375,0.5800781 0.3515625,0.3515625 0.5449219,0.8261719 0.2021484,0.4658203 0.2021491,1.0019532 z"
     id="path9615"
     inkscape:connector-curvature="0" /></g>
</g></g><g
     id="g70"
     transform="matrix(1.3333333,0,0,-1.3333333,-219.3035,467.10791)"><g
       id="g72"
       clip-path="url(#clipPath76)"><g
   aria-label="2"
   transform="matrix(1,0,0,-1,255.14,276.24)"
   style="font-variant:normal;font-weight:normal;font-size:18px;font-family:Calibri;-inkscape-font-specification:Calibri;writing-mode:lr-tb;fill:#000000;fill-opacity:1;fill-rule:nonzero;stroke:none"
   id="text80"><path
     d="m 8.1210938,-0.65039062 q 0,0.15820312 -0.026367,0.28124999 -0.017578,0.12304688 -0.061523,0.21093751 -0.035156,0.07910156 -0.1054687,0.12304687 Q 7.8662109,0 7.7871094,0 H 1.5029297 Q 1.3798828,0 1.2832031,-0.02636719 1.1953125,-0.06152344 1.125,-0.13183594 1.063477,-0.20214844 1.02832,-0.33398438 1.001953,-0.46582031 1.001953,-0.65917969 q 0,-0.17578125 0.00879,-0.30761719 Q 1.028321,-1.0986328 1.072266,-1.1953125 1.116211,-1.3007812 1.1777348,-1.3974609 1.2480468,-1.5029297 1.353516,-1.6171875 L 3.5595703,-3.9550781 Q 4.3242187,-4.7636719 4.78125,-5.4052734 5.2470703,-6.046875 5.4931641,-6.5742187 5.7480469,-7.1015625 5.8271484,-7.5322266 5.90625,-7.9628906 5.90625,-8.3408203 5.90625,-8.71875 5.7832031,-9.0527344 5.6601562,-9.3955078 5.4228516,-9.6503906 5.1943359,-9.9052734 4.8427734,-10.054688 q -0.3515625,-0.149414 -0.8085937,-0.149414 -0.5361328,0 -0.9667969,0.149414 -0.421875,0.1494146 -0.7470703,0.3251958 -0.3164062,0.1757813 -0.5361328,0.3251953 -0.2109375,0.1494141 -0.3164063,0.1494141 -0.061523,0 -0.1142578,-0.035156 -0.043945,-0.035156 -0.079101,-0.1142578 -0.026367,-0.079102 -0.043945,-0.2109375 -0.017578,-0.1318359 -0.017578,-0.3164062 0,-0.1318367 0.00879,-0.2285157 0.00879,-0.09668 0.026367,-0.166992 0.026367,-0.07031 0.061523,-0.131836 0.035156,-0.06152 0.140625,-0.149414 0.1054688,-0.09668 0.3603516,-0.254883 0.2636719,-0.158203 0.6503906,-0.307617 0.3955078,-0.158204 0.8613281,-0.263672 0.4746094,-0.105469 0.9931641,-0.105469 0.8261719,0 1.4414062,0.237305 0.6240235,0.228515 1.0283203,0.632812 0.413086,0.404297 0.6152344,0.9404301 0.2021485,0.5361328 0.2021485,1.1425781 0,0.5449219 -0.09668,1.0898438 -0.09668,0.5361328 -0.413086,1.1689453 -0.3076172,0.6240234 -0.8964843,1.3974609 -0.5888672,0.7646485 -1.5644532,1.7666016 l -1.8017578,1.8808594 h 4.9482422 q 0.070312,0 0.1318359,0.043945 0.070312,0.035156 0.1142579,0.1142578 0.052734,0.079102 0.070312,0.20214844 0.026367,0.11425781 0.026367,0.27246094 z"
     id="path9618"
     inkscape:connector-curvature="0" /></g>
</g></g><g
     id="g82"
     transform="matrix(1.3333333,0,0,-1.3333333,-229.3035,437.10791)"><g
       id="g84"
       clip-path="url(#clipPath88)"><g
   aria-label="10"
   transform="matrix(1,0,0,-1,404.02,178.51)"
   style="font-variant:normal;font-weight:normal;font-size:44.06399918px;font-family:Calibri;-inkscape-font-specification:Calibri;writing-mode:lr-tb;fill:#000000;fill-opacity:1;fill-rule:nonzero;stroke:none"
   id="text92"><path
     d="m 19.944984,-1.4630625 q 0,0.4087969 -0.06455,0.68850001 -0.06455,0.27970312 -0.172125,0.45182812 -0.107578,0.172125 -0.258187,0.2581875 Q 19.321031,0 19.170422,0 H 4.6258593 Q 4.4752499,0 4.3461562,-0.06454687 4.2170624,-0.15060937 4.0879687,-0.32273437 3.9803906,-0.49485937 3.9158437,-0.77456249 3.8512968,-1.0542656 3.8512968,-1.4630625 q 0,-0.3872812 0.064547,-0.6669843 Q 3.9803906,-2.40975 4.066453,-2.581875 4.1740312,-2.7755156 4.3031249,-2.8615781 4.4537343,-2.9691562 4.6258593,-2.9691562 H 10.435078 V -24.140531 l -5.3789062,3.205828 q -0.4087969,0.215157 -0.6669844,0.258188 -0.2366719,0.04303 -0.3872812,-0.08606 -0.1506094,-0.150609 -0.2151563,-0.473343 -0.043031,-0.322735 -0.043031,-0.817594 0,-0.365766 0.021516,-0.623953 0.043031,-0.258188 0.1075781,-0.430313 0.064547,-0.172125 0.172125,-0.301219 0.1290938,-0.129093 0.3227344,-0.258187 l 6.4116566,-4.109484 q 0.08606,-0.06455 0.215156,-0.107578 0.129094,-0.04303 0.322735,-0.08606 0.19364,-0.04303 0.451828,-0.04303 0.258187,-0.02152 0.645468,-0.02152 0.516375,0 0.860625,0.04303 0.34425,0.04303 0.537891,0.129094 0.193641,0.06455 0.258187,0.193641 0.06455,0.107578 0.06455,0.236672 v 24.4632648 h 5.034657 q 0.172125,0 0.322734,0.1075781 0.150609,0.086063 0.236672,0.2797031 0.107578,0.172125 0.150609,0.4518282 0.06455,0.2797031 0.06455,0.6669843 z"
     id="path9621"
     inkscape:connector-curvature="0" /><path
     d="m 43.125656,-13.985156 q 0,3.205828 -0.516375,5.8522499 -0.494859,2.6464218 -1.678218,4.5613124 -1.161844,1.893375 -3.055219,2.94764059 -1.893375,1.03274998 -4.668891,1.03274998 -2.624906,0 -4.432218,-0.92517186 -1.785797,-0.94668751 -2.883094,-2.75399991 -1.097297,-1.8288281 -1.570641,-4.47525 -0.451828,-2.6679371 -0.451828,-6.1104371 0,-3.184313 0.516375,-5.830735 0.516375,-2.667937 1.678219,-4.561312 1.161844,-1.914891 3.055219,-2.94764 1.893375,-1.054266 4.647375,-1.054266 2.646421,0 4.432218,0.946687 1.807313,0.925172 2.90461,2.754 1.097297,1.807313 1.549125,4.47525 0.473343,2.646422 0.473343,6.088922 z m -3.78675,0.258188 q 0,-2.087016 -0.150609,-3.743719 -0.150609,-1.656703 -0.451828,-2.926125 -0.279703,-1.269422 -0.753047,-2.173078 -0.451828,-0.925172 -1.097297,-1.506094 -0.645469,-0.602437 -1.484578,-0.860625 -0.817594,-0.279703 -1.850344,-0.279703 -1.828828,0 -2.969156,0.860625 -1.140328,0.860625 -1.807312,2.366719 -0.645469,1.506093 -0.882141,3.528562 -0.236672,2.022469 -0.236672,4.346156 0,3.119766 0.322735,5.3143595 0.322734,2.1730781 1.011234,3.5500781 0.710016,1.377 1.785797,2.0009531 1.097297,0.6239531 2.646422,0.6239531 1.204875,0 2.108531,-0.3872812 0.925172,-0.3872813 1.57064,-1.0972969 0.666985,-0.7315312 1.097297,-1.7427656 0.430313,-1.0112343 0.6885,-2.2376249 0.258188,-1.2263907 0.34425,-2.6464222 0.107578,-1.441547 0.107578,-2.990671 z"
     id="path9623"
     inkscape:connector-curvature="0" /></g>
</g></g><path
     inkscape:connector-curvature="0"
     d="M 11.758632,184.99676 H 86.594345 V 70.927624 H 11.758632 Z"
     style="fill:none;stroke:#000000;stroke-width:2.12891507;stroke-linecap:butt;stroke-linejoin:round;stroke-miterlimit:10;stroke-dasharray:none;stroke-opacity:1"
     id="path94" /><g
     id="g98"
     transform="matrix(1.3333333,0,0,-1.3333333,-15.201811,458.39603)"><g
       id="g100"
       clip-path="url(#clipPath104)"><g
   aria-label="Position"
   transform="scale(1,-1)"
   style="font-variant:normal;font-weight:bold;font-size:20.06399918px;font-family:Calibri;-inkscape-font-specification:Calibri-Bold;writing-mode:lr-tb;fill:#000000;fill-opacity:1;fill-rule:nonzero;stroke:none"
   id="text108"><path
     d="m 27.581391,-176.1958 q 0,1.06786 -0.333094,1.89079 -0.333094,0.82294 -0.969891,1.39116 -0.636797,0.55842 -1.5675,0.85233 -0.920906,0.2939 -2.174906,0.2939 h -1.058062 v 4.04611 q 0,0.098 -0.06858,0.17635 -0.05878,0.0784 -0.205735,0.12736 -0.146953,0.049 -0.391875,0.0784 -0.244922,0.0294 -0.627,0.0294 -0.372281,0 -0.627,-0.0294 -0.244921,-0.0294 -0.391875,-0.0784 -0.146953,-0.049 -0.205734,-0.12736 -0.05878,-0.0784 -0.05878,-0.17635 v -11.40356 q 0,-0.46045 0.235125,-0.68578 0.244922,-0.23513 0.636797,-0.23513 h 2.988046 q 0.450657,0 0.852328,0.0392 0.411469,0.0294 0.979688,0.14695 0.568219,0.10777 1.146234,0.41147 0.587813,0.30371 0.999281,0.77396 0.411469,0.46045 0.627,1.08745 0.215532,0.6172 0.215532,1.39116 z m -2.694141,0.18614 q 0,-0.66619 -0.235125,-1.09725 -0.235125,-0.43107 -0.578015,-0.6368 -0.342891,-0.20573 -0.724969,-0.25472 -0.372281,-0.0588 -0.773953,-0.0588 h -1.09725 v 4.30083 h 1.156031 q 0.617203,0 1.028672,-0.16655 0.421265,-0.16655 0.685781,-0.46045 0.264516,-0.30371 0.401672,-0.71517 0.137156,-0.42127 0.137156,-0.91111 z"
     id="path9626"
     inkscape:connector-curvature="0" /><path
     d="m 37.904082,-172.15949 q 0,1.11684 -0.293906,2.03775 -0.293906,0.9209 -0.891515,1.58709 -0.59761,0.66619 -1.498922,1.02867 -0.901313,0.36249 -2.106328,0.36249 -1.165828,0 -2.027953,-0.3233 -0.862125,-0.3233 -1.430344,-0.9405 -0.568219,-0.6172 -0.842531,-1.51851 -0.274313,-0.90132 -0.274313,-2.05735 0,-1.11684 0.293906,-2.03775 0.303704,-0.9307 0.901313,-1.58709 0.597609,-0.66619 1.489125,-1.02867 0.901312,-0.36249 2.106328,-0.36249 1.175625,0 2.03775,0.3233 0.862125,0.3135 1.420547,0.9307 0.568218,0.61721 0.842531,1.51852 0.274312,0.90131 0.274312,2.06714 z m -2.53739,0.098 q 0,-0.6466 -0.107766,-1.18542 -0.09797,-0.54863 -0.34289,-0.9503 -0.244922,-0.40167 -0.656391,-0.627 -0.401672,-0.22533 -1.018875,-0.22533 -0.548625,0 -0.960094,0.20573 -0.411468,0.19594 -0.675984,0.58782 -0.264516,0.38208 -0.401672,0.9307 -0.127359,0.53883 -0.127359,1.23441 0,0.64659 0.107765,1.19521 0.107766,0.53883 0.342891,0.9405 0.244922,0.40168 0.656391,0.627 0.411468,0.21554 1.018875,0.21554 0.558421,0 0.96989,-0.19594 0.411469,-0.20574 0.675984,-0.58781 0.264516,-0.38208 0.391875,-0.92091 0.12736,-0.54863 0.12736,-1.2442 z"
     id="path9628"
     inkscape:connector-curvature="0" /><path
     d="m 46.01417,-170.17073 q 0,0.74457 -0.284109,1.31278 -0.274312,0.56822 -0.78375,0.9503 -0.509437,0.38208 -1.205015,0.56822 -0.695579,0.19594 -1.508719,0.19594 -0.489844,0 -0.9405,-0.0784 -0.44086,-0.0686 -0.793547,-0.17634 -0.352687,-0.11756 -0.587812,-0.23513 -0.235125,-0.11756 -0.342891,-0.21553 -0.107766,-0.10776 -0.166547,-0.32329 -0.05878,-0.22533 -0.05878,-0.65639 0,-0.28411 0.01959,-0.45066 0.01959,-0.17634 0.05878,-0.27431 0.03919,-0.10777 0.09797,-0.13716 0.05878,-0.0392 0.146953,-0.0392 0.107765,0 0.3135,0.12736 0.215531,0.11756 0.529031,0.26452 0.3135,0.14695 0.724969,0.27431 0.421265,0.12736 0.950296,0.12736 0.333094,0 0.587813,-0.0686 0.264516,-0.0686 0.450656,-0.19594 0.195938,-0.12736 0.293906,-0.32329 0.09797,-0.19594 0.09797,-0.45066 0,-0.29391 -0.18614,-0.49964 -0.176344,-0.21553 -0.480047,-0.37228 -0.293907,-0.15675 -0.675985,-0.29391 -0.372281,-0.13715 -0.773953,-0.3037 -0.391875,-0.16655 -0.773953,-0.38208 -0.372281,-0.21553 -0.675984,-0.52903 -0.293906,-0.3135 -0.480047,-0.75436 -0.176344,-0.44086 -0.176344,-1.05806 0,-0.627 0.244922,-1.14624 0.244922,-0.52903 0.705375,-0.90131 0.460453,-0.37228 1.116844,-0.57801 0.666187,-0.20574 1.489125,-0.20574 0.411468,0 0.793547,0.0588 0.391874,0.0588 0.705374,0.14696 0.3135,0.0882 0.529032,0.19593 0.215531,0.098 0.303703,0.17635 0.09797,0.0686 0.137156,0.14695 0.03919,0.0686 0.05878,0.17634 0.01959,0.098 0.02939,0.25472 0.01959,0.14696 0.01959,0.37228 0,0.26452 -0.01959,0.43107 -0.0098,0.16654 -0.04898,0.26451 -0.02939,0.098 -0.08817,0.13716 -0.05878,0.0294 -0.137157,0.0294 -0.08817,0 -0.274312,-0.098 -0.186141,-0.10776 -0.47025,-0.22533 -0.274313,-0.11756 -0.646594,-0.21553 -0.362484,-0.10776 -0.832734,-0.10776 -0.333094,0 -0.578016,0.0686 -0.244922,0.0686 -0.401672,0.19594 -0.15675,0.12736 -0.235125,0.3037 -0.07838,0.16655 -0.07838,0.36249 0,0.3037 0.186141,0.50944 0.186141,0.20573 0.489844,0.36248 0.303703,0.15675 0.685781,0.29391 0.391875,0.13715 0.78375,0.3037 0.401672,0.15675 0.78375,0.37228 0.391875,0.21553 0.695578,0.52903 0.303703,0.3135 0.489844,0.75436 0.18614,0.43106 0.18614,1.02867 z"
     id="path9630"
     inkscape:connector-curvature="0" /><path
     d="m 50.336081,-167.70191 q 0,0.098 -0.05878,0.17634 -0.05878,0.0686 -0.205734,0.11756 -0.137156,0.049 -0.372281,0.0686 -0.235125,0.0294 -0.59761,0.0294 -0.362484,0 -0.597609,-0.0294 -0.235125,-0.0196 -0.382078,-0.0686 -0.137156,-0.049 -0.195937,-0.11756 -0.05878,-0.0784 -0.05878,-0.17634 v -8.71922 q 0,-0.098 0.05878,-0.16655 0.05878,-0.0784 0.195937,-0.12736 0.146953,-0.0588 0.382078,-0.0882 0.235125,-0.0294 0.597609,-0.0294 0.362485,0 0.59761,0.0294 0.235125,0.0294 0.372281,0.0882 0.146953,0.049 0.205734,0.12736 0.05878,0.0686 0.05878,0.16655 z m 0.18614,-11.69747 q 0,0.74456 -0.303703,1.02867 -0.303703,0.28411 -1.12664,0.28411 -0.832735,0 -1.126641,-0.27431 -0.284109,-0.27432 -0.284109,-0.98949 0,-0.74456 0.293906,-1.02867 0.303703,-0.29391 1.136437,-0.29391 0.822938,0 1.116844,0.28411 0.293906,0.27432 0.293906,0.98949 z"
     id="path9632"
     inkscape:connector-curvature="0" /><path
     d="m 57.975763,-168.56404 q 0,0.43106 -0.05878,0.66619 -0.04898,0.22533 -0.137156,0.3233 -0.08817,0.0882 -0.264516,0.16654 -0.166547,0.0686 -0.401672,0.11756 -0.225328,0.0588 -0.49964,0.0882 -0.264516,0.0294 -0.538828,0.0294 -0.734766,0 -1.273594,-0.18614 -0.538828,-0.18614 -0.891516,-0.56822 -0.352687,-0.39188 -0.519234,-0.97969 -0.166547,-0.58781 -0.166547,-1.39116 v -4.47717 h -1.048265 q -0.186141,0 -0.28411,-0.22533 -0.09797,-0.23512 -0.09797,-0.77395 0,-0.28411 0.01959,-0.48005 0.02939,-0.19593 0.07837,-0.3037 0.04899,-0.11756 0.117563,-0.16655 0.07838,-0.049 0.176343,-0.049 h 1.038469 v -1.94958 q 0,-0.098 0.04898,-0.17634 0.05878,-0.0784 0.195937,-0.12736 0.146953,-0.0588 0.382078,-0.0784 0.244922,-0.0294 0.597609,-0.0294 0.362485,0 0.59761,0.0294 0.244922,0.0196 0.382078,0.0784 0.137156,0.049 0.195937,0.12736 0.05878,0.0784 0.05878,0.17634 v 1.94958 h 1.900593 q 0.09797,0 0.166547,0.049 0.07837,0.049 0.12736,0.16655 0.04898,0.10777 0.06858,0.3037 0.02939,0.19594 0.02939,0.48005 0,0.53883 -0.09797,0.77395 -0.09797,0.22533 -0.28411,0.22533 h -1.91039 v 4.10489 q 0,0.71517 0.225328,1.07766 0.225328,0.35269 0.803343,0.35269 0.195938,0 0.352688,-0.0294 0.15675,-0.0392 0.274312,-0.0784 0.12736,-0.049 0.205735,-0.0784 0.08817,-0.0392 0.15675,-0.0392 0.05878,0 0.107765,0.0392 0.05878,0.0294 0.08817,0.13715 0.02939,0.098 0.04899,0.27431 0.02939,0.17635 0.02939,0.45066 z"
     id="path9634"
     inkscape:connector-curvature="0" /><path
     d="m 62.234034,-167.70191 q 0,0.098 -0.05878,0.17634 -0.05878,0.0686 -0.205734,0.11756 -0.137156,0.049 -0.372281,0.0686 -0.235125,0.0294 -0.597609,0.0294 -0.362485,0 -0.59761,-0.0294 -0.235125,-0.0196 -0.382078,-0.0686 -0.137156,-0.049 -0.195937,-0.11756 -0.05878,-0.0784 -0.05878,-0.17634 v -8.71922 q 0,-0.098 0.05878,-0.16655 0.05878,-0.0784 0.195937,-0.12736 0.146953,-0.0588 0.382078,-0.0882 0.235125,-0.0294 0.59761,-0.0294 0.362484,0 0.597609,0.0294 0.235125,0.0294 0.372281,0.0882 0.146953,0.049 0.205734,0.12736 0.05878,0.0686 0.05878,0.16655 z m 0.18614,-11.69747 q 0,0.74456 -0.303703,1.02867 -0.303703,0.28411 -1.12664,0.28411 -0.832735,0 -1.126641,-0.27431 -0.284109,-0.27432 -0.284109,-0.98949 0,-0.74456 0.293906,-1.02867 0.303703,-0.29391 1.136437,-0.29391 0.822938,0 1.116844,0.28411 0.293906,0.27432 0.293906,0.98949 z"
     id="path9636"
     inkscape:connector-curvature="0" /><path
     d="m 73.537747,-172.15949 q 0,1.11684 -0.293906,2.03775 -0.293906,0.9209 -0.891515,1.58709 -0.59761,0.66619 -1.498922,1.02867 -0.901313,0.36249 -2.106328,0.36249 -1.165828,0 -2.027953,-0.3233 -0.862125,-0.3233 -1.430344,-0.9405 -0.568219,-0.6172 -0.842531,-1.51851 -0.274313,-0.90132 -0.274313,-2.05735 0,-1.11684 0.293907,-2.03775 0.303703,-0.9307 0.901312,-1.58709 0.597609,-0.66619 1.489125,-1.02867 0.901312,-0.36249 2.106328,-0.36249 1.175625,0 2.03775,0.3233 0.862125,0.3135 1.420547,0.9307 0.568218,0.61721 0.842531,1.51852 0.274312,0.90131 0.274312,2.06714 z m -2.53739,0.098 q 0,-0.6466 -0.107766,-1.18542 -0.09797,-0.54863 -0.34289,-0.9503 -0.244922,-0.40167 -0.656391,-0.627 -0.401672,-0.22533 -1.018875,-0.22533 -0.548625,0 -0.960094,0.20573 -0.411468,0.19594 -0.675984,0.58782 -0.264516,0.38208 -0.401672,0.9307 -0.127359,0.53883 -0.127359,1.23441 0,0.64659 0.107765,1.19521 0.107766,0.53883 0.342891,0.9405 0.244922,0.40168 0.656391,0.627 0.411468,0.21554 1.018875,0.21554 0.558421,0 0.96989,-0.19594 0.411469,-0.20574 0.675985,-0.58781 0.264515,-0.38208 0.391875,-0.92091 0.127359,-0.54863 0.127359,-1.2442 z"
     id="path9638"
     inkscape:connector-curvature="0" /><path
     d="m 83.842337,-167.70191 q 0,0.098 -0.05878,0.17634 -0.05878,0.0686 -0.195937,0.11756 -0.137157,0.049 -0.382079,0.0686 -0.235125,0.0294 -0.587812,0.0294 -0.362484,0 -0.607406,-0.0294 -0.235125,-0.0196 -0.372281,-0.0686 -0.137157,-0.049 -0.195938,-0.11756 -0.05878,-0.0784 -0.05878,-0.17634 v -4.98661 q 0,-0.6368 -0.09797,-0.99928 -0.08817,-0.36249 -0.264516,-0.61721 -0.176343,-0.26451 -0.460453,-0.40167 -0.274312,-0.14695 -0.646593,-0.14695 -0.47025,0 -0.950297,0.34289 -0.480047,0.34289 -0.999281,0.99928 v 5.80955 q 0,0.098 -0.05878,0.17634 -0.05878,0.0686 -0.205734,0.11756 -0.137156,0.049 -0.372281,0.0686 -0.235125,0.0294 -0.59761,0.0294 -0.362484,0 -0.597609,-0.0294 -0.235125,-0.0196 -0.382078,-0.0686 -0.137156,-0.049 -0.195938,-0.11756 -0.05878,-0.0784 -0.05878,-0.17634 v -8.73882 q 0,-0.098 0.04899,-0.16654 0.04898,-0.0784 0.176343,-0.12736 0.12736,-0.049 0.323297,-0.0686 0.205735,-0.0294 0.509438,-0.0294 0.3135,0 0.519234,0.0294 0.205734,0.0196 0.3135,0.0686 0.117562,0.049 0.166547,0.12736 0.04898,0.0686 0.04898,0.16654 v 1.00908 q 0.724969,-0.78375 1.469531,-1.17562 0.75436,-0.39188 1.5675,-0.39188 0.891516,0 1.498922,0.29391 0.617203,0.2939 0.989484,0.80334 0.382079,0.49964 0.548625,1.17563 0.166547,0.67598 0.166547,1.62628 z"
     id="path9640"
     inkscape:connector-curvature="0" /></g>
</g></g><g
     id="g112"
     transform="matrix(1.3333333,0,0,-1.3333333,-308.926,341.76541)"><g
       id="g114"
       clip-path="url(#clipPath118)"><g
   aria-label="Radix"
   transform="matrix(1,0,0,-1,464.9,79.752)"
   style="font-variant:normal;font-weight:bold;font-size:20.04000092px;font-family:Calibri;-inkscape-font-specification:Calibri-Bold;writing-mode:lr-tb;fill:#000000;fill-opacity:1;fill-rule:nonzero;stroke:none"
   id="text122"><path
     d="m 10.773458,-0.33269533 q 0,0.10763673 -0.03914,0.18591798 -0.03914,0.0684961 -0.185918,0.11742188 -0.146777,0.04892578 -0.430547,0.0684961 -0.2837695,0.01957031 -0.7730274,0.01957031 -0.4109765,0 -0.6556055,-0.01957031 Q 8.4445902,0.01957031 8.2978129,-0.02935547 8.1608207,-0.08806641 8.1021097,-0.16634766 8.0433988,-0.25441407 8.0042582,-0.37183595 L 6.86918,-3.1997462 Q 6.6636917,-3.6792189 6.4679886,-4.0510549 6.2722854,-4.4228908 6.0276565,-4.6675197 5.7928128,-4.9219338 5.4796878,-5.0491409 5.1665627,-5.1763479 4.7555862,-5.1763479 H 3.9532033 v 4.82408226 q 0,0.0978516 -0.068496,0.17613282 Q 3.8259963,-0.09785157 3.679219,-0.04892578 3.5324416,0 3.2878127,0.02935547 3.0431837,0.05871094 2.6615626,0.05871094 q -0.3718359,0 -0.62625,-0.02935547 Q 1.7906837,0 1.6439063,-0.04892578 1.497129,-0.09785157 1.438418,-0.17613282 1.3797071,-0.25441407 1.3797071,-0.35226564 V -11.849825 q 0,-0.430547 0.2152734,-0.616465 0.2250586,-0.195703 0.5479688,-0.195703 h 3.2780275 q 0.499043,0 0.8219532,0.01957 0.3229101,0.01957 0.5871094,0.04893 0.7632422,0.107637 1.3699219,0.371836 0.6164649,0.2642 1.0372266,0.694746 0.4305469,0.420762 0.6556055,1.007872 0.2250586,0.5773238 0.2250586,1.3307809 0,0.6360351 -0.1663476,1.1644336 -0.1565625,0.5186133 -0.4696876,0.9295899 -0.313125,0.4109766 -0.7730273,0.7143164 -0.4599024,0.3033399 -1.0470118,0.4892579 0.2837695,0.1369922 0.5283985,0.3326953 0.254414,0.1957031 0.4696875,0.4794727 0.2250586,0.2739844 0.4207617,0.6360352 0.1957031,0.3522656 0.3816211,0.8023828 l 1.0665825,2.495215 q 0.146777,0.37183592 0.195703,0.54796874 0.04893,0.16634767 0.04893,0.26419923 z M 7.4562894,-8.9240629 q 0,-0.62625 -0.2837695,-1.0567969 Q 6.8887503,-10.411407 6.24293,-10.58754 6.0472268,-10.63646 5.7928128,-10.66582 5.5481838,-10.69518 5.1078518,-10.69518 H 3.9532033 v 3.5911522 h 1.311211 q 0.5479688,0 0.9589454,-0.127207 0.4109765,-0.1369922 0.6849609,-0.371836 0.2739844,-0.2446289 0.4109766,-0.5773242 0.1369922,-0.3326953 0.1369922,-0.7436719 z"
     id="path9643"
     inkscape:connector-curvature="0" /><path
     d="m 19.952169,-0.30333986 q 0,0.1369922 -0.09785,0.21527345 -0.09785,0.07828125 -0.313125,0.10763672 -0.205489,0.03914063 -0.616465,0.03914063 -0.440332,0 -0.645821,-0.03914063 -0.195703,-0.02935547 -0.283769,-0.10763672 -0.07828,-0.07828125 -0.07828,-0.21527345 v -0.69474612 q -0.538184,0.57732424 -1.23293,0.90023441 -0.684961,0.32291017 -1.526485,0.32291017 -0.694746,0 -1.281855,-0.18591797 -0.577324,-0.17613282 -1.007871,-0.52839846 -0.420762,-0.3620508 -0.655606,-0.89044927 -0.234844,-0.5283985 -0.234844,-1.2329297 0,-0.7632423 0.293555,-1.3209962 0.30334,-0.5675391 0.890449,-0.9295899 0.596895,-0.3718359 1.477559,-0.5479688 0.880664,-0.1761328 2.045098,-0.1761328 h 0.851308 v -0.5283984 q 0,-0.4109766 -0.08807,-0.7143165 -0.07828,-0.313125 -0.273984,-0.5186133 -0.185918,-0.2054883 -0.508829,-0.3033398 -0.313125,-0.097852 -0.782812,-0.097852 -0.616465,0 -1.105723,0.1369922 -0.479472,0.1369922 -0.851308,0.3033398 -0.371836,0.1663477 -0.62625,0.3033399 -0.244629,0.1369922 -0.401192,0.1369922 -0.107637,0 -0.195703,-0.068496 -0.07828,-0.068496 -0.136992,-0.1957031 -0.04893,-0.1272071 -0.07828,-0.313125 -0.02936,-0.185918 -0.02936,-0.4109766 0,-0.3033399 0.04893,-0.4794727 0.04893,-0.1761328 0.185918,-0.313125 0.136992,-0.1467774 0.479473,-0.313125 0.34248,-0.1761329 0.802382,-0.3229102 0.459903,-0.1467774 0.998086,-0.2348438 0.547969,-0.097852 1.125293,-0.097852 1.027442,0 1.751543,0.2054883 0.733887,0.1957031 1.203575,0.6164648 0.469687,0.4109766 0.684961,1.0665821 0.215273,0.6556055 0.215273,1.5558399 z M 17.535235,-4.0412697 H 16.59586 q -0.596894,0 -1.017656,0.088066 -0.420762,0.088066 -0.684961,0.2641992 -0.264199,0.1761328 -0.391406,0.4305469 -0.117422,0.2446289 -0.117422,0.5675391 0,0.5479688 0.34248,0.8610938 0.352266,0.313125 0.968731,0.313125 0.518613,0 0.94916,-0.2641992 0.440332,-0.2641992 0.890449,-0.7730274 z"
     id="path9645"
     inkscape:connector-curvature="0" /><path
     d="m 30.633332,-0.33269533 q 0,0.10763673 -0.04893,0.18591798 -0.04893,0.0684961 -0.166347,0.11742188 -0.117422,0.04892578 -0.32291,0.0684961 -0.195703,0.01957031 -0.489258,0.01957031 -0.313125,0 -0.508828,-0.01957031 -0.195703,-0.01957032 -0.322911,-0.0684961 -0.117421,-0.04892578 -0.176132,-0.11742188 -0.04893,-0.0782812 -0.04893,-0.18591798 V -1.3014258 q -0.675176,0.72410155 -1.418848,1.12529298 -0.733887,0.40119142 -1.634121,0.40119142 -0.998086,0 -1.692832,-0.38162111 -0.684961,-0.39140627 -1.125293,-1.04701179 -0.430547,-0.6556055 -0.62625,-1.5264844 -0.195703,-0.8806641 -0.195703,-1.8493946 0,-1.1644337 0.244629,-2.0940236 0.254414,-0.9295899 0.733886,-1.5851954 0.479473,-0.6556055 1.193789,-1.0078711 0.714317,-0.3522656 1.643907,-0.3522656 0.733887,0 1.330781,0.3033398 0.596895,0.2935547 1.184004,0.870879 v -4.7262308 q 0,-0.09785 0.04893,-0.176133 0.05871,-0.07828 0.195703,-0.127207 0.146777,-0.05871 0.381621,-0.08807 0.234844,-0.02936 0.596895,-0.02936 0.36205,0 0.596894,0.02936 0.234844,0.02936 0.371836,0.08807 0.136992,0.04893 0.195703,0.127207 0.05871,0.07828 0.05871,0.176133 z M 28.187043,-6.1646487 q -0.528398,-0.6653907 -1.017656,-1.0176563 -0.479473,-0.3522657 -1.007871,-0.3522657 -0.479473,0 -0.831739,0.244629 -0.34248,0.2348437 -0.557754,0.6360351 -0.205488,0.4011915 -0.313125,0.9002345 -0.09785,0.4892578 -0.09785,1.0078711 0,0.5479688 0.08807,1.0665821 0.08807,0.5186133 0.28377,0.9295899 0.205488,0.4011914 0.538183,0.6458203 0.332696,0.2446289 0.841524,0.2446289 0.254414,0 0.489258,-0.068496 0.244629,-0.078281 0.489258,-0.2446289 0.254414,-0.1663477 0.518613,-0.4305469 0.264199,-0.2739844 0.577324,-0.6653906 z"
     id="path9647"
     inkscape:connector-curvature="0" /><path
     d="m 35.58243,-0.33269533 q 0,0.0978516 -0.05871,0.17613282 -0.05871,0.0684961 -0.205489,0.11742188 -0.136992,0.04892579 -0.371836,0.0684961 -0.234843,0.02935547 -0.596894,0.02935547 -0.362051,0 -0.596895,-0.02935547 -0.234844,-0.01957031 -0.381621,-0.0684961 -0.136992,-0.04892578 -0.195703,-0.11742188 -0.05871,-0.0782813 -0.05871,-0.17613282 V -9.0414848 q 0,-0.097852 0.05871,-0.1663477 0.05871,-0.078281 0.195703,-0.127207 0.146777,-0.058711 0.381621,-0.088066 0.234844,-0.029356 0.596895,-0.029356 0.362051,0 0.596894,0.029356 0.234844,0.029355 0.371836,0.088066 0.146778,0.048926 0.205489,0.127207 0.05871,0.068496 0.05871,0.1663477 z M 35.768347,-12.016172 q 0,0.743671 -0.303339,1.027441 -0.30334,0.28377 -1.125293,0.28377 -0.831739,0 -1.125293,-0.273985 -0.28377,-0.273984 -0.28377,-0.988301 0,-0.743672 0.293555,-1.027441 0.30334,-0.293555 1.135078,-0.293555 0.821953,0 1.115508,0.28377 0.293554,0.273984 0.293554,0.988301 z"
     id="path9649"
     inkscape:connector-curvature="0" /><path
     d="m 45.629907,-0.50882815 q 0.07828,0.16634767 0.0685,0.27398439 0,0.10763672 -0.136993,0.17613282 -0.136992,0.0684961 -0.420761,0.08806641 -0.28377,0.02935547 -0.753457,0.02935547 -0.440332,0 -0.714317,-0.01957031 -0.264199,-0.0097852 -0.420762,-0.04892579 -0.146777,-0.04892578 -0.225058,-0.10763672 -0.0685,-0.0684961 -0.107637,-0.16634766 L 41.304871,-3.3856642 39.69032,-0.28376954 q -0.03914,0.0978516 -0.107636,0.16634766 -0.0685,0.05871094 -0.215274,0.10763672 -0.136992,0.03914063 -0.391406,0.04892579 -0.254414,0.01957031 -0.665391,0.01957031 -0.430547,0 -0.684961,-0.02935547 -0.254414,-0.01957031 -0.371836,-0.08806641 -0.117421,-0.0684961 -0.127207,-0.17613282 0,-0.10763672 0.08807,-0.27398439 L 39.631606,-4.8045119 37.40059,-8.8359965 q -0.08807,-0.1761328 -0.09785,-0.2935547 0,-0.127207 0.127207,-0.1957031 0.127207,-0.068496 0.401192,-0.097852 0.283769,-0.029356 0.763242,-0.029356 0.430547,0 0.684961,0.01957 0.264199,0.00979 0.410976,0.039141 0.146778,0.029355 0.215274,0.097852 0.0685,0.058711 0.117422,0.1565625 l 1.55584,2.9159767 1.546054,-2.9159767 q 0.02936,-0.078281 0.08807,-0.1369921 0.05871,-0.058711 0.185918,-0.097852 0.127207,-0.039141 0.34248,-0.058711 0.225059,-0.01957 0.60668,-0.01957 0.430547,0 0.684961,0.01957 0.264199,0.01957 0.371836,0.088067 0.117422,0.068496 0.107637,0.1957031 0,0.1174219 -0.107637,0.313125 l -2.172305,3.9629885 z"
     id="path9651"
     inkscape:connector-curvature="0" /></g>
</g></g><g
     id="g124"
     transform="matrix(1.3506631,0,0,-0.89026417,-222.30199,372.36777)"
     style="stroke-width:0.75;stroke-miterlimit:4;stroke-dasharray:none"><g
       id="g126"
       clip-path="url(#clipPath130)"
       style="stroke-width:0.75;stroke-miterlimit:4;stroke-dasharray:none"><path
         inkscape:connector-curvature="0"
         d="m 173.4,353.76 c 0,7.99 12.11,14.46 27.05,14.46 h 57.56 c 14.94,0 27.05,6.47 27.05,14.46 0,-7.99 12.11,-14.46 27.05,-14.46 h 57.56 c 14.94,0 27.05,-6.47 27.05,-14.46"
         style="fill:none;stroke:#000000;stroke-width:0.75;stroke-linecap:butt;stroke-linejoin:miter;stroke-miterlimit:4;stroke-dasharray:none;stroke-opacity:1"
         id="path132" /></g></g><g
     id="g134"
     transform="matrix(1.3333333,0,0,-1.3333333,-221.3035,555.10791)"><g
       id="g136"
       clip-path="url(#clipPath140)"><g
   aria-label="Number"
   transform="matrix(1,0,0,-1,252.36,395.21)"
   style="font-variant:normal;font-weight:bold;font-size:20.04000092px;font-family:Calibri;-inkscape-font-specification:Calibri-Bold;writing-mode:lr-tb;fill:#000000;fill-opacity:1;fill-rule:nonzero;stroke:none"
   id="text144"><path
     d="m 11.820469,-0.90023442 q 0,0.22505861 -0.07828,0.40119143 -0.07828,0.17613282 -0.215273,0.2935547 -0.127207,0.11742188 -0.313125,0.17613282 -0.176133,0.04892578 -0.362051,0.04892578 H 9.7558012 q -0.3424805,0 -0.5968945,-0.06849609 Q 8.9142778,-0.11742188 8.6990043,-0.2935547 8.493516,-0.47947268 8.2978129,-0.78281254 8.1021097,-1.0959376 7.8574808,-1.5851954 L 4.7066604,-7.5052152 Q 4.432676,-8.0336136 4.1489064,-8.6402934 3.8651369,-9.2567582 3.6400783,-9.8340825 h -0.01957 q 0.039141,0.7045313 0.058711,1.4090626 0.01957,0.6947461 0.01957,1.438418 v 6.6245511 q 0,0.0978516 -0.058711,0.17613282 -0.048926,0.0782813 -0.185918,0.1369922 Q 3.3269533,0 3.1018947,0.02935547 2.8768361,0.05871094 2.5245704,0.05871094 q -0.3424805,0 -0.5675391,-0.02935547 Q 1.7319727,0 1.6047657,-0.04892578 1.4775587,-0.10763672 1.4286329,-0.18591798 1.3797071,-0.26419923 1.3797071,-0.3620508 V -11.742188 q 0,-0.459902 0.2641992,-0.684961 0.2739844,-0.234844 0.6653907,-0.234844 h 1.3797071 q 0.3718359,0 0.62625,0.0685 0.2544141,0.05871 0.4501172,0.205489 0.2054883,0.146777 0.3816211,0.410976 0.1761328,0.254414 0.3620508,0.636035 l 2.4658595,4.6283795 q 0.2152735,0.4207617 0.4207617,0.8317383 0.2152735,0.4011914 0.4109766,0.812168 0.1957032,0.4011915 0.3816211,0.7925977 0.185918,0.3914063 0.3620508,0.7828126 h 0.00979 q -0.029355,-0.684961 -0.048926,-1.4286329 -0.00979,-0.7436719 -0.00979,-1.4188477 v -5.9395905 q 0,-0.09785 0.058711,-0.176132 0.058711,-0.07828 0.1957031,-0.136993 0.1369922,-0.05871 0.362051,-0.07828 0.225059,-0.02936 0.577324,-0.02936 0.332696,0 0.557754,0.02936 0.225059,0.01957 0.342481,0.07828 0.127207,0.05871 0.176133,0.136993 0.04892,0.07828 0.04892,0.176132 z"
     id="path9654"
     inkscape:connector-curvature="0" /><path
     d="m 22.717532,-0.33269533 q 0,0.0978516 -0.04893,0.17613282 -0.04893,0.0684961 -0.176132,0.11742188 -0.117422,0.04892579 -0.322911,0.0684961 -0.195703,0.02935547 -0.499043,0.02935547 -0.32291,0 -0.528398,-0.02935547 -0.195703,-0.01957031 -0.313125,-0.0684961 -0.117422,-0.04892578 -0.166348,-0.11742188 -0.04893,-0.0782813 -0.04893,-0.17613282 V -1.3405665 q -0.724101,0.78281257 -1.477558,1.17421884 -0.743672,0.39140626 -1.546055,0.39140626 -0.900234,0 -1.516699,-0.2935547 -0.60668,-0.2935547 -0.988301,-0.80238285 -0.371836,-0.50882815 -0.538184,-1.17421875 -0.156562,-0.6751759 -0.156562,-1.6732618 v -5.3426956 q 0,-0.097852 0.04893,-0.1663477 0.05871,-0.078281 0.195703,-0.127207 0.146777,-0.048926 0.381621,-0.068496 0.244629,-0.029356 0.596894,-0.029356 0.362051,0 0.596895,0.029356 0.234844,0.01957 0.371836,0.068496 0.146777,0.048926 0.205488,0.127207 0.05871,0.068496 0.05871,0.1663477 v 4.931719 q 0,0.6849609 0.08807,1.0470117 0.08807,0.3620508 0.264199,0.6262501 0.185918,0.254414 0.459902,0.4011914 0.28377,0.1369922 0.655606,0.1369922 0.469687,0 0.939375,-0.3424805 0.479472,-0.3424805 1.017656,-0.998086 v -5.8025979 q 0,-0.097852 0.04893,-0.1663477 0.05871,-0.078281 0.195703,-0.127207 0.146777,-0.048926 0.381621,-0.068496 0.234844,-0.029356 0.596895,-0.029356 0.36205,0 0.596894,0.029356 0.234844,0.01957 0.371836,0.068496 0.136992,0.048926 0.195703,0.127207 0.05871,0.068496 0.05871,0.1663477 z"
     id="path9656"
     inkscape:connector-curvature="0" /><path
     d="m 39.085907,-0.33269533 q 0,0.0978516 -0.05871,0.17613282 -0.05871,0.0684961 -0.195703,0.11742188 -0.136992,0.04892579 -0.371836,0.0684961 -0.234843,0.02935547 -0.596894,0.02935547 -0.371836,0 -0.60668,-0.02935547 -0.234844,-0.01957031 -0.381621,-0.0684961 -0.136992,-0.04892578 -0.195703,-0.11742188 -0.04893,-0.0782813 -0.04893,-0.17613282 V -5.5090432 q 0,-0.4403321 -0.08807,-0.8023829 -0.07828,-0.3620508 -0.254415,-0.6164648 -0.166347,-0.2641993 -0.430546,-0.4011915 -0.254414,-0.1467773 -0.616465,-0.1467773 -0.440332,0 -0.89045,0.3424805 -0.450117,0.3424805 -0.978515,0.998086 v 5.80259787 q 0,0.0978516 -0.05871,0.17613282 -0.05871,0.0684961 -0.205488,0.11742188 -0.136993,0.04892579 -0.371836,0.0684961 -0.234844,0.02935547 -0.58711,0.02935547 -0.362051,0 -0.596894,-0.02935547 -0.234844,-0.01957031 -0.381621,-0.0684961 -0.136993,-0.04892578 -0.195704,-0.11742188 -0.05871,-0.0782813 -0.05871,-0.17613282 V -5.5090432 q 0,-0.4403321 -0.08807,-0.8023829 -0.07828,-0.3620508 -0.244629,-0.6164648 -0.166348,-0.2641993 -0.430547,-0.4011915 -0.264199,-0.1467773 -0.616465,-0.1467773 -0.450117,0 -0.900234,0.3424805 -0.450117,0.3424805 -0.968731,0.998086 v 5.80259787 q 0,0.0978516 -0.05871,0.17613282 -0.05871,0.0684961 -0.205488,0.11742188 -0.136992,0.04892579 -0.371836,0.0684961 -0.234844,0.02935547 -0.596894,0.02935547 -0.362051,0 -0.596895,-0.02935547 -0.234844,-0.01957031 -0.381621,-0.0684961 -0.136992,-0.04892578 -0.195703,-0.11742188 -0.05871,-0.0782813 -0.05871,-0.17613282 V -9.0610551 q 0,-0.097852 0.04893,-0.1663477 0.04893,-0.078281 0.176133,-0.127207 0.127207,-0.048926 0.32291,-0.068496 0.205488,-0.029356 0.508828,-0.029356 0.313125,0 0.518613,0.029356 0.205488,0.01957 0.313125,0.068496 0.117422,0.048926 0.166348,0.127207 0.04893,0.068496 0.04893,0.1663477 v 1.0078711 q 0.724101,-0.7828125 1.438418,-1.1742188 0.724101,-0.3914062 1.506914,-0.3914062 0.538183,0 0.96873,0.1174218 0.430547,0.1076368 0.763243,0.3229102 0.34248,0.2054883 0.587109,0.499043 0.244629,0.2935547 0.410977,0.6556055 0.391406,-0.4207617 0.763242,-0.7241016 0.381621,-0.3033398 0.743672,-0.4892578 0.371836,-0.1957032 0.733886,-0.2837696 0.371836,-0.097852 0.753457,-0.097852 0.870879,0 1.467774,0.2935547 0.596895,0.2935547 0.958945,0.8023828 0.371836,0.499043 0.528399,1.1742188 0.156562,0.6751758 0.156562,1.4286329 z"
     id="path9658"
     inkscape:connector-curvature="0" /><path
     d="m 50.280361,-4.8142971 q 0,1.1644337 -0.254414,2.0940235 -0.254414,0.9295899 -0.733887,1.5851954 -0.479472,0.65560552 -1.184004,1.00787116 -0.694746,0.35226564 -1.585195,0.35226564 -0.440332,0 -0.821953,-0.0880664 Q 45.319287,0.05871094 44.967021,-0.12720704 44.624541,-0.31312501 44.28206,-0.59689456 43.949365,-0.8806641 43.597099,-1.2818555 v 0.94916017 q 0,0.10763673 -0.05871,0.18591798 -0.04893,0.0684961 -0.176133,0.11742188 -0.117421,0.04892578 -0.32291,0.0684961 -0.205488,0.01957031 -0.499043,0.01957031 -0.30334,0 -0.508828,-0.01957031 -0.195703,-0.01957032 -0.32291,-0.0684961 -0.117422,-0.04892578 -0.166348,-0.11742188 -0.04893,-0.0782812 -0.04893,-0.18591798 V -13.200176 q 0,-0.09785 0.05871,-0.176133 0.05871,-0.07828 0.195704,-0.127207 0.146777,-0.05871 0.381621,-0.08807 0.234843,-0.02936 0.596894,-0.02936 0.362051,0 0.596895,0.02936 0.234844,0.02936 0.371836,0.08807 0.146777,0.04893 0.205488,0.127207 0.05871,0.07828 0.05871,0.176133 v 4.8240819 q 0.332695,-0.3326954 0.665391,-0.5675391 0.332695,-0.2348438 0.66539,-0.3816211 0.332696,-0.1565625 0.684961,-0.2250586 0.352266,-0.068496 0.743672,-0.068496 0.968731,0 1.643906,0.3914062 0.675176,0.3816211 1.095938,1.0372266 0.430547,0.6556055 0.62625,1.5362696 0.195703,0.870879 0.195703,1.8396095 z m -2.553926,0.1761328 q 0,-0.5577539 -0.08807,-1.0763672 -0.07828,-0.5186133 -0.28377,-0.9198047 -0.205488,-0.4011915 -0.538183,-0.6360352 -0.32291,-0.2446289 -0.821953,-0.2446289 -0.244629,0 -0.479473,0.068496 -0.234844,0.068496 -0.489258,0.2348437 -0.244629,0.1663477 -0.508828,0.4305469 -0.264199,0.2641992 -0.557754,0.6556055 v 2.8964064 q 0.518613,0.6653906 0.988301,1.0176563 0.479472,0.3424805 0.998086,0.3424805 0.479472,0 0.812168,-0.2446289 0.332695,-0.244629 0.547969,-0.6360352 0.225058,-0.3914063 0.32291,-0.8904493 0.09785,-0.499043 0.09785,-0.998086 z"
     id="path9660"
     inkscape:connector-curvature="0" /><path
     d="m 60.3979,-4.9512893 q 0,0.4501172 -0.205488,0.6653907 -0.195703,0.2152734 -0.547969,0.2152734 h -5.31334 q 0,0.5577539 0.127207,1.0176563 0.136992,0.4501172 0.420762,0.7730274 0.293554,0.313125 0.743672,0.4794727 0.459902,0.1663476 1.095937,0.1663476 0.64582,0 1.135078,-0.088066 0.489258,-0.097851 0.841524,-0.2054883 0.362051,-0.1174218 0.596894,-0.2054883 0.234844,-0.097851 0.381621,-0.097851 0.08807,0 0.146778,0.039141 0.05871,0.029355 0.09785,0.1174219 0.03914,0.088066 0.04893,0.2544141 0.01957,0.1565625 0.01957,0.4011914 0,0.2152734 -0.0098,0.3718359 -0.0098,0.14677738 -0.02935,0.25441411 -0.01957,0.10763672 -0.05871,0.18591797 -0.03914,0.0684961 -0.107637,0.1369922 -0.05871,0.0684961 -0.34248,0.18591798 -0.28377,0.11742188 -0.724102,0.23484376 -0.440332,0.10763672 -1.007871,0.18591797 -0.567539,0.0880664 -1.213359,0.0880664 -1.164434,0 -2.045098,-0.2935547 -0.870879,-0.2935547 -1.457989,-0.89044926 -0.587109,-0.59689453 -0.880664,-1.50691413 -0.283769,-0.9100196 -0.283769,-2.1331641 0,-1.1644337 0.30334,-2.0940236 0.30334,-0.939375 0.880664,-1.5851954 0.577324,-0.6556055 1.399277,-0.9980859 0.831738,-0.3424805 1.868965,-0.3424805 1.095938,0 1.868965,0.3229101 0.782813,0.3229102 1.281856,0.9002345 0.499043,0.567539 0.733886,1.3503516 0.234844,0.7828125 0.234844,1.7026172 z m -2.387578,-0.7045313 q 0.02935,-1.0372266 -0.420762,-1.624336 -0.440332,-0.5968945 -1.369922,-0.5968945 -0.469687,0 -0.821953,0.1761328 -0.342481,0.1761328 -0.577324,0.4794727 -0.225059,0.2935547 -0.352266,0.7045312 -0.117422,0.4011915 -0.136992,0.8610938 z"
     id="path9662"
     inkscape:connector-curvature="0" /><path
     d="m 68.021946,-8.2488871 q 0,0.3522656 -0.01957,0.5773242 -0.01957,0.2250587 -0.05871,0.3522657 -0.03914,0.127207 -0.107637,0.1761328 -0.05871,0.048926 -0.156563,0.048926 -0.07828,0 -0.176132,-0.029356 -0.09785,-0.039141 -0.225059,-0.078281 -0.117422,-0.039141 -0.264199,-0.068496 -0.146778,-0.039141 -0.322911,-0.039141 -0.205488,0 -0.410976,0.088067 -0.205488,0.078281 -0.430547,0.254414 -0.215273,0.1761329 -0.459902,0.4696876 -0.234844,0.2935547 -0.508828,0.7241015 v 5.44054717 q 0,0.0978516 -0.05871,0.17613282 -0.05871,0.0684961 -0.205489,0.11742188 -0.136992,0.04892579 -0.371836,0.0684961 -0.234843,0.02935547 -0.596894,0.02935547 -0.362051,0 -0.596895,-0.02935547 -0.234844,-0.01957031 -0.381621,-0.0684961 -0.136992,-0.04892578 -0.195703,-0.11742188 -0.05871,-0.0782813 -0.05871,-0.17613282 V -9.0610551 q 0,-0.097852 0.04893,-0.1663477 0.04893,-0.078281 0.176133,-0.127207 0.127207,-0.048926 0.32291,-0.068496 0.205488,-0.029356 0.508828,-0.029356 0.313125,0 0.518613,0.029356 0.205489,0.01957 0.313125,0.068496 0.117422,0.048926 0.166348,0.127207 0.04893,0.068496 0.04893,0.1663477 v 1.0861524 q 0.34248,-0.4892578 0.64582,-0.8023829 0.30334,-0.3229101 0.577324,-0.5088281 0.273985,-0.185918 0.547969,-0.2544141 0.273984,-0.078281 0.547969,-0.078281 0.127207,0 0.273984,0.01957 0.146778,0.00979 0.30334,0.048926 0.156563,0.029355 0.273984,0.078281 0.117422,0.039141 0.166348,0.088066 0.05871,0.048926 0.07828,0.1076368 0.02936,0.058711 0.04893,0.1663476 0.01957,0.097852 0.02936,0.3033399 0.0098,0.2054883 0.0098,0.5577539 z"
     id="path9664"
     inkscape:connector-curvature="0" /></g>
</g></g><g
     id="g154"
     transform="matrix(1.3333333,0,0,-1.3333333,-303.09327,509.7796)"><g
       id="g156"
       clip-path="url(#clipPath160)"><g
   aria-label="Index"
   transform="matrix(1,0,0,-1,464.42,332.54)"
   style="font-variant:normal;font-weight:bold;font-size:20.04000092px;font-family:Calibri;-inkscape-font-specification:Calibri-Bold;writing-mode:lr-tb;fill:#000000;fill-opacity:1;fill-rule:nonzero;stroke:none"
   id="text164"><path
     d="m 3.9629885,-0.35226564 q 0,0.0978516 -0.068496,0.17613282 -0.058711,0.07828125 -0.2054883,0.12720704 Q 3.5422267,0 3.2975978,0.02935547 q -0.2446289,0.02935547 -0.62625,0.02935547 -0.371836,0 -0.6262501,-0.02935547 Q 1.8004688,0 1.6536915,-0.04892578 1.5069141,-0.09785157 1.438418,-0.17613282 1.3797071,-0.25441407 1.3797071,-0.35226564 V -12.309727 q 0,-0.09785 0.058711,-0.176133 0.068496,-0.07828 0.2152735,-0.127207 0.1565625,-0.04893 0.4011914,-0.07828 0.2446289,-0.02936 0.6164649,-0.02936 0.3816211,0 0.62625,0.02936 0.2446289,0.02935 0.3914063,0.07828 0.1467773,0.04893 0.2054883,0.127207 0.068496,0.07828 0.068496,0.176133 z"
     id="path9667"
     inkscape:connector-curvature="0" /><path
     d="m 14.920563,-0.33269533 q 0,0.0978516 -0.05871,0.17613282 -0.05871,0.0684961 -0.195703,0.11742188 -0.136992,0.04892579 -0.381621,0.0684961 -0.234844,0.02935547 -0.587109,0.02935547 -0.362051,0 -0.60668,-0.02935547 -0.234844,-0.01957031 -0.371836,-0.0684961 -0.136992,-0.04892578 -0.195703,-0.11742188 -0.05871,-0.0782813 -0.05871,-0.17613282 V -5.3133401 q 0,-0.6360352 -0.09785,-0.998086 -0.08807,-0.3620508 -0.264199,-0.6164648 -0.176133,-0.2641993 -0.459902,-0.4011915 -0.273985,-0.1467773 -0.645821,-0.1467773 -0.469687,0 -0.94916,0.3424805 -0.4794726,0.3424805 -0.9980859,0.998086 v 5.80259787 q 0,0.0978516 -0.058711,0.17613282 -0.058711,0.0684961 -0.2054883,0.11742188 -0.1369922,0.04892579 -0.371836,0.0684961 -0.2348437,0.02935547 -0.5968945,0.02935547 -0.3620508,0 -0.5968946,-0.02935547 Q 6.984801,0.00978516 6.8380237,-0.03914063 6.7010315,-0.08806641 6.6423206,-0.15656251 6.5836096,-0.23484376 6.5836096,-0.33269533 V -9.0610551 q 0,-0.097852 0.048926,-0.1663477 0.048926,-0.078281 0.1761328,-0.127207 0.1272071,-0.048926 0.3229102,-0.068496 0.2054883,-0.029356 0.5088281,-0.029356 0.3131251,0 0.5186133,0.029356 0.2054883,0.01957 0.3131251,0.068496 0.1174218,0.048926 0.1663476,0.127207 0.048926,0.068496 0.048926,0.1663477 v 1.0078711 q 0.7241016,-0.7828125 1.4677733,-1.1742188 0.753457,-0.3914062 1.565625,-0.3914062 0.890449,0 1.497129,0.2935547 0.616465,0.2935547 0.988301,0.8023828 0.381621,0.499043 0.547968,1.1742188 0.166348,0.6751758 0.166348,1.624336 z"
     id="path9669"
     inkscape:connector-curvature="0" /><path
     d="m 25.683452,-0.33269533 q 0,0.10763673 -0.04893,0.18591798 -0.04893,0.0684961 -0.166348,0.11742188 -0.117422,0.04892578 -0.32291,0.0684961 -0.195703,0.01957031 -0.489258,0.01957031 -0.313125,0 -0.508828,-0.01957031 -0.195703,-0.01957032 -0.32291,-0.0684961 -0.117422,-0.04892578 -0.176133,-0.11742188 -0.04893,-0.0782812 -0.04893,-0.18591798 V -1.3014258 q -0.675176,0.72410155 -1.418847,1.12529298 -0.733887,0.40119142 -1.634122,0.40119142 -0.998086,0 -1.692832,-0.38162111 -0.684961,-0.39140627 -1.125293,-1.04701179 -0.430547,-0.6556055 -0.62625,-1.5264844 -0.195703,-0.8806641 -0.195703,-1.8493946 0,-1.1644337 0.244629,-2.0940236 0.254414,-0.9295899 0.733887,-1.5851954 0.479472,-0.6556055 1.193789,-1.0078711 0.714316,-0.3522656 1.643906,-0.3522656 0.733887,0 1.330782,0.3033398 0.596894,0.2935547 1.184003,0.870879 v -4.7262308 q 0,-0.09785 0.04893,-0.176133 0.05871,-0.07828 0.195703,-0.127207 0.146778,-0.05871 0.381622,-0.08807 0.234843,-0.02936 0.596894,-0.02936 0.362051,0 0.596895,0.02936 0.234843,0.02936 0.371836,0.08807 0.136992,0.04893 0.195703,0.127207 0.05871,0.07828 0.05871,0.176133 z m -2.44629,-5.83195337 q -0.528398,-0.6653907 -1.017656,-1.0176563 -0.479472,-0.3522657 -1.007871,-0.3522657 -0.479473,0 -0.831738,0.244629 -0.342481,0.2348437 -0.557754,0.6360351 -0.205488,0.4011915 -0.313125,0.9002345 -0.09785,0.4892578 -0.09785,1.0078711 0,0.5479688 0.08807,1.0665821 0.08807,0.5186133 0.283769,0.9295899 0.205488,0.4011914 0.538184,0.6458203 0.332695,0.2446289 0.841523,0.2446289 0.254414,0 0.489258,-0.068496 0.244629,-0.078281 0.489258,-0.2446289 0.254414,-0.1663477 0.518613,-0.4305469 0.264199,-0.2739844 0.577324,-0.6653906 z"
     id="path9671"
     inkscape:connector-curvature="0" /><path
     d="m 36.229659,-4.9512893 q 0,0.4501172 -0.205489,0.6653907 -0.195703,0.2152734 -0.547969,0.2152734 h -5.31334 q 0,0.5577539 0.127207,1.0176563 0.136993,0.4501172 0.420762,0.7730274 0.293555,0.313125 0.743672,0.4794727 0.459902,0.1663476 1.095938,0.1663476 0.64582,0 1.135078,-0.088066 0.489258,-0.097851 0.841523,-0.2054883 0.362051,-0.1174218 0.596895,-0.2054883 0.234844,-0.097851 0.381621,-0.097851 0.08807,0 0.146777,0.039141 0.05871,0.029355 0.09785,0.1174219 0.03914,0.088066 0.04893,0.2544141 0.01957,0.1565625 0.01957,0.4011914 0,0.2152734 -0.0098,0.3718359 -0.0098,0.14677738 -0.02936,0.25441411 -0.01957,0.10763672 -0.05871,0.18591797 -0.03914,0.0684961 -0.107636,0.1369922 -0.05871,0.0684961 -0.342481,0.18591798 -0.283769,0.11742188 -0.724101,0.23484376 -0.440332,0.10763672 -1.007872,0.18591797 -0.567539,0.0880664 -1.213359,0.0880664 -1.164434,0 -2.045098,-0.2935547 -0.870879,-0.2935547 -1.457988,-0.89044926 -0.587109,-0.59689453 -0.880664,-1.50691413 -0.28377,-0.9100196 -0.28377,-2.1331641 0,-1.1644337 0.30334,-2.0940236 0.30334,-0.939375 0.880664,-1.5851954 0.577324,-0.6556055 1.399278,-0.9980859 0.831738,-0.3424805 1.868965,-0.3424805 1.095937,0 1.868965,0.3229101 0.782812,0.3229102 1.281855,0.9002345 0.499043,0.567539 0.733887,1.3503516 0.234844,0.7828125 0.234844,1.7026172 z M 33.84208,-5.6558206 q 0.02936,-1.0372266 -0.420761,-1.624336 -0.440332,-0.5968945 -1.369922,-0.5968945 -0.469688,0 -0.821954,0.1761328 -0.34248,0.1761328 -0.577324,0.4794727 -0.225058,0.2935547 -0.352265,0.7045312 -0.117422,0.4011915 -0.136993,0.8610938 z"
     id="path9673"
     inkscape:connector-curvature="0" /><path
     d="m 45.509667,-0.50882815 q 0.07828,0.16634767 0.0685,0.27398439 0,0.10763672 -0.136992,0.17613282 -0.136992,0.0684961 -0.420762,0.08806641 -0.283769,0.02935547 -0.753457,0.02935547 -0.440332,0 -0.714316,-0.01957031 -0.264199,-0.0097852 -0.420762,-0.04892579 -0.146777,-0.04892578 -0.225058,-0.10763672 -0.0685,-0.0684961 -0.107637,-0.16634766 l -1.614551,-3.10189466 -1.614551,3.10189466 q -0.03914,0.0978516 -0.107637,0.16634766 -0.0685,0.05871094 -0.215273,0.10763672 -0.136992,0.03914063 -0.391406,0.04892579 -0.254414,0.01957031 -0.665391,0.01957031 -0.430547,0 -0.684961,-0.02935547 -0.254414,-0.01957031 -0.371836,-0.08806641 -0.117422,-0.0684961 -0.127207,-0.17613282 0,-0.10763672 0.08807,-0.27398439 l 2.416933,-4.29568375 -2.231015,-4.0314846 q -0.08807,-0.1761328 -0.09785,-0.2935547 0,-0.127207 0.127207,-0.1957031 0.127207,-0.068496 0.401191,-0.097852 0.28377,-0.029356 0.763243,-0.029356 0.430547,0 0.684961,0.01957 0.264199,0.00979 0.410976,0.039141 0.146778,0.029355 0.215274,0.097852 0.0685,0.058711 0.117422,0.1565625 l 1.555839,2.9159767 1.546055,-2.9159767 q 0.02936,-0.078281 0.08807,-0.1369921 0.05871,-0.058711 0.185918,-0.097852 0.127207,-0.039141 0.34248,-0.058711 0.225059,-0.01957 0.60668,-0.01957 0.430547,0 0.684961,0.01957 0.264199,0.01957 0.371836,0.088067 0.117422,0.068496 0.107636,0.1957031 0,0.1174219 -0.107636,0.313125 l -2.172305,3.9629885 z"
     id="path9675"
     inkscape:connector-curvature="0" /></g>
</g></g><g
     id="g174"
     transform="matrix(1.3333333,0,0,-1.3333333,-234.08988,333.1946)"><g
       id="g176"
       clip-path="url(#clipPath180)"><g
   aria-label="Digits"
   transform="scale(1,-1)"
   style="font-variant:normal;font-weight:bold;font-size:20.04000092px;font-family:Calibri;-inkscape-font-specification:Calibri-Bold;writing-mode:lr-tb;fill:#000000;fill-opacity:1;fill-rule:nonzero;stroke:none"
   id="text184"><path
     d="m 295.23875,-81.665741 q 0,1.741758 -0.45991,2.984473 -0.45011,1.23293 -1.30142,2.015742 -0.85131,0.782813 -2.07445,1.154649 -1.21336,0.36205 -2.89641,0.36205 h -3.02361 q -0.32291,0 -0.54797,-0.185918 -0.21528,-0.195703 -0.21528,-0.62625 v -11.037656 q 0,-0.430547 0.21528,-0.616465 0.22506,-0.195703 0.54797,-0.195703 h 3.24867 q 1.69283,0 2.86705,0.401191 1.184,0.391406 1.98639,1.174219 0.81216,0.773027 1.23293,1.917891 0.42076,1.144863 0.42076,2.651777 z m -2.66157,0.08807 q 0,-0.900234 -0.21527,-1.673261 -0.20549,-0.773028 -0.67517,-1.340567 -0.45991,-0.567539 -1.19379,-0.880664 -0.72411,-0.32291 -1.90811,-0.32291 h -1.30143 v 8.610938 h 1.34057 q 1.0568,0 1.7809,-0.273985 0.7241,-0.273984 1.20357,-0.821953 0.48926,-0.557754 0.72411,-1.379707 0.24462,-0.821953 0.24462,-1.917891 z"
     id="path9678"
     inkscape:connector-curvature="0" /><path
     d="m 299.664,-75.481522 q 0,0.09785 -0.0587,0.176133 -0.0587,0.0685 -0.20549,0.117422 -0.13699,0.04893 -0.37184,0.0685 -0.23484,0.02936 -0.59689,0.02936 -0.36205,0 -0.5969,-0.02936 -0.23484,-0.01957 -0.38162,-0.0685 -0.13699,-0.04893 -0.1957,-0.117422 -0.0587,-0.07828 -0.0587,-0.176133 v -8.708789 q 0,-0.09785 0.0587,-0.166348 0.0587,-0.07828 0.1957,-0.127207 0.14678,-0.05871 0.38162,-0.08807 0.23485,-0.02936 0.5969,-0.02936 0.36205,0 0.59689,0.02936 0.23485,0.02936 0.37184,0.08807 0.14678,0.04893 0.20549,0.127207 0.0587,0.0685 0.0587,0.166348 z m 0.18592,-11.683477 q 0,0.743672 -0.30334,1.027441 -0.30334,0.28377 -1.1253,0.28377 -0.83173,0 -1.12529,-0.273984 -0.28377,-0.273985 -0.28377,-0.988301 0,-0.743672 0.29356,-1.027442 0.30334,-0.293554 1.13507,-0.293554 0.82196,0 1.11551,0.283769 0.29356,0.273985 0.29356,0.988301 z"
     id="path9680"
     inkscape:connector-curvature="0" /><path
     d="m 309.99525,-83.603202 q 0,0.469688 -0.10764,0.694746 -0.10764,0.225059 -0.2642,0.225059 h -1.02744 q 0.21527,0.234844 0.30334,0.538183 0.0978,0.293555 0.0978,0.616465 0,0.763242 -0.25441,1.360137 -0.25442,0.587109 -0.73389,0.998086 -0.46969,0.401191 -1.14486,0.616465 -0.6654,0.205488 -1.48735,0.205488 -0.42076,0 -0.80238,-0.09785 -0.38162,-0.107637 -0.58711,-0.244629 -0.11742,0.127207 -0.21527,0.30334 -0.0881,0.176132 -0.0881,0.391406 0,0.283769 0.24463,0.469687 0.25441,0.176133 0.70453,0.195703 l 2.12338,0.07828 q 0.74367,0.02935 1.321,0.215273 0.5871,0.176133 0.97851,0.508828 0.40119,0.32291 0.60668,0.782813 0.21527,0.459902 0.21527,1.047012 0,0.64582 -0.28377,1.213359 -0.28377,0.577324 -0.8513,0.998086 -0.56754,0.420762 -1.42864,0.665391 -0.85131,0.244629 -1.99617,0.244629 -1.11551,0 -1.9081,-0.176133 -0.78282,-0.176133 -1.29165,-0.489258 -0.49904,-0.313125 -0.73388,-0.753457 -0.22506,-0.430547 -0.22506,-0.94916 0,-0.32291 0.0783,-0.616465 0.0881,-0.293555 0.24463,-0.567539 0.16635,-0.2642 0.40119,-0.508828 0.23484,-0.244629 0.53818,-0.469688 -0.42076,-0.225059 -0.6556,-0.60668 -0.22506,-0.391406 -0.22506,-0.851308 0,-0.577325 0.2642,-1.047012 0.2642,-0.479473 0.68496,-0.861094 -0.34248,-0.34248 -0.54797,-0.821953 -0.20549,-0.479473 -0.20549,-1.193789 0,-0.763242 0.2642,-1.360137 0.27399,-0.60668 0.75346,-1.017656 0.47947,-0.420762 1.14486,-0.636035 0.66539,-0.225059 1.46778,-0.225059 0.41097,0 0.78281,0.04893 0.38162,0.04893 0.70453,0.136992 h 2.7692 q 0.16635,0 0.2642,0.215273 0.10764,0.215274 0.10764,0.724102 z m -3.16061,2.064668 q 0,-0.704531 -0.39141,-1.095937 -0.3914,-0.391407 -1.10572,-0.391407 -0.36205,0 -0.63603,0.127207 -0.27399,0.117422 -0.45991,0.332696 -0.17613,0.205488 -0.2642,0.489257 -0.0881,0.273985 -0.0881,0.577325 0,0.66539 0.3914,1.056797 0.39141,0.381621 1.08616,0.381621 0.37183,0 0.64582,-0.117422 0.27398,-0.117422 0.45011,-0.32291 0.18592,-0.205489 0.27399,-0.469688 0.0978,-0.273984 0.0978,-0.567539 z m 0.57732,6.967032 q 0,-0.440332 -0.35226,-0.675176 -0.35227,-0.234844 -0.96873,-0.254414 l -1.75154,-0.04893 q -0.25442,0.185918 -0.41098,0.362051 -0.14678,0.166347 -0.24463,0.32291 -0.0881,0.156562 -0.11742,0.30334 -0.0294,0.146777 -0.0294,0.30334 0,0.489257 0.48926,0.743672 0.49904,0.254414 1.39928,0.254414 0.55775,0 0.93937,-0.117422 0.38162,-0.107637 0.61647,-0.293555 0.23484,-0.185918 0.33269,-0.420762 0.0978,-0.225058 0.0978,-0.479472 z"
     id="path9682"
     inkscape:connector-curvature="0" /><path
     d="m 314.0928,-75.481522 q 0,0.09785 -0.0587,0.176133 -0.0587,0.0685 -0.20549,0.117422 -0.13699,0.04893 -0.37183,0.0685 -0.23485,0.02936 -0.5969,0.02936 -0.36205,0 -0.59689,-0.02936 -0.23485,-0.01957 -0.38162,-0.0685 -0.137,-0.04893 -0.19571,-0.117422 -0.0587,-0.07828 -0.0587,-0.176133 v -8.708789 q 0,-0.09785 0.0587,-0.166348 0.0587,-0.07828 0.19571,-0.127207 0.14677,-0.05871 0.38162,-0.08807 0.23484,-0.02936 0.59689,-0.02936 0.36205,0 0.5969,0.02936 0.23484,0.02936 0.37183,0.08807 0.14678,0.04893 0.20549,0.127207 0.0587,0.0685 0.0587,0.166348 z m 0.18592,-11.683477 q 0,0.743672 -0.30334,1.027441 -0.30334,0.28377 -1.12529,0.28377 -0.83174,0 -1.1253,-0.273984 -0.28377,-0.273985 -0.28377,-0.988301 0,-0.743672 0.29356,-1.027442 0.30334,-0.293554 1.13508,-0.293554 0.82195,0 1.1155,0.283769 0.29356,0.273985 0.29356,0.988301 z"
     id="path9684"
     inkscape:connector-curvature="0" /><path
     d="m 321.66323,-76.342616 q 0,0.430547 -0.0587,0.665391 -0.0489,0.225059 -0.13699,0.32291 -0.0881,0.08807 -0.2642,0.166348 -0.16634,0.0685 -0.40119,0.117422 -0.22506,0.05871 -0.49904,0.08807 -0.2642,0.02936 -0.53819,0.02936 -0.73388,0 -1.27207,-0.185918 -0.53818,-0.185918 -0.89044,-0.56754 -0.35227,-0.391406 -0.51862,-0.978515 -0.16635,-0.58711 -0.16635,-1.389492 v -4.471817 h -1.04701 q -0.18592,0 -0.28377,-0.225059 -0.0978,-0.234843 -0.0978,-0.773027 0,-0.28377 0.0196,-0.479473 0.0294,-0.195703 0.0783,-0.30334 0.0489,-0.117421 0.11742,-0.166347 0.0783,-0.04893 0.17614,-0.04893 h 1.03722 v -1.947246 q 0,-0.09785 0.0489,-0.176133 0.0587,-0.07828 0.1957,-0.127207 0.14678,-0.05871 0.38162,-0.07828 0.24463,-0.02936 0.5969,-0.02936 0.36205,0 0.59689,0.02936 0.24463,0.01957 0.38162,0.07828 0.137,0.04893 0.19571,0.127207 0.0587,0.07828 0.0587,0.176133 v 1.947246 h 1.89832 q 0.0978,0 0.16635,0.04893 0.0783,0.04893 0.1272,0.166347 0.0489,0.107637 0.0685,0.30334 0.0294,0.195703 0.0294,0.479473 0,0.538184 -0.0979,0.773027 -0.0978,0.225059 -0.28377,0.225059 h -1.9081 v 4.099981 q 0,0.714316 0.22506,1.076367 0.22506,0.352265 0.80238,0.352265 0.1957,0 0.35227,-0.02935 0.15656,-0.03914 0.27398,-0.07828 0.12721,-0.04893 0.20549,-0.07828 0.0881,-0.03914 0.15656,-0.03914 0.0587,0 0.10764,0.03914 0.0587,0.02936 0.0881,0.136993 0.0294,0.09785 0.0489,0.273984 0.0294,0.176133 0.0294,0.450117 z"
     id="path9686"
     inkscape:connector-curvature="0" /><path
     d="m 329.5956,-77.947381 q 0,0.743671 -0.28377,1.311211 -0.27399,0.567539 -0.78281,0.94916 -0.50883,0.381621 -1.20358,0.567539 -0.69474,0.195703 -1.50691,0.195703 -0.48926,0 -0.93938,-0.07828 -0.44033,-0.0685 -0.79259,-0.176133 -0.35227,-0.117422 -0.58711,-0.234844 -0.23485,-0.117422 -0.34248,-0.215273 -0.10764,-0.107637 -0.16635,-0.32291 -0.0587,-0.225059 -0.0587,-0.655606 0,-0.283769 0.0196,-0.450117 0.0196,-0.176133 0.0587,-0.273985 0.0391,-0.107636 0.0978,-0.136992 0.0587,-0.03914 0.14678,-0.03914 0.10763,0 0.31312,0.127207 0.21528,0.117422 0.5284,0.264199 0.31313,0.146777 0.7241,0.273984 0.42076,0.127207 0.94916,0.127207 0.3327,0 0.58711,-0.0685 0.2642,-0.0685 0.45012,-0.195703 0.1957,-0.127207 0.29355,-0.32291 0.0979,-0.195703 0.0979,-0.450117 0,-0.293555 -0.18592,-0.499043 -0.17614,-0.215274 -0.47948,-0.371836 -0.29355,-0.156563 -0.67517,-0.293555 -0.37184,-0.136992 -0.77303,-0.30334 -0.39141,-0.166347 -0.77303,-0.381621 -0.37183,-0.215273 -0.67517,-0.528398 -0.29356,-0.313125 -0.47947,-0.753457 -0.17614,-0.440332 -0.17614,-1.056797 0,-0.62625 0.24463,-1.144864 0.24463,-0.528398 0.70453,-0.900234 0.45991,-0.371836 1.11551,-0.577324 0.66539,-0.205489 1.48734,-0.205489 0.41098,0 0.7926,0.05871 0.39141,0.05871 0.70453,0.146778 0.31313,0.08807 0.5284,0.195703 0.21528,0.09785 0.30334,0.176133 0.0978,0.0685 0.13699,0.146777 0.0391,0.0685 0.0587,0.176133 0.0196,0.09785 0.0294,0.254414 0.0196,0.146777 0.0196,0.371836 0,0.264199 -0.0196,0.430547 -0.01,0.166347 -0.0489,0.264199 -0.0294,0.09785 -0.0881,0.136992 -0.0587,0.02936 -0.13699,0.02936 -0.0881,0 -0.27399,-0.09785 -0.18592,-0.107637 -0.46969,-0.225059 -0.27398,-0.117421 -0.64582,-0.215273 -0.36205,-0.107637 -0.83173,-0.107637 -0.3327,0 -0.57733,0.0685 -0.24463,0.0685 -0.40119,0.195703 -0.15656,0.127208 -0.23484,0.30334 -0.0783,0.166348 -0.0783,0.362051 0,0.30334 0.18592,0.508828 0.18592,0.205489 0.48926,0.362051 0.30334,0.156563 0.68496,0.293555 0.39141,0.136992 0.78281,0.30334 0.4012,0.156562 0.78282,0.371836 0.3914,0.215273 0.69474,0.528398 0.30334,0.313125 0.48926,0.753457 0.18592,0.430547 0.18592,1.027442 z"
     id="path9688"
     inkscape:connector-curvature="0" /></g>
</g></g><path
     style="fill:none;stroke:#000000;stroke-width:1px;stroke-linecap:butt;stroke-linejoin:miter;stroke-opacity:1;marker-end:url(#marker4112)"
     d="m 341.99527,220.69416 -0.069,-19.28856"
     id="path4664-1"
     inkscape:connector-curvature="0"
     sodipodi:nodetypes="cc" /><path
     style="fill:none;stroke:#000000;stroke-width:1px;stroke-linecap:butt;stroke-linejoin:miter;stroke-opacity:1;marker-end:url(#marker3208)"
     d="m 309.93678,59.312394 -24.08701,22.74393"
     id="path4664-0"
     inkscape:connector-curvature="0"
     sodipodi:nodetypes="cc" /><path
     style="fill:none;stroke:#000000;stroke-width:1px;stroke-linecap:butt;stroke-linejoin:miter;stroke-opacity:1;marker-end:url(#marker3120)"
     d="M 309.93678,59.312394 62.847439,83.410604"
     id="path4664-3"
     inkscape:connector-curvature="0"
     sodipodi:nodetypes="cc" /><path
     style="fill:none;stroke:#000000;stroke-width:1px;stroke-linecap:butt;stroke-linejoin:miter;stroke-opacity:1;marker-end:url(#Arrow1Mend)"
     d="m 309.93678,59.312394 -97.25417,23.5351"
     id="path4664-0-0"
     inkscape:connector-curvature="0"
     sodipodi:nodetypes="cc" /><path
     style="fill:none;stroke:#000000;stroke-width:1px;stroke-linecap:butt;stroke-linejoin:miter;stroke-opacity:1;marker-end:url(#marker3320)"
     d="M 309.93678,59.312394 144.13176,82.091254"
     id="path4664-0-0-3"
     inkscape:connector-curvature="0"
     sodipodi:nodetypes="cc" /><path
     style="fill:none;stroke:#000000;stroke-width:1px;stroke-linecap:butt;stroke-linejoin:miter;stroke-opacity:1;marker-end:url(#marker3982)"
     d="m 49.054338,214.15125 0.146715,-23.83471"
     id="path4664-1-8"
     inkscape:connector-curvature="0"
     sodipodi:nodetypes="cc" /><path
     style="fill:none;stroke:#000000;stroke-width:1px;stroke-linecap:butt;stroke-linejoin:miter;stroke-opacity:1;marker-end:url(#marker3858)"
     d="M 175.97965,212.15933 73.701229,177.49614"
     id="path4664-1-8-6"
     inkscape:connector-curvature="0"
     sodipodi:nodetypes="cc" /><path
     style="fill:none;stroke:#000000;stroke-width:1px;stroke-linecap:butt;stroke-linejoin:miter;stroke-opacity:1;marker-end:url(#marker3740)"
     d="M 175.97965,212.40067 132.79157,178.08945"
     id="path4664-1-8-6-1"
     inkscape:connector-curvature="0"
     sodipodi:nodetypes="cc" /><path
     style="fill:none;stroke:#000000;stroke-width:1px;stroke-linecap:butt;stroke-linejoin:miter;stroke-opacity:1;marker-end:url(#marker3628)"
     d="M 175.97965,212.40067 203.1406,178.39181"
     id="path4664-1-8-6-1-9"
     inkscape:connector-curvature="0"
     sodipodi:nodetypes="cc" /><path
     style="fill:none;stroke:#000000;stroke-width:1px;stroke-linecap:butt;stroke-linejoin:miter;stroke-opacity:1;marker-end:url(#marker3522)"
     d="m 175.97965,212.15933 93.71768,-34.62924"
     id="path4664-1-8-6-1-9-6"
     inkscape:connector-curvature="0"
     sodipodi:nodetypes="cc" /></svg>