<svg xmlns="http://www.w3.org/2000/svg" xmlns:xlink="http://www.w3.org/1999/xlink" viewBox="0 0 817 1136.31">
  <defs>
    <style>
      .cls-1 {
        fill: url(#linear-gradient-19);
      }

      .cls-1, .cls-2, .cls-3, .cls-4, .cls-5, .cls-6, .cls-7, .cls-8, .cls-9, .cls-10, .cls-11, .cls-12, .cls-13, .cls-14, .cls-15, .cls-16, .cls-17, .cls-18, .cls-19, .cls-20, .cls-21, .cls-22, .cls-23, .cls-24, .cls-25, .cls-26, .cls-27, .cls-28, .cls-29, .cls-30, .cls-31, .cls-32, .cls-33, .cls-34, .cls-35, .cls-36, .cls-37, .cls-38, .cls-39, .cls-40, .cls-41, .cls-42, .cls-43, .cls-44, .cls-45, .cls-46, .cls-47, .cls-48, .cls-49, .cls-50, .cls-51, .cls-52, .cls-53, .cls-54, .cls-55, .cls-56, .cls-57, .cls-58, .cls-59, .cls-60, .cls-61, .cls-62, .cls-63 {
        stroke-width: 0px;
      }

      .cls-1, .cls-4, .cls-7, .cls-8, .cls-9, .cls-10, .cls-11, .cls-18, .cls-32, .cls-38, .cls-41, .cls-55, .cls-58, .cls-60, .cls-62 {
        mix-blend-mode: multiply;
      }

      .cls-2 {
        fill: url(#linear-gradient-38);
      }

      .cls-3 {
        fill: url(#linear-gradient-12);
      }

      .cls-4 {
        fill: url(#linear-gradient-23);
      }

      .cls-5 {
        fill: url(#linear-gradient);
      }

      .cls-6 {
        fill: url(#linear-gradient-6);
      }

      .cls-7 {
        fill: url(#linear-gradient-15);
      }

      .cls-8 {
        fill: url(#linear-gradient-43);
      }

      .cls-9 {
        fill: url(#linear-gradient-51);
      }

      .cls-10 {
        fill: url(#linear-gradient-11);
      }

      .cls-11 {
        fill: url(#linear-gradient-49);
      }

      .cls-64 {
        isolation: isolate;
      }

      .cls-12 {
        fill: url(#linear-gradient-42);
      }

      .cls-13 {
        filter: url(#drop-shadow-1);
      }

      .cls-13, .cls-22, .cls-25, .cls-33, .cls-35, .cls-37, .cls-49, .cls-52, .cls-54, .cls-59 {
        fill: #fff;
      }

      .cls-14 {
        fill: url(#linear-gradient-41);
        filter: url(#drop-shadow-18);
      }

      .cls-15 {
        fill: url(#linear-gradient-33);
        filter: url(#drop-shadow-14);
      }

      .cls-16 {
        fill: url(#linear-gradient-25);
        filter: url(#drop-shadow-10);
      }

      .cls-17 {
        fill: url(#linear-gradient-5);
      }

      .cls-18 {
        fill: url(#linear-gradient-45);
      }

      .cls-19 {
        fill: url(#linear-gradient-34);
      }

      .cls-20 {
        fill: url(#linear-gradient-40);
      }

      .cls-21 {
        fill: url(#linear-gradient-29);
        filter: url(#drop-shadow-12);
      }

      .cls-22 {
        filter: url(#drop-shadow-17);
      }

      .cls-23 {
        fill: url(#linear-gradient-16);
      }

      .cls-24 {
        fill: url(#linear-gradient-22);
      }

      .cls-26 {
        fill: url(#linear-gradient-50);
      }

      .cls-27 {
        fill: url(#linear-gradient-32);
      }

      .cls-28 {
        fill: url(#linear-gradient-20);
      }

      .cls-29 {
        fill: url(#linear-gradient-14);
      }

      .cls-30 {
        fill: url(#linear-gradient-2);
      }

      .cls-31 {
        fill: url(#linear-gradient-52);
      }

      .cls-32 {
        fill: url(#linear-gradient-31);
      }

      .cls-33 {
        filter: url(#drop-shadow-13);
      }

      .cls-34 {
        fill: url(#linear-gradient-3);
      }

      .cls-35 {
        filter: url(#drop-shadow-5);
      }

      .cls-36 {
        fill: url(#linear-gradient-9);
        filter: url(#drop-shadow-2);
      }

      .cls-37 {
        filter: url(#drop-shadow-7);
      }

      .cls-38 {
        fill: url(#linear-gradient-47);
      }

      .cls-39 {
        fill: url(#linear-gradient-36);
      }

      .cls-40 {
        fill: url(#linear-gradient-48);
      }

      .cls-41 {
        fill: url(#linear-gradient-35);
      }

      .cls-42 {
        fill: url(#linear-gradient-8);
      }

      .cls-43 {
        fill: url(#linear-gradient-24);
      }

      .cls-44 {
        fill: url(#linear-gradient-26);
      }

      .cls-45 {
        fill: url(#linear-gradient-13);
        filter: url(#drop-shadow-4);
      }

      .cls-46 {
        fill: url(#linear-gradient-18);
      }

      .cls-47 {
        fill: url(#linear-gradient-37);
        filter: url(#drop-shadow-16);
      }

      .cls-48 {
        fill: url(#linear-gradient-30);
      }

      .cls-49 {
        filter: url(#drop-shadow-3);
      }

      .cls-50 {
        fill: url(#linear-gradient-44);
      }

      .cls-51 {
        fill: url(#linear-gradient-46);
      }

      .cls-52 {
        filter: url(#drop-shadow-15);
      }

      .cls-53 {
        fill: url(#linear-gradient-21);
        filter: url(#drop-shadow-8);
      }

      .cls-54 {
        filter: url(#drop-shadow-11);
      }

      .cls-55 {
        fill: url(#linear-gradient-27);
      }

      .cls-56 {
        fill: url(#linear-gradient-28);
      }

      .cls-57 {
        fill: url(#linear-gradient-10);
      }

      .cls-58 {
        fill: url(#linear-gradient-7);
      }

      .cls-59 {
        filter: url(#drop-shadow-9);
      }

      .cls-60 {
        fill: url(#linear-gradient-39);
      }

      .cls-61 {
        fill: url(#linear-gradient-4);
      }

      .cls-62 {
        fill: url(#linear-gradient-53);
      }

      .cls-63 {
        fill: url(#linear-gradient-17);
        filter: url(#drop-shadow-6);
      }
    </style>
    <linearGradient id="linear-gradient" x1="207.94" y1="241.78" x2="521.28" y2="458.58" gradientUnits="userSpaceOnUse">
      <stop offset="0" stop-color="#8d521a"/>
      <stop offset="1" stop-color="#5b3c1a"/>
    </linearGradient>
    <linearGradient id="linear-gradient-2" x1="339.17" y1="647.05" x2="416.88" y2="700.82" xlink:href="#linear-gradient"/>
    <linearGradient id="linear-gradient-3" x1="256.17" y1="802.67" x2="510.81" y2="978.86" xlink:href="#linear-gradient"/>
    <linearGradient id="linear-gradient-4" x1="353.15" y1="814.88" x2="407.26" y2="852.32" xlink:href="#linear-gradient"/>
    <linearGradient id="linear-gradient-5" x1="130.05" y1="556.1" x2="589.63" y2="874.09" xlink:href="#linear-gradient"/>
    <linearGradient id="linear-gradient-6" x1="160.97" y1="123.03" x2="206.05" y2="168.11" gradientUnits="userSpaceOnUse">
      <stop offset="0" stop-color="#4ab61a"/>
      <stop offset="1" stop-color="#3a8d06"/>
    </linearGradient>
    <linearGradient id="linear-gradient-7" x1="235.67" y1="131.74" x2="176.79" y2="151.46" gradientUnits="userSpaceOnUse">
      <stop offset="0" stop-color="#fff"/>
      <stop offset="1" stop-color="#3a8d06"/>
    </linearGradient>
    <filter id="drop-shadow-1" filterUnits="userSpaceOnUse">
      <feOffset dx="7" dy="7"/>
      <feGaussianBlur result="blur" stdDeviation="5"/>
      <feFlood flood-color="#b1b3a9" flood-opacity=".45"/>
      <feComposite in2="blur" operator="in"/>
      <feComposite in="SourceGraphic"/>
    </filter>
    <linearGradient id="linear-gradient-8" x1="128.38" y1="174.8" x2="259.69" y2="306.11" xlink:href="#linear-gradient-6"/>
    <linearGradient id="linear-gradient-9" x1="216.14" y1="177.03" x2="165.96" y2="126.85" xlink:href="#linear-gradient-6"/>
    <filter id="drop-shadow-2" filterUnits="userSpaceOnUse">
      <feOffset dx="7" dy="7"/>
      <feGaussianBlur result="blur-2" stdDeviation="5"/>
      <feFlood flood-color="#456000" flood-opacity=".45"/>
      <feComposite in2="blur-2" operator="in"/>
      <feComposite in="SourceGraphic"/>
    </filter>
    <linearGradient id="linear-gradient-10" x1="369.39" y1="35.04" x2="404.33" y2="69.98" xlink:href="#linear-gradient-6"/>
    <linearGradient id="linear-gradient-11" x1="427.29" y1="41.79" x2="381.65" y2="57.07" xlink:href="#linear-gradient-7"/>
    <filter id="drop-shadow-3" filterUnits="userSpaceOnUse">
      <feOffset dx="7" dy="7"/>
      <feGaussianBlur result="blur-3" stdDeviation="5"/>
      <feFlood flood-color="#b1b3a9" flood-opacity=".45"/>
      <feComposite in2="blur-3" operator="in"/>
      <feComposite in="SourceGraphic"/>
    </filter>
    <linearGradient id="linear-gradient-12" x1="353.74" y1="91.15" x2="434.86" y2="172.27" xlink:href="#linear-gradient-6"/>
    <linearGradient id="linear-gradient-13" x1="412.15" y1="76.9" x2="373.25" y2="38.01" xlink:href="#linear-gradient-6"/>
    <filter id="drop-shadow-4" filterUnits="userSpaceOnUse">
      <feOffset dx="7" dy="7"/>
      <feGaussianBlur result="blur-4" stdDeviation="5"/>
      <feFlood flood-color="#456000" flood-opacity=".45"/>
      <feComposite in2="blur-4" operator="in"/>
      <feComposite in="SourceGraphic"/>
    </filter>
    <linearGradient id="linear-gradient-14" x1="666.97" y1="722.03" x2="712.05" y2="767.11" xlink:href="#linear-gradient-6"/>
    <linearGradient id="linear-gradient-15" x1="741.67" y1="730.74" x2="682.79" y2="750.46" xlink:href="#linear-gradient-7"/>
    <filter id="drop-shadow-5" filterUnits="userSpaceOnUse">
      <feOffset dx="7" dy="7"/>
      <feGaussianBlur result="blur-5" stdDeviation="5"/>
      <feFlood flood-color="#b1b3a9" flood-opacity=".45"/>
      <feComposite in2="blur-5" operator="in"/>
      <feComposite in="SourceGraphic"/>
    </filter>
    <linearGradient id="linear-gradient-16" x1="646.79" y1="794.42" x2="751.44" y2="899.07" xlink:href="#linear-gradient-6"/>
    <linearGradient id="linear-gradient-17" x1="722.14" y1="776.03" x2="671.96" y2="725.85" xlink:href="#linear-gradient-6"/>
    <filter id="drop-shadow-6" filterUnits="userSpaceOnUse">
      <feOffset dx="7" dy="7"/>
      <feGaussianBlur result="blur-6" stdDeviation="5"/>
      <feFlood flood-color="#456000" flood-opacity=".45"/>
      <feComposite in2="blur-6" operator="in"/>
      <feComposite in="SourceGraphic"/>
    </filter>
    <linearGradient id="linear-gradient-18" x1="526.97" y1="93.03" x2="572.05" y2="138.11" xlink:href="#linear-gradient-6"/>
    <linearGradient id="linear-gradient-19" x1="601.67" y1="101.74" x2="542.79" y2="121.46" xlink:href="#linear-gradient-7"/>
    <filter id="drop-shadow-7" filterUnits="userSpaceOnUse">
      <feOffset dx="7" dy="7"/>
      <feGaussianBlur result="blur-7" stdDeviation="5"/>
      <feFlood flood-color="#b1b3a9" flood-opacity=".45"/>
      <feComposite in2="blur-7" operator="in"/>
      <feComposite in="SourceGraphic"/>
    </filter>
    <linearGradient id="linear-gradient-20" x1="506.79" y1="165.42" x2="611.44" y2="270.07" xlink:href="#linear-gradient-6"/>
    <linearGradient id="linear-gradient-21" x1="582.14" y1="147.03" x2="531.96" y2="96.85" xlink:href="#linear-gradient-6"/>
    <filter id="drop-shadow-8" filterUnits="userSpaceOnUse">
      <feOffset dx="7" dy="7"/>
      <feGaussianBlur result="blur-8" stdDeviation="5"/>
      <feFlood flood-color="#456000" flood-opacity=".45"/>
      <feComposite in2="blur-8" operator="in"/>
      <feComposite in="SourceGraphic"/>
    </filter>
    <linearGradient id="linear-gradient-22" x1="1.8" y1="760.51" x2="46.88" y2="805.59" gradientTransform="translate(76.39)" gradientUnits="userSpaceOnUse">
      <stop offset="0" stop-color="#3a8d06"/>
      <stop offset="1" stop-color="#266300"/>
    </linearGradient>
    <linearGradient id="linear-gradient-23" x1="66.16" y1="794.66" x2="-1.04" y2="774.68" gradientTransform="translate(76.39)" gradientUnits="userSpaceOnUse">
      <stop offset="0" stop-color="#fff"/>
      <stop offset="1" stop-color="#507100"/>
    </linearGradient>
    <filter id="drop-shadow-9" filterUnits="userSpaceOnUse">
      <feOffset dx="7" dy="7"/>
      <feGaussianBlur result="blur-9" stdDeviation="5"/>
      <feFlood flood-color="#b1b3a9" flood-opacity=".45"/>
      <feComposite in2="blur-9" operator="in"/>
      <feComposite in="SourceGraphic"/>
    </filter>
    <linearGradient id="linear-gradient-24" x1="-18.39" y1="832.9" x2="86.27" y2="937.55" xlink:href="#linear-gradient-22"/>
    <linearGradient id="linear-gradient-25" x1="141.06" y1="822.21" x2="62.41" y2="743.57" gradientTransform="matrix(1,0,0,1,0,0)" xlink:href="#linear-gradient-22"/>
    <filter id="drop-shadow-10" filterUnits="userSpaceOnUse">
      <feOffset dx="7" dy="7"/>
      <feGaussianBlur result="blur-10" stdDeviation="5"/>
      <feFlood flood-color="#456000" flood-opacity=".45"/>
      <feComposite in2="blur-10" operator="in"/>
      <feComposite in="SourceGraphic"/>
    </filter>
    <linearGradient id="linear-gradient-26" x1="557.33" y1="297.03" x2="602.41" y2="342.11" xlink:href="#linear-gradient-22"/>
    <linearGradient id="linear-gradient-27" x1="621.69" y1="331.18" x2="554.48" y2="311.2" xlink:href="#linear-gradient-23"/>
    <filter id="drop-shadow-11" filterUnits="userSpaceOnUse">
      <feOffset dx="7" dy="7"/>
      <feGaussianBlur result="blur-11" stdDeviation="5"/>
      <feFlood flood-color="#b1b3a9" flood-opacity=".45"/>
      <feComposite in2="blur-11" operator="in"/>
      <feComposite in="SourceGraphic"/>
    </filter>
    <linearGradient id="linear-gradient-28" x1="537.14" y1="369.42" x2="641.8" y2="474.07" xlink:href="#linear-gradient-22"/>
    <linearGradient id="linear-gradient-29" x1="696.59" y1="358.74" x2="617.94" y2="280.09" gradientTransform="matrix(1,0,0,1,0,0)" xlink:href="#linear-gradient-22"/>
    <filter id="drop-shadow-12" filterUnits="userSpaceOnUse">
      <feOffset dx="7" dy="7"/>
      <feGaussianBlur result="blur-12" stdDeviation="5"/>
      <feFlood flood-color="#456000" flood-opacity=".45"/>
      <feComposite in2="blur-12" operator="in"/>
      <feComposite in="SourceGraphic"/>
    </filter>
    <linearGradient id="linear-gradient-30" x1="33.33" y1="462.03" x2="78.41" y2="507.11" xlink:href="#linear-gradient-22"/>
    <linearGradient id="linear-gradient-31" x1="97.69" y1="496.18" x2="30.48" y2="476.2" xlink:href="#linear-gradient-23"/>
    <filter id="drop-shadow-13" filterUnits="userSpaceOnUse">
      <feOffset dx="7" dy="7"/>
      <feGaussianBlur result="blur-13" stdDeviation="5"/>
      <feFlood flood-color="#b1b3a9" flood-opacity=".45"/>
      <feComposite in2="blur-13" operator="in"/>
      <feComposite in="SourceGraphic"/>
    </filter>
    <linearGradient id="linear-gradient-32" x1="13.14" y1="534.42" x2="117.8" y2="639.07" xlink:href="#linear-gradient-22"/>
    <linearGradient id="linear-gradient-33" x1="172.59" y1="523.74" x2="93.94" y2="445.09" gradientTransform="matrix(1,0,0,1,0,0)" xlink:href="#linear-gradient-22"/>
    <filter id="drop-shadow-14" filterUnits="userSpaceOnUse">
      <feOffset dx="7" dy="7"/>
      <feGaussianBlur result="blur-14" stdDeviation="5"/>
      <feFlood flood-color="#456000" flood-opacity=".45"/>
      <feComposite in2="blur-14" operator="in"/>
      <feComposite in="SourceGraphic"/>
    </filter>
    <linearGradient id="linear-gradient-34" x1="476.55" y1="592.99" x2="508.64" y2="625.08" xlink:href="#linear-gradient-22"/>
    <linearGradient id="linear-gradient-35" x1="522.36" y1="617.3" x2="474.53" y2="603.07" xlink:href="#linear-gradient-23"/>
    <filter id="drop-shadow-15" filterUnits="userSpaceOnUse">
      <feOffset dx="7" dy="7"/>
      <feGaussianBlur result="blur-15" stdDeviation="5"/>
      <feFlood flood-color="#b1b3a9" flood-opacity=".45"/>
      <feComposite in2="blur-15" operator="in"/>
      <feComposite in="SourceGraphic"/>
    </filter>
    <linearGradient id="linear-gradient-36" x1="462.18" y1="644.51" x2="536.67" y2="719" xlink:href="#linear-gradient-22"/>
    <linearGradient id="linear-gradient-37" x1="597.69" y1="636.91" x2="541.71" y2="580.93" gradientTransform="matrix(1,0,0,1,0,0)" xlink:href="#linear-gradient-22"/>
    <filter id="drop-shadow-16" filterUnits="userSpaceOnUse">
      <feOffset dx="7" dy="7"/>
      <feGaussianBlur result="blur-16" stdDeviation="5"/>
      <feFlood flood-color="#456000" flood-opacity=".45"/>
      <feComposite in2="blur-16" operator="in"/>
      <feComposite in="SourceGraphic"/>
    </filter>
    <linearGradient id="linear-gradient-38" x1="140.55" y1="665.99" x2="172.64" y2="698.08" xlink:href="#linear-gradient-22"/>
    <linearGradient id="linear-gradient-39" x1="186.36" y1="690.3" x2="138.53" y2="676.07" xlink:href="#linear-gradient-23"/>
    <filter id="drop-shadow-17" filterUnits="userSpaceOnUse">
      <feOffset dx="7" dy="7"/>
      <feGaussianBlur result="blur-17" stdDeviation="5"/>
      <feFlood flood-color="#b1b3a9" flood-opacity=".45"/>
      <feComposite in2="blur-17" operator="in"/>
      <feComposite in="SourceGraphic"/>
    </filter>
    <linearGradient id="linear-gradient-40" x1="126.18" y1="717.51" x2="200.67" y2="792" xlink:href="#linear-gradient-22"/>
    <linearGradient id="linear-gradient-41" x1="261.69" y1="709.91" x2="205.71" y2="653.93" gradientTransform="matrix(1,0,0,1,0,0)" xlink:href="#linear-gradient-22"/>
    <filter id="drop-shadow-18" filterUnits="userSpaceOnUse">
      <feOffset dx="7" dy="7"/>
      <feGaussianBlur result="blur-18" stdDeviation="5"/>
      <feFlood flood-color="#456000" flood-opacity=".45"/>
      <feComposite in2="blur-18" operator="in"/>
      <feComposite in="SourceGraphic"/>
    </filter>
    <linearGradient id="linear-gradient-42" x1="275.72" y1="361.7" x2="317.21" y2="403.18" gradientTransform="translate(700.86 -127.82) rotate(59.3)" gradientUnits="userSpaceOnUse">
      <stop offset="0" stop-color="#71de49"/>
      <stop offset="1" stop-color="#4ab61a"/>
    </linearGradient>
    <linearGradient id="linear-gradient-43" x1="318.03" y1="368.66" x2="277.29" y2="401.5" gradientTransform="translate(700.86 -127.82) rotate(59.3)" xlink:href="#linear-gradient-23"/>
    <linearGradient id="linear-gradient-44" x1="270.6" y1="633.15" x2="312.08" y2="674.63" gradientTransform="translate(-524.88 373.86) rotate(-61.13)" xlink:href="#linear-gradient-42"/>
    <linearGradient id="linear-gradient-45" x1="312.91" y1="640.11" x2="272.17" y2="672.95" gradientTransform="translate(-524.88 373.86) rotate(-61.13)" xlink:href="#linear-gradient-23"/>
    <linearGradient id="linear-gradient-46" x1="547.56" y1="728.17" x2="574.84" y2="755.45" gradientTransform="translate(-571.19 921.29) rotate(-68.72)" xlink:href="#linear-gradient-42"/>
    <linearGradient id="linear-gradient-47" x1="575.39" y1="732.75" x2="548.6" y2="754.35" gradientTransform="translate(-571.19 921.29) rotate(-68.72)" xlink:href="#linear-gradient-23"/>
    <linearGradient id="linear-gradient-48" x1="541.81" y1="542.11" x2="577.39" y2="577.7" gradientTransform="translate(-484.2 606.49) rotate(-61.46)" xlink:href="#linear-gradient-22"/>
    <linearGradient id="linear-gradient-49" x1="275.74" y1="368.11" x2="277.12" y2="391.98" gradientTransform="matrix(1,0,0,1,0,0)" xlink:href="#linear-gradient-23"/>
    <linearGradient id="linear-gradient-50" x1="312.04" y1="968.4" x2="347.63" y2="1003.99" gradientTransform="translate(1115.12 -72.39) rotate(52.45)" xlink:href="#linear-gradient-22"/>
    <linearGradient id="linear-gradient-51" x1="540.45" y1="773.64" x2="541.84" y2="797.51" gradientTransform="translate(1473.29 616.09) rotate(113.91)" xlink:href="#linear-gradient-23"/>
    <linearGradient id="linear-gradient-52" x1="732.63" y1="506.54" x2="757.83" y2="531.73" gradientTransform="translate(-484.2 606.49) rotate(-61.46)" xlink:href="#linear-gradient-42"/>
    <linearGradient id="linear-gradient-53" x1="758.33" y1="510.77" x2="733.59" y2="530.72" gradientTransform="translate(-484.2 606.49) rotate(-61.46)" xlink:href="#linear-gradient-23"/>
  </defs>
  <g class="cls-64">
    <g id="Layer_1" data-name="Layer 1">
      <g>
        <path class="cls-5" d="m587,426.78l-8.23-8.23-146.9,67.88-4.53-70.03c-.67-10.39,4.35-20.33,13.11-25.95l91.19-58.47-6.89-6.89-100.52,43.41-2.79-43.11-1.42-22.02c-.48-7.43,3.11-14.53,9.38-18.55l133.33-85.48-6.69-6.69-139.29,60.15-6.17-95.19h-18.93l-4.05,62.51-47.37-20.46-6.08,6.08,43.98,28.2c5.08,3.26,8,9.02,7.61,15.05l-2.55,39.33-124.89-53.94-6.89,6.89,114.17,73.2c9.43,6.05,14.84,16.74,14.12,27.93l-4.82,74.51-91.12-39.35-6.89,6.89,84.2,53.99c7.35,4.72,11.57,13.05,11,21.77l-3.29,50.81-162.2-74.95-9.61,9.61,155.24,94.99c8.67,5.3,13.68,14.97,13.03,25.11l-4.63,71.58h81.05l-6.51-100.52c-.66-10.14,4.36-19.81,13.03-25.11l138.84-84.95Z"/>
        <path class="cls-30" d="m416.75,716.82l-6.17-95.19h-18.93l-4.05,62.51-47.37-20.46-6.08,6.08,43.98,28.2c5.08,3.26,8,9.02,7.61,15.05l-2.55,39.33"/>
        <path class="cls-34" d="m381.05,902.76c7.35,4.72,11.57,13.05,11,21.77l-3.29,50.81-162.2-74.95-9.61,9.61,155.24,94.99c8.67,5.3,13.68,14.97,13.03,25.11l-4.63,71.58h81.05l-6.51-100.52c-.66-10.14,4.36-19.81,13.03-25.11l138.84-84.95-8.23-8.23-146.9,67.88-4.53-70.03c-.67-10.39,4.35-20.33,13.11-25.95l91.19-58.47-6.89-6.89-100.52,43.41-2.79-43.11-1.42-22.02c-.48-7.43,3.11-14.53,9.38-18.55"/>
        <path class="cls-61" d="m385.56,778.8c9.43,6.05,14.84,16.74,14.12,27.93l-4.82,74.51-14.86,10.75"/>
        <path class="cls-5" d="m587,426.78l-8.23-8.23-146.9,67.88-4.53-70.03c-.67-10.39,4.35-20.33,13.11-25.95l91.19-58.47-6.89-6.89-100.52,43.41-2.79-43.11-1.42-22.02c-.48-7.43,3.11-14.53,9.38-18.55l133.33-85.48-6.69-6.69-139.29,60.15-6.17-95.19h-18.93l-4.05,62.51-47.37-20.46-6.08,6.08,43.98,28.2c5.08,3.26,8,9.02,7.61,15.05l-2.55,39.33-124.89-53.94-6.89,6.89,114.17,73.2c9.43,6.05,14.84,16.74,14.12,27.93l-4.82,74.51-91.12-39.35-6.89,6.89,84.2,53.99c7.35,4.72,11.57,13.05,11,21.77l-3.29,50.81-162.2-74.95-9.61,9.61,155.24,94.99c8.67,5.3,13.68,14.97,13.03,25.11l-4.63,71.58h81.05l-6.51-100.52c-.66-10.14,4.36-19.81,13.03-25.11l138.84-84.95Z"/>
        <path class="cls-17" d="m686.02,827.45l-12.07-12.07-215.47,99.57-6.65-102.71c-.99-15.24,6.38-29.81,19.24-38.05l133.76-85.76-10.11-10.11-147.43,63.67-4.09-63.23-2.09-32.3c-.7-10.9,4.56-21.32,13.76-27.21l195.55-125.38-9.82-9.82-204.29,88.23-9.04-139.62h-27.76l-5.94,91.69-69.49-30.01-8.92,8.92,64.5,41.36c7.46,4.78,11.73,13.24,11.16,22.07l-3.74,57.69-183.19-79.11-10.11,10.11,167.45,107.36c13.84,8.87,21.77,24.56,20.71,40.96l-7.07,109.29-133.65-57.72-10.11,10.11,123.5,79.18c10.79,6.92,16.97,19.14,16.14,31.93l-4.82,74.52-237.91-109.94-14.1,14.1,227.7,139.32c12.71,7.78,20.07,21.96,19.11,36.83l-6.8,104.99h118.87l-9.55-147.43c-.96-14.87,6.39-29.05,19.11-36.83l203.64-124.6Z"/>
        <g>
          <g>
            <g>
              <path class="cls-6" d="m246.05,168.77l-39.34,39.35c-9.5,9.5-24.91,9.5-34.41,0l-39.34-39.35c-9.5-9.5-9.5-24.9,0-34.4l56.54-56.54,56.54,56.54c9.5,9.5,9.5,24.9,0,34.4Z"/>
              <path class="cls-58" d="m206.72,208.11l39.34-39.35c9.5-9.5,9.5-24.9,0-34.4l-56.54-56.54v137.42c6.23,0,12.46-2.38,17.21-7.13Z"/>
            </g>
            <path class="cls-13" d="m189.5,323.29l-77.22.39c-11.85,0-21.47-17.34-21.47-38.66v-98.15c0-21.33,9.63-38.68,21.46-38.68h44.33c1.4,0,2.74-1.07,3.68-2.93l18.84-37.65.13-.23c2.76-4.97,6.4-7.69,10.28-7.69s7.52,2.73,10.27,7.68l.3.56,18.68,37.34c.93,1.86,2.27,2.93,3.68,2.93h44.33c11.83,0,21.46,17.35,21.46,38.68v98.15c0,21.32-9.63,38.66-21.46,38.66l-77.26-.39Z"/>
            <path class="cls-42" d="m266.76,156.84h-44.33c-2.75,0-5.39-2.09-7.24-5.79l-18.68-37.34-.13-.23c-1.84-3.31-4.27-5.14-6.87-5.14s-5.04,1.83-6.87,5.14l-.13.23-18.68,37.34c-1.85,3.7-4.49,5.79-7.24,5.79h-44.33c-9.18,0-16.65,13.46-16.65,30.03v98.15c0,16.54,7.47,30,16.65,30l77.25-.39,77.25.39c9.18,0,16.65-13.46,16.65-30v-98.15c0-16.56-7.47-30.03-16.65-30.03Z"/>
            <path class="cls-36" d="m230.31,145.93c0-29.33-40.8-53.11-40.8-53.11,0,0-40.8,23.78-40.8,53.11s18.27,53.11,40.8,53.11,40.8-23.78,40.8-53.11Z"/>
            <path class="cls-25" d="m196.69,188.97c-2.19.74-4.61,1.15-7.24,1.15-2.48,0-4.88-.42-7.12-1.21l4.84-5.37c1.28-1.28,3.35-1.28,4.63,0l4.89,5.43Z"/>
          </g>
          <g>
            <g>
              <path class="cls-57" d="m435.34,70.49l-30.49,30.5c-7.36,7.36-19.31,7.36-26.67,0l-30.49-30.5c-7.36-7.36-7.36-19.3,0-26.67L391.51,0l43.83,43.83c7.36,7.36,7.36,19.3,0,26.67Z"/>
              <path class="cls-10" d="m404.85,100.99l30.49-30.5c7.36-7.36,7.36-19.3,0-26.67L391.51,0v106.51c4.83,0,9.65-1.84,13.34-5.52Z"/>
            </g>
            <path class="cls-49" d="m391.5,166.5l-59.86.17c-9.18,0-16.64-7.46-16.64-16.63v-42.23c0-9.18,7.46-16.64,16.63-16.64h34.36c1.09,0,2.13-.46,2.85-1.26l14.6-16.2.1-.1c2.14-2.14,4.96-3.31,7.97-3.31s5.83,1.17,7.96,3.3l.23.24,14.48,16.07c.72.8,1.76,1.26,2.85,1.26h34.36c9.17,0,16.63,7.47,16.63,16.64v42.23c0,9.17-7.46,16.63-16.63,16.63l-59.89-.17Z"/>
            <path class="cls-3" d="m451.39,94.89h-34.36c-2.13,0-4.18-.9-5.62-2.49l-14.48-16.07-.1-.1c-1.42-1.42-3.31-2.21-5.33-2.21s-3.9.79-5.33,2.21l-.1.1-14.48,16.07c-1.43,1.59-3.48,2.49-5.62,2.49h-34.36c-7.12,0-12.91,5.79-12.91,12.92v42.23c0,7.12,5.79,12.91,12.91,12.91l59.88-.17,59.88.17c7.12,0,12.91-5.79,12.91-12.91v-42.23c0-7.13-5.79-12.92-12.91-12.92Z"/>
            <path class="cls-45" d="m423.13,52.79c0-22.74-31.62-41.17-31.62-41.17,0,0-31.62,18.43-31.62,41.17s14.16,41.17,31.62,41.17,31.62-18.43,31.62-41.17Z"/>
            <path class="cls-25" d="m397.07,86.15c-1.7.57-3.58.89-5.61.89-1.92,0-3.78-.33-5.52-.94l3.75-4.16c.99-.99,2.6-.99,3.59,0l3.79,4.21Z"/>
          </g>
          <g>
            <g>
              <path class="cls-29" d="m752.05,767.77l-39.34,39.35c-9.5,9.5-24.91,9.5-34.41,0l-39.34-39.35c-9.5-9.5-9.5-24.9,0-34.4l56.54-56.54,56.54,56.54c9.5,9.5,9.5,24.9,0,34.4Z"/>
              <path class="cls-7" d="m712.72,807.11l39.34-39.35c9.5-9.5,9.5-24.9,0-34.4l-56.54-56.54v137.42c6.23,0,12.46-2.38,17.21-7.13Z"/>
            </g>
            <path class="cls-35" d="m695.5,891.63l-77.22.21c-11.85,0-21.47-9.63-21.47-21.46v-54.48c0-11.84,9.63-21.47,21.46-21.47h44.33c1.4,0,2.74-.59,3.68-1.63l18.84-20.9.13-.13c2.76-2.76,6.4-4.27,10.28-4.27s7.52,1.51,10.27,4.26l.3.31,18.68,20.73c.93,1.03,2.27,1.62,3.68,1.62h44.33c11.83,0,21.46,9.63,21.46,21.47v54.48c0,11.83-9.63,21.46-21.46,21.46l-77.26-.21Z"/>
            <path class="cls-23" d="m772.76,799.24h-44.33c-2.75,0-5.39-1.16-7.24-3.21l-18.68-20.73-.13-.13c-1.84-1.84-4.27-2.85-6.87-2.85s-5.04,1.02-6.87,2.85l-.13.13-18.68,20.73c-1.85,2.05-4.49,3.21-7.24,3.21h-44.33c-9.18,0-16.65,7.47-16.65,16.67v54.48c0,9.18,7.47,16.65,16.65,16.65l77.25-.22,77.25.22c9.18,0,16.65-7.47,16.65-16.65v-54.48c0-9.2-7.47-16.67-16.65-16.67Z"/>
            <path class="cls-63" d="m736.31,744.93c0-29.33-40.8-53.11-40.8-53.11,0,0-40.8,23.78-40.8,53.11s18.27,53.11,40.8,53.11,40.8-23.78,40.8-53.11Z"/>
            <path class="cls-25" d="m702.69,787.97c-2.19.74-4.61,1.15-7.24,1.15-2.48,0-4.88-.42-7.12-1.21l4.84-5.37c1.28-1.28,3.35-1.28,4.63,0l4.89,5.43Z"/>
          </g>
          <g>
            <g>
              <path class="cls-46" d="m612.05,138.77l-39.34,39.35c-9.5,9.5-24.91,9.5-34.41,0l-39.34-39.35c-9.5-9.5-9.5-24.9,0-34.4l56.54-56.54,56.54,56.54c9.5,9.5,9.5,24.9,0,34.4Z"/>
              <path class="cls-1" d="m572.72,178.11l39.34-39.35c9.5-9.5,9.5-24.9,0-34.4l-56.54-56.54v137.42c6.23,0,12.46-2.38,17.21-7.13Z"/>
            </g>
            <path class="cls-37" d="m555.5,262.63l-77.22.21c-11.85,0-21.47-9.63-21.47-21.46v-54.48c0-11.84,9.63-21.47,21.46-21.47h44.33c1.4,0,2.74-.59,3.68-1.63l18.84-20.9.13-.13c2.76-2.76,6.4-4.27,10.28-4.27s7.52,1.51,10.27,4.26l.3.31,18.68,20.73c.93,1.03,2.27,1.62,3.68,1.62h44.33c11.83,0,21.46,9.63,21.46,21.47v54.48c0,11.83-9.63,21.46-21.46,21.46l-77.26-.21Z"/>
            <path class="cls-28" d="m632.76,170.24h-44.33c-2.75,0-5.39-1.16-7.24-3.21l-18.68-20.73-.13-.13c-1.84-1.84-4.27-2.85-6.87-2.85s-5.04,1.02-6.87,2.85l-.13.13-18.68,20.73c-1.85,2.05-4.49,3.21-7.24,3.21h-44.33c-9.18,0-16.65,7.47-16.65,16.67v54.48c0,9.18,7.47,16.65,16.65,16.65l77.25-.22,77.25.22c9.18,0,16.65-7.47,16.65-16.65v-54.48c0-9.2-7.47-16.67-16.65-16.67Z"/>
            <path class="cls-53" d="m596.31,115.93c0-29.33-40.8-53.11-40.8-53.11,0,0-40.8,23.78-40.8,53.11s18.27,53.11,40.8,53.11,40.8-23.78,40.8-53.11Z"/>
            <path class="cls-25" d="m562.69,158.97c-2.19.74-4.61,1.15-7.24,1.15-2.48,0-4.88-.42-7.12-1.21l4.84-5.37c1.28-1.28,3.35-1.28,4.63,0l4.89,5.43Z"/>
          </g>
          <g>
            <g>
              <path class="cls-24" d="m163.27,806.24l-39.34,39.35c-9.5,9.5-24.91,9.5-34.41,0l-39.34-39.35c-9.5-9.5-9.5-24.9,0-34.4l56.54-56.54,56.54,56.54c9.5,9.5,9.5,24.9,0,34.4Z"/>
              <path class="cls-4" d="m123.94,845.59l39.34-39.35c9.5-9.5,9.5-24.9,0-34.4l-56.54-56.54v137.42c6.23,0,12.46-2.38,17.21-7.13Z"/>
            </g>
            <path class="cls-59" d="m106.72,930.11l-77.22.21c-11.85,0-21.47-9.63-21.47-21.46v-54.48c0-11.84,9.63-21.47,21.46-21.47h44.33c1.4,0,2.74-.59,3.68-1.63l18.84-20.9.13-.13c2.76-2.76,6.4-4.27,10.28-4.27s7.52,1.51,10.27,4.26l.3.31,18.68,20.73c.93,1.03,2.27,1.63,3.68,1.63h44.33c11.83,0,21.46,9.63,21.46,21.47v54.48c0,11.83-9.63,21.46-21.46,21.46l-77.26-.21Z"/>
            <path class="cls-43" d="m183.98,837.72h-44.33c-2.75,0-5.39-1.16-7.24-3.21l-18.68-20.73-.13-.13c-1.84-1.84-4.27-2.85-6.87-2.85s-5.04,1.02-6.87,2.85l-.13.13-18.68,20.73c-1.85,2.05-4.49,3.21-7.24,3.21H29.48c-9.18,0-16.65,7.47-16.65,16.67v54.48c0,9.18,7.47,16.65,16.65,16.65l77.25-.22,77.25.22c9.18,0,16.65-7.47,16.65-16.65v-54.48c0-9.2-7.47-16.67-16.65-16.67Z"/>
            <path class="cls-16" d="m147.53,783.41c0-29.33-40.8-53.11-40.8-53.11,0,0-40.8,23.78-40.8,53.11s18.27,53.11,40.8,53.11,40.8-23.78,40.8-53.11Z"/>
            <path class="cls-25" d="m113.91,826.45c-2.19.74-4.61,1.15-7.24,1.15-2.48,0-4.88-.42-7.12-1.21l4.84-5.37c1.28-1.28,3.35-1.28,4.63,0l4.89,5.43Z"/>
          </g>
          <g>
            <g>
              <path class="cls-44" d="m718.8,342.76l-39.34,39.35c-9.5,9.5-24.91,9.5-34.41,0l-39.34-39.35c-9.5-9.5-9.5-24.9,0-34.4l56.54-56.54,56.54,56.54c9.5,9.5,9.5,24.9,0,34.4Z"/>
              <path class="cls-55" d="m679.46,382.11l39.34-39.35c9.5-9.5,9.5-24.9,0-34.4l-56.54-56.54v137.42c6.23,0,12.46-2.38,17.21-7.13Z"/>
            </g>
            <path class="cls-54" d="m662.24,466.63l-77.22.21c-11.85,0-21.47-9.63-21.47-21.46v-54.48c0-11.84,9.63-21.47,21.46-21.47h44.33c1.4,0,2.74-.59,3.68-1.63l18.84-20.9.13-.13c2.76-2.76,6.4-4.27,10.28-4.27s7.52,1.51,10.27,4.26l.3.31,18.68,20.73c.93,1.03,2.27,1.63,3.68,1.63h44.33c11.83,0,21.46,9.63,21.46,21.47v54.48c0,11.83-9.63,21.46-21.46,21.46l-77.26-.21Z"/>
            <path class="cls-56" d="m739.5,374.24h-44.33c-2.75,0-5.39-1.16-7.24-3.21l-18.68-20.73-.13-.13c-1.84-1.84-4.27-2.85-6.87-2.85s-5.04,1.02-6.87,2.85l-.13.13-18.68,20.73c-1.85,2.05-4.49,3.21-7.24,3.21h-44.33c-9.18,0-16.65,7.47-16.65,16.67v54.48c0,9.18,7.47,16.65,16.65,16.65l77.25-.22,77.25.22c9.18,0,16.65-7.47,16.65-16.65v-54.48c0-9.2-7.47-16.67-16.65-16.67Z"/>
            <path class="cls-21" d="m703.05,319.93c0-29.33-40.8-53.11-40.8-53.11,0,0-40.8,23.78-40.8,53.11s18.27,53.11,40.8,53.11,40.8-23.78,40.8-53.11Z"/>
            <path class="cls-25" d="m669.43,362.97c-2.19.74-4.61,1.15-7.24,1.15-2.48,0-4.88-.42-7.12-1.21l4.84-5.37c1.28-1.28,3.35-1.28,4.63,0l4.89,5.43Z"/>
          </g>
          <g>
            <g>
              <path class="cls-48" d="m194.8,507.76l-39.34,39.35c-9.5,9.5-24.91,9.5-34.41,0l-39.34-39.35c-9.5-9.5-9.5-24.9,0-34.4l56.54-56.54,56.54,56.54c9.5,9.5,9.5,24.9,0,34.4Z"/>
              <path class="cls-32" d="m155.46,547.11l39.34-39.35c9.5-9.5,9.5-24.9,0-34.4l-56.54-56.54v137.42c6.23,0,12.46-2.38,17.21-7.13Z"/>
            </g>
            <path class="cls-33" d="m138.24,631.63l-77.22.21c-11.85,0-21.47-9.63-21.47-21.46v-54.48c0-11.84,9.63-21.47,21.46-21.47h44.33c1.4,0,2.74-.59,3.68-1.63l18.84-20.9.13-.13c2.76-2.76,6.4-4.27,10.28-4.27s7.52,1.51,10.27,4.26l.3.31,18.68,20.73c.93,1.03,2.27,1.63,3.68,1.63h44.33c11.83,0,21.46,9.63,21.46,21.47v54.48c0,11.83-9.63,21.46-21.46,21.46l-77.26-.21Z"/>
            <path class="cls-27" d="m215.5,539.24h-44.33c-2.75,0-5.39-1.16-7.24-3.21l-18.68-20.73-.13-.13c-1.84-1.84-4.27-2.85-6.87-2.85s-5.04,1.02-6.87,2.85l-.13.13-18.68,20.73c-1.85,2.05-4.49,3.21-7.24,3.21h-44.33c-9.18,0-16.65,7.47-16.65,16.67v54.48c0,9.18,7.47,16.65,16.65,16.65l77.25-.22,77.25.22c9.18,0,16.65-7.47,16.65-16.65v-54.48c0-9.2-7.47-16.67-16.65-16.67Z"/>
            <path class="cls-15" d="m179.05,484.93c0-29.33-40.8-53.11-40.8-53.11,0,0-40.8,23.78-40.8,53.11s18.27,53.11,40.8,53.11,40.8-23.78,40.8-53.11Z"/>
            <path class="cls-25" d="m145.43,527.97c-2.19.74-4.61,1.15-7.24,1.15-2.48,0-4.88-.42-7.12-1.21l4.84-5.37c1.28-1.28,3.35-1.28,4.63,0l4.89,5.43Z"/>
          </g>
          <g>
            <g>
              <path class="cls-19" d="m613.5,625.54l-28,28.01c-6.76,6.76-17.73,6.76-24.49,0l-28-28.01c-6.76-6.76-6.76-17.72,0-24.49l40.24-40.24,40.24,40.24c6.76,6.76,6.76,17.72,0,24.49Z"/>
              <path class="cls-41" d="m585.5,653.55l28-28.01c6.76-6.76,6.76-17.72,0-24.49l-40.24-40.24v97.81c4.43,0,8.87-1.69,12.25-5.07Z"/>
            </g>
            <path class="cls-52" d="m573.25,713.71l-54.96.15c-8.43,0-15.28-6.85-15.28-15.27v-38.78c0-8.43,6.85-15.28,15.27-15.28h31.55c1,0,1.95-.42,2.62-1.16l13.41-14.87.09-.09c1.96-1.96,4.56-3.04,7.32-3.04s5.35,1.08,7.31,3.03l.21.22,13.29,14.75c.66.73,1.62,1.16,2.62,1.16h31.55c8.42,0,15.27,6.86,15.27,15.28v38.78c0,8.42-6.85,15.27-15.27,15.27l-54.99-.15Z"/>
            <path class="cls-39" d="m628.24,647.94h-31.55c-1.96,0-3.84-.83-5.16-2.29l-13.29-14.75-.09-.09c-1.31-1.31-3.04-2.03-4.89-2.03s-3.58.72-4.89,2.03l-.09.09-13.29,14.75c-1.32,1.46-3.2,2.29-5.16,2.29h-31.55c-6.53,0-11.85,5.32-11.85,11.86v38.78c0,6.53,5.32,11.85,11.85,11.85l54.98-.15,54.98.15c6.53,0,11.85-5.32,11.85-11.85v-38.78c0-6.54-5.32-11.86-11.85-11.86Z"/>
            <path class="cls-47" d="m602.29,609.29c0-20.88-29.04-37.8-29.04-37.8,0,0-29.04,16.92-29.04,37.8s13,37.8,29.04,37.8,29.04-16.92,29.04-37.8Z"/>
            <path class="cls-25" d="m578.37,639.92c-1.56.52-3.28.82-5.15.82-1.77,0-3.47-.3-5.07-.86l3.45-3.82c.91-.91,2.38-.91,3.29,0l3.48,3.86Z"/>
          </g>
          <g>
            <g>
              <path class="cls-2" d="m277.5,698.54l-28,28.01c-6.76,6.76-17.73,6.76-24.49,0l-28-28.01c-6.76-6.76-6.76-17.72,0-24.49l40.24-40.24,40.24,40.24c6.76,6.76,6.76,17.72,0,24.49Z"/>
              <path class="cls-60" d="m249.5,726.55l28-28.01c6.76-6.76,6.76-17.72,0-24.49l-40.24-40.24v97.81c4.43,0,8.87-1.69,12.25-5.07Z"/>
            </g>
            <path class="cls-22" d="m237.25,786.71l-54.96.15c-8.43,0-15.28-6.85-15.28-15.27v-38.78c0-8.43,6.85-15.28,15.27-15.28h31.55c1,0,1.95-.42,2.62-1.16l13.41-14.87.09-.09c1.96-1.96,4.56-3.04,7.32-3.04s5.35,1.08,7.31,3.03l.21.22,13.29,14.75c.66.73,1.62,1.16,2.62,1.16h31.55c8.42,0,15.27,6.86,15.27,15.28v38.78c0,8.42-6.85,15.27-15.27,15.27l-54.99-.15Z"/>
            <path class="cls-20" d="m292.24,720.94h-31.55c-1.96,0-3.84-.83-5.16-2.29l-13.29-14.75-.09-.09c-1.31-1.31-3.04-2.03-4.89-2.03s-3.58.72-4.89,2.03l-.09.09-13.29,14.75c-1.32,1.46-3.2,2.29-5.16,2.29h-31.55c-6.53,0-11.85,5.32-11.85,11.86v38.78c0,6.53,5.32,11.85,11.85,11.85l54.98-.15,54.98.15c6.53,0,11.85-5.32,11.85-11.85v-38.78c0-6.54-5.32-11.86-11.85-11.86Z"/>
            <path class="cls-14" d="m266.29,682.29c0-20.88-29.04-37.8-29.04-37.8,0,0-29.04,16.92-29.04,37.8s13,37.8,29.04,37.8,29.04-16.92,29.04-37.8Z"/>
            <path class="cls-25" d="m242.37,712.92c-1.56.52-3.28.82-5.15.82-1.77,0-3.47-.3-5.07-.86l3.45-3.82c.91-.91,2.38-.91,3.29,0l3.48,3.86Z"/>
          </g>
        </g>
        <g>
          <g>
            <path class="cls-12" d="m540.18,348.41c21.14-12.56,23.68-47.33,23.68-47.33,0,0-31.75-14.41-52.89-1.86-21.14,12.56-31.75,33.75-23.68,47.33,8.07,13.58,31.75,14.41,52.89,1.86Z"/>
            <path class="cls-8" d="m540.18,348.41c21.14-12.56,23.68-47.33,23.68-47.33l-76.57,45.48c8.07,13.58,31.75,14.41,52.89,1.86Z"/>
          </g>
          <g>
            <path class="cls-50" d="m202.38,406.77c-21.54-11.87-52.81,3.55-52.81,3.55,0,0,3.65,34.68,25.19,46.55,21.54,11.87,45.18,10.28,52.81-3.55,7.63-13.84-3.65-34.68-25.19-46.55Z"/>
            <path class="cls-18" d="m202.38,406.77c-21.54-11.87-52.81,3.55-52.81,3.55l77.99,42.99c7.63-13.84-3.65-34.68-25.19-46.55Z"/>
          </g>
          <g>
            <path class="cls-51" d="m330.39,648.29c-15.07-5.87-34.11,6.9-34.11,6.9,0,0,5.39,22.29,20.46,28.15,15.07,5.87,30.34,2.78,34.11-6.9,3.77-9.68-5.39-22.29-20.46-28.15Z"/>
            <path class="cls-38" d="m330.39,648.29c-15.07-5.87-34.11,6.9-34.11,6.9l54.57,21.25c3.77-9.68-5.39-22.29-20.46-28.15Z"/>
          </g>
          <g>
            <path class="cls-40" d="m286.91,358.62c-18.53-10.08-45.29,3.31-45.29,3.31,0,0,3.3,29.73,21.84,39.81,18.53,10.08,38.81,8.6,45.29-3.31,6.48-11.91-3.3-29.73-21.84-39.81Z"/>
            <path class="cls-11" d="m286.91,358.62c-18.53-10.08-45.29,3.31-45.29,3.31l67.12,36.51c6.48-11.91-3.3-29.73-21.84-39.81Z"/>
          </g>
          <g>
            <path class="cls-26" d="m551.14,810.63c16.73-12.86,15.33-42.74,15.33-42.74,0,0-28.52-9.03-45.24,3.82-16.73,12.86-23.59,31.99-15.33,42.74,8.26,10.75,28.52,9.03,45.24-3.82Z"/>
            <path class="cls-9" d="m551.14,810.63c16.73-12.86,15.33-42.74,15.33-42.74l-60.58,46.56c8.26,10.75,28.52,9.03,45.24-3.82Z"/>
          </g>
          <g>
            <path class="cls-31" d="m336.33,183c-13.12-7.14-32.06,2.34-32.06,2.34,0,0,2.34,21.05,15.46,28.19,13.12,7.14,27.48,6.09,32.06-2.34,4.58-8.43-2.34-21.05-15.46-28.19Z"/>
            <path class="cls-62" d="m336.33,183c-13.12-7.14-32.06,2.34-32.06,2.34l47.52,25.85c4.58-8.43-2.34-21.05-15.46-28.19Z"/>
          </g>
        </g>
      </g>
    </g>
  </g>
</svg>